<svg width="36" height="36" viewBox="0 0 36 36" fill="none" xmlns="http://www.w3.org/2000/svg">
<path fill-rule="evenodd" clip-rule="evenodd" d="M17.2041 10.4522C17.6437 10.0127 18.3563 10.0127 18.7959 10.4522L25.5459 17.2022C25.8403 17.4967 25.9376 17.9137 25.8375 18.2891C25.7882 18.4741 25.691 18.6489 25.5459 18.794L18.7935 25.5465C18.3545 25.9855 17.6426 25.9855 17.2036 25.5465C16.7646 25.1074 16.7646 24.3956 17.2036 23.9566L22.0352 19.1251H11.2451C10.6238 19.1251 10.1201 18.6214 10.1201 18.0001C10.1201 17.3788 10.6238 16.8751 11.2451 16.8751H22.0352L17.2041 12.044C16.7645 11.6045 16.7645 10.8918 17.2041 10.4522Z" fill="white"/>
</svg>
