<svg width="405" height="250" viewBox="0 0 405 250" fill="none" xmlns="http://www.w3.org/2000/svg">
<g clip-path="url(#clip0)">
<path d="M82.1811 137.444C97.5883 144.868 113.678 191.554 147.93 201.975C182.181 212.396 240.849 146.407 253.622 112.183C269.589 69.4028 230.589 26.8704 194.16 9.31659C177.003 1.0489 152.193 -8.76174 110.16 1.54098C44.6898 17.5884 27.2588 34.3299 22.5039 63.6737C17.749 93.0175 0.758833 115.418 15.9964 138.4C31.234 161.382 65.8815 129.59 82.1811 137.444Z" fill="#EE6A4D" fill-opacity="0.05"/>
<path d="M331.054 117.573C319.73 103.061 321.484 52.3372 294.189 25.6317C266.893 -1.0737 190.896 29.7761 167.424 54.6333C138.083 85.7048 158.466 144.129 185.24 178.443C197.85 194.605 216.833 216.016 258.383 227.693C323.103 245.881 344.683 239.332 359.213 214.91C373.742 190.488 396.898 178.548 391.154 149.907C385.411 121.266 343.033 132.926 331.054 117.573Z" fill="#F6C958" fill-opacity="0.15"/>
</g>
<defs>
<clipPath id="clip0">
<rect width="405" height="250" fill="white"/>
</clipPath>
</defs>
</svg>
