<svg width="320" height="231" viewBox="0 0 320 231" fill="none" xmlns="http://www.w3.org/2000/svg">
<g clip-path="url(#clip0)">
<path d="M72.6384 122.966C83.996 128.438 95.857 162.853 121.106 170.535C146.355 178.217 189.603 129.572 199.019 104.344C210.789 72.8078 182.039 41.4545 155.185 28.5144C142.537 22.4198 124.248 15.1877 93.2633 22.7825C45.0011 34.6121 32.1517 46.9533 28.6465 68.5845C25.1414 90.2157 12.6168 106.728 23.8494 123.67C35.082 140.612 60.6229 117.176 72.6384 122.966Z" fill="#EE6A4D" fill-opacity="0.05"/>
<path d="M256.104 108.316C247.756 97.6174 249.049 60.2261 228.928 40.5397C208.807 20.8534 152.785 43.5948 135.482 61.9186C113.853 84.8234 128.878 127.892 148.615 153.187C157.911 165.101 171.904 180.884 202.534 189.492C250.243 202.899 266.151 198.072 276.861 180.069C287.572 162.066 304.642 153.264 300.408 132.151C296.174 111.038 264.935 119.634 256.104 108.316Z" fill="#F6C958" fill-opacity="0.15"/>
</g>
<defs>
<clipPath id="clip0">
<rect width="321" height="231" fill="white"/>
</clipPath>
</defs>
</svg>
