<svg width="240" height="191" viewBox="0 0 240 191" fill="none" xmlns="http://www.w3.org/2000/svg">
<rect width="240" height="191" fill="white"/>
<circle cx="135" cy="47" r="11.5" fill="white" stroke="black"/>
<path d="M133.668 39.9658H136.342V40.4158H137.308V39.9028C137.308 39.405 136.903 39 136.406 39H133.604C133.107 39 132.702 39.405 132.702 39.9028V40.4158H133.668V39.9658Z" fill="black"/>
<path d="M139.538 44.2422H130.472C130.223 44.2422 130.028 44.4541 130.048 44.7018L130.806 54.0739C130.848 54.597 131.284 55 131.809 55H138.201C138.725 55 139.161 54.597 139.204 54.0737L139.961 44.7018C139.982 44.4541 139.786 44.2422 139.538 44.2422ZM132.667 54.0004C132.657 54.001 132.647 54.0013 132.637 54.0013C132.383 54.0013 132.171 53.8042 132.155 53.5481L131.68 45.8541C131.664 45.5879 131.866 45.3588 132.133 45.3424C132.398 45.3263 132.628 45.5283 132.644 45.7947L133.119 53.4886C133.136 53.7549 132.933 53.9839 132.667 54.0004ZM135.493 53.5184C135.493 53.785 135.277 54.0012 135.01 54.0012C134.743 54.0012 134.527 53.785 134.527 53.5184V45.8243C134.527 45.5576 134.743 45.3414 135.01 45.3414C135.277 45.3414 135.493 45.5576 135.493 45.8243V53.5184ZM138.329 45.8528L137.876 53.5468C137.861 53.8033 137.648 54.0012 137.394 54.0012C137.385 54.0012 137.375 54.001 137.365 54.0005C137.099 53.9847 136.896 53.7562 136.912 53.49L137.365 45.7959C137.381 45.5297 137.608 45.3265 137.875 45.3423C138.142 45.3579 138.345 45.5865 138.329 45.8528Z" fill="black"/>
<path d="M141.208 42.752L140.891 41.8013C140.807 41.5507 140.572 41.3816 140.308 41.3816H129.702C129.437 41.3816 129.203 41.5507 129.119 41.8013L128.802 42.752C128.741 42.9353 128.82 43.1223 128.969 43.2156C129.03 43.2535 129.101 43.2764 129.18 43.2764H140.83C140.909 43.2764 140.98 43.2535 141.041 43.2155C141.189 43.1222 141.269 42.9352 141.208 42.752Z" fill="black"/>
<circle cx="135" cy="89" r="11.5" fill="white" stroke="#EE6A4D"/>
<path d="M133.668 81.9658H136.342V82.4158H137.308V81.9028C137.308 81.405 136.903 81 136.406 81H133.604C133.107 81 132.702 81.405 132.702 81.9028V82.4158H133.668V81.9658Z" fill="#EE6A4D"/>
<path d="M139.538 86.2422H130.472C130.223 86.2422 130.028 86.4541 130.048 86.7018L130.806 96.0739C130.848 96.597 131.284 97 131.809 97H138.201C138.725 97 139.161 96.597 139.204 96.0737L139.961 86.7018C139.982 86.4541 139.786 86.2422 139.538 86.2422ZM132.667 96.0004C132.657 96.001 132.647 96.0013 132.637 96.0013C132.383 96.0013 132.171 95.8042 132.155 95.5481L131.68 87.8541C131.664 87.5879 131.866 87.3588 132.133 87.3424C132.398 87.3263 132.628 87.5283 132.644 87.7947L133.119 95.4886C133.136 95.7549 132.933 95.9839 132.667 96.0004ZM135.493 95.5184C135.493 95.785 135.277 96.0012 135.01 96.0012C134.743 96.0012 134.527 95.785 134.527 95.5184V87.8243C134.527 87.5576 134.743 87.3414 135.01 87.3414C135.277 87.3414 135.493 87.5576 135.493 87.8243V95.5184ZM138.329 87.8528L137.876 95.5468C137.861 95.8033 137.648 96.0012 137.394 96.0012C137.385 96.0012 137.375 96.001 137.365 96.0005C137.099 95.9847 136.896 95.7562 136.912 95.49L137.365 87.7959C137.381 87.5297 137.608 87.3265 137.875 87.3423C138.142 87.3579 138.345 87.5865 138.329 87.8528Z" fill="#EE6A4D"/>
<path d="M141.208 84.752L140.891 83.8013C140.807 83.5507 140.572 83.3816 140.308 83.3816H129.702C129.437 83.3816 129.203 83.5507 129.119 83.8013L128.802 84.752C128.741 84.9353 128.82 85.1223 128.969 85.2156C129.03 85.2535 129.101 85.2764 129.18 85.2764H140.83C140.909 85.2764 140.98 85.2535 141.041 85.2155C141.189 85.1222 141.269 84.9352 141.208 84.752Z" fill="#EE6A4D"/>
<circle cx="135" cy="131" r="11.5" fill="#EE6A4D" stroke="white"/>
<path d="M133.668 123.966H136.342V124.416H137.308V123.903C137.308 123.405 136.903 123 136.406 123H133.604C133.107 123 132.702 123.405 132.702 123.903V124.416H133.668V123.966Z" fill="white"/>
<path d="M139.538 128.242H130.472C130.223 128.242 130.028 128.454 130.048 128.702L130.806 138.074C130.848 138.597 131.284 139 131.809 139H138.201C138.725 139 139.161 138.597 139.204 138.074L139.961 128.702C139.982 128.454 139.786 128.242 139.538 128.242ZM132.667 138C132.657 138.001 132.647 138.001 132.637 138.001C132.383 138.001 132.171 137.804 132.155 137.548L131.68 129.854C131.664 129.588 131.866 129.359 132.133 129.342C132.398 129.326 132.628 129.528 132.644 129.795L133.119 137.489C133.136 137.755 132.933 137.984 132.667 138ZM135.493 137.518C135.493 137.785 135.277 138.001 135.01 138.001C134.743 138.001 134.527 137.785 134.527 137.518V129.824C134.527 129.558 134.743 129.341 135.01 129.341C135.277 129.341 135.493 129.558 135.493 129.824V137.518ZM138.329 129.853L137.876 137.547C137.861 137.803 137.648 138.001 137.394 138.001C137.385 138.001 137.375 138.001 137.365 138C137.099 137.985 136.896 137.756 136.912 137.49L137.365 129.796C137.381 129.53 137.608 129.327 137.875 129.342C138.142 129.358 138.345 129.587 138.329 129.853Z" fill="white"/>
<path d="M141.208 126.752L140.891 125.801C140.807 125.551 140.572 125.382 140.308 125.382H129.702C129.437 125.382 129.203 125.551 129.119 125.801L128.802 126.752C128.741 126.935 128.82 127.122 128.969 127.216C129.03 127.254 129.101 127.276 129.18 127.276H140.83C140.909 127.276 140.98 127.254 141.041 127.215C141.189 127.122 141.269 126.935 141.208 126.752Z" fill="white"/>
<path d="M38.5527 46.0098C38.5527 46.8457 38.4121 47.5762 38.1309 48.2012C37.8496 48.8223 37.4512 49.2969 36.9355 49.625C36.4199 49.9531 35.8184 50.1172 35.1309 50.1172C34.459 50.1172 33.8633 49.9531 33.3438 49.625C32.8242 49.293 32.4199 48.8223 32.1309 48.2129C31.8457 47.5996 31.6992 46.8906 31.6914 46.0859V45.4707C31.6914 44.6504 31.834 43.9258 32.1191 43.2969C32.4043 42.668 32.8066 42.1875 33.3262 41.8555C33.8496 41.5195 34.4473 41.3516 35.1191 41.3516C35.8027 41.3516 36.4043 41.5176 36.9238 41.8496C37.4473 42.1777 37.8496 42.6562 38.1309 43.2852C38.4121 43.9102 38.5527 44.6387 38.5527 45.4707V46.0098ZM37.4336 45.459C37.4336 44.4473 37.2305 43.6719 36.8242 43.1328C36.418 42.5898 35.8496 42.3184 35.1191 42.3184C34.4082 42.3184 33.8477 42.5898 33.4375 43.1328C33.0312 43.6719 32.8223 44.4219 32.8105 45.3828V46.0098C32.8105 46.9902 33.0156 47.7617 33.4258 48.3242C33.8398 48.8828 34.4082 49.1621 35.1309 49.1621C35.8574 49.1621 36.4199 48.8984 36.8184 48.3711C37.2168 47.8398 37.4219 47.0801 37.4336 46.0918V45.459ZM42.6133 49.2324C43 49.2324 43.3379 49.1152 43.627 48.8809C43.916 48.6465 44.0762 48.3535 44.1074 48.002H45.1328C45.1133 48.3652 44.9883 48.7109 44.7578 49.0391C44.5273 49.3672 44.2188 49.6289 43.832 49.8242C43.4492 50.0195 43.043 50.1172 42.6133 50.1172C41.75 50.1172 41.0625 49.8301 40.5508 49.2559C40.043 48.6777 39.7891 47.8887 39.7891 46.8887V46.707C39.7891 46.0898 39.9023 45.541 40.1289 45.0605C40.3555 44.5801 40.6797 44.207 41.1016 43.9414C41.5273 43.6758 42.0293 43.543 42.6074 43.543C43.3184 43.543 43.9082 43.7559 44.377 44.1816C44.8496 44.6074 45.1016 45.1602 45.1328 45.8398H44.1074C44.0762 45.4297 43.9199 45.0938 43.6387 44.832C43.3613 44.5664 43.0176 44.4336 42.6074 44.4336C42.0566 44.4336 41.6289 44.6328 41.3242 45.0312C41.0234 45.4258 40.873 45.998 40.873 46.748V46.9531C40.873 47.6836 41.0234 48.2461 41.3242 48.6406C41.625 49.0352 42.0547 49.2324 42.6133 49.2324ZM51.5312 50H50.4473V47.293H47.5352V50H46.4453V43.6602H47.5352V46.4082H50.4473V43.6602H51.5312V50ZM52.9902 46.7715C52.9902 46.1504 53.1113 45.5918 53.3535 45.0957C53.5996 44.5996 53.9395 44.2168 54.373 43.9473C54.8105 43.6777 55.3086 43.543 55.8672 43.543C56.7305 43.543 57.4277 43.8418 57.959 44.4395C58.4941 45.0371 58.7617 45.832 58.7617 46.8242V46.9004C58.7617 47.5176 58.6426 48.0723 58.4043 48.5645C58.1699 49.0527 57.832 49.4336 57.3906 49.707C56.9531 49.9805 56.4492 50.1172 55.8789 50.1172C55.0195 50.1172 54.3223 49.8184 53.7871 49.2207C53.2559 48.623 52.9902 47.832 52.9902 46.8477V46.7715ZM54.0801 46.9004C54.0801 47.6035 54.2422 48.168 54.5664 48.5938C54.8945 49.0195 55.332 49.2324 55.8789 49.2324C56.4297 49.2324 56.8672 49.0176 57.1914 48.5879C57.5156 48.1543 57.6777 47.5488 57.6777 46.7715C57.6777 46.0762 57.5117 45.5137 57.1797 45.084C56.8516 44.6504 56.4141 44.4336 55.8672 44.4336C55.332 44.4336 54.9004 44.6465 54.5723 45.0723C54.2441 45.498 54.0801 46.1074 54.0801 46.9004ZM60.2207 50V43.6602H62.6934C63.5371 43.6602 64.1836 43.8086 64.6328 44.1055C65.0859 44.3984 65.3125 44.8301 65.3125 45.4004C65.3125 45.6934 65.2246 45.959 65.0488 46.1973C64.873 46.4316 64.6133 46.6113 64.2695 46.7363C64.6523 46.8262 64.959 47.002 65.1895 47.2637C65.4238 47.5254 65.541 47.8379 65.541 48.2012C65.541 48.7832 65.3262 49.2285 64.8965 49.5371C64.4707 49.8457 63.8672 50 63.0859 50H60.2207ZM61.3047 47.2168V49.127H63.0977C63.5508 49.127 63.8887 49.043 64.1113 48.875C64.3379 48.707 64.4512 48.4707 64.4512 48.166C64.4512 47.5332 63.9863 47.2168 63.0566 47.2168H61.3047ZM61.3047 46.3496H62.7051C63.7207 46.3496 64.2285 46.0527 64.2285 45.459C64.2285 44.8652 63.748 44.5586 62.7871 44.5391H61.3047V46.3496ZM72.1562 50H71.0723V47.293H68.1602V50H67.0703V43.6602H68.1602V46.4082H71.0723V43.6602H72.1562V50ZM77.8164 50C77.7539 49.875 77.7031 49.6523 77.6641 49.332C77.1602 49.8555 76.5586 50.1172 75.8594 50.1172C75.2344 50.1172 74.7207 49.9414 74.3184 49.5898C73.9199 49.2344 73.7207 48.7852 73.7207 48.2422C73.7207 47.582 73.9707 47.0703 74.4707 46.707C74.9746 46.3398 75.6816 46.1562 76.5918 46.1562H77.6465V45.6582C77.6465 45.2793 77.5332 44.9785 77.3066 44.7559C77.0801 44.5293 76.7461 44.416 76.3047 44.416C75.918 44.416 75.5938 44.5137 75.332 44.709C75.0703 44.9043 74.9395 45.1406 74.9395 45.418H73.8496C73.8496 45.1016 73.9609 44.7969 74.1836 44.5039C74.4102 44.207 74.7148 43.9727 75.0977 43.8008C75.4844 43.6289 75.9082 43.543 76.3691 43.543C77.0996 43.543 77.6719 43.7266 78.0859 44.0938C78.5 44.457 78.7148 44.959 78.7305 45.5996V48.5176C78.7305 49.0996 78.8047 49.5625 78.9531 49.9062V50H77.8164ZM76.0176 49.1738C76.3574 49.1738 76.6797 49.0859 76.9844 48.9102C77.2891 48.7344 77.5098 48.5059 77.6465 48.2246V46.9238H76.7969C75.4688 46.9238 74.8047 47.3125 74.8047 48.0898C74.8047 48.4297 74.918 48.6953 75.1445 48.8867C75.3711 49.0781 75.6621 49.1738 76.0176 49.1738ZM85.2754 43.6602V50H84.1855V47.5332H82.5508L81.0566 50H79.8848L81.4785 47.3691C81.0723 47.2207 80.7598 46.9922 80.541 46.6836C80.3262 46.3711 80.2188 46.0078 80.2188 45.5938C80.2188 45.0156 80.4355 44.5508 80.8691 44.1992C81.3027 43.8438 81.8828 43.6641 82.6094 43.6602H85.2754ZM81.3086 45.6055C81.3086 45.9141 81.4141 46.1641 81.625 46.3555C81.8359 46.543 82.1152 46.6387 82.4629 46.6426H84.1855V44.5391H82.627C82.2246 44.5391 81.9043 44.6387 81.666 44.8379C81.4277 45.0332 81.3086 45.2891 81.3086 45.6055Z" fill="black"/>
<path d="M38.5469 93H37.416V89.0566H33.1152V93H31.9902V84.4688H33.1152V88.1367H37.416V84.4688H38.5469V93ZM44.2891 93C44.2266 92.875 44.1758 92.6523 44.1367 92.332C43.6328 92.8555 43.0312 93.1172 42.332 93.1172C41.707 93.1172 41.1934 92.9414 40.791 92.5898C40.3926 92.2344 40.1934 91.7852 40.1934 91.2422C40.1934 90.582 40.4434 90.0703 40.9434 89.707C41.4473 89.3398 42.1543 89.1562 43.0645 89.1562H44.1191V88.6582C44.1191 88.2793 44.0059 87.9785 43.7793 87.7559C43.5527 87.5293 43.2188 87.416 42.7773 87.416C42.3906 87.416 42.0664 87.5137 41.8047 87.709C41.543 87.9043 41.4121 88.1406 41.4121 88.418H40.3223C40.3223 88.1016 40.4336 87.7969 40.6562 87.5039C40.8828 87.207 41.1875 86.9727 41.5703 86.8008C41.957 86.6289 42.3809 86.543 42.8418 86.543C43.5723 86.543 44.1445 86.7266 44.5586 87.0938C44.9727 87.457 45.1875 87.959 45.2031 88.5996V91.5176C45.2031 92.0996 45.2773 92.5625 45.4258 92.9062V93H44.2891ZM42.4902 92.1738C42.8301 92.1738 43.1523 92.0859 43.457 91.9102C43.7617 91.7344 43.9824 91.5059 44.1191 91.2246V89.9238H43.2695C41.9414 89.9238 41.2773 90.3125 41.2773 91.0898C41.2773 91.4297 41.3906 91.6953 41.6172 91.8867C41.8438 92.0781 42.1348 92.1738 42.4902 92.1738ZM47.002 93V86.6602H49.4746C50.3184 86.6602 50.9648 86.8086 51.4141 87.1055C51.8672 87.3984 52.0938 87.8301 52.0938 88.4004C52.0938 88.6934 52.0059 88.959 51.8301 89.1973C51.6543 89.4316 51.3945 89.6113 51.0508 89.7363C51.4336 89.8262 51.7402 90.002 51.9707 90.2637C52.2051 90.5254 52.3223 90.8379 52.3223 91.2012C52.3223 91.7832 52.1074 92.2285 51.6777 92.5371C51.252 92.8457 50.6484 93 49.8672 93H47.002ZM48.0859 90.2168V92.127H49.8789C50.332 92.127 50.6699 92.043 50.8926 91.875C51.1191 91.707 51.2324 91.4707 51.2324 91.166C51.2324 90.5332 50.7676 90.2168 49.8379 90.2168H48.0859ZM48.0859 89.3496H49.4863C50.502 89.3496 51.0098 89.0527 51.0098 88.459C51.0098 87.8652 50.5293 87.5586 49.5684 87.5391H48.0859V89.3496ZM56.3887 93.1172C55.5293 93.1172 54.8301 92.8359 54.291 92.2734C53.752 91.707 53.4824 90.9512 53.4824 90.0059V89.8066C53.4824 89.1777 53.6016 88.6172 53.8398 88.125C54.082 87.6289 54.418 87.2422 54.8477 86.9648C55.2812 86.6836 55.75 86.543 56.2539 86.543C57.0781 86.543 57.7188 86.8145 58.1758 87.3574C58.6328 87.9004 58.8613 88.6777 58.8613 89.6895V90.1406H54.5664C54.582 90.7656 54.7637 91.2715 55.1113 91.6582C55.4629 92.041 55.9082 92.2324 56.4473 92.2324C56.8301 92.2324 57.1543 92.1543 57.4199 91.998C57.6855 91.8418 57.918 91.6348 58.1172 91.377L58.7793 91.8926C58.248 92.709 57.4512 93.1172 56.3887 93.1172ZM56.2539 87.4336C55.8164 87.4336 55.4492 87.5938 55.1523 87.9141C54.8555 88.2305 54.6719 88.6758 54.6016 89.25H57.7773V89.168C57.7461 88.6172 57.5977 88.1914 57.332 87.8906C57.0664 87.5859 56.707 87.4336 56.2539 87.4336ZM60.0684 92.1152L60.4434 91.6523C60.8652 91.1055 61.1055 90.2852 61.1641 89.1914L61.2637 86.6602H65.3477V92.1152H66.1621V94.8633H65.0781V93H60.6543V94.8633H59.5703L59.5762 92.1152H60.0684ZM61.3516 92.1152H64.2637V87.6621H62.3125L62.248 89.1738C62.1816 90.4355 61.8828 91.416 61.3516 92.1152ZM69.9941 93.1172C69.1348 93.1172 68.4355 92.8359 67.8965 92.2734C67.3574 91.707 67.0879 90.9512 67.0879 90.0059V89.8066C67.0879 89.1777 67.207 88.6172 67.4453 88.125C67.6875 87.6289 68.0234 87.2422 68.4531 86.9648C68.8867 86.6836 69.3555 86.543 69.8594 86.543C70.6836 86.543 71.3242 86.8145 71.7812 87.3574C72.2383 87.9004 72.4668 88.6777 72.4668 89.6895V90.1406H68.1719C68.1875 90.7656 68.3691 91.2715 68.7168 91.6582C69.0684 92.041 69.5137 92.2324 70.0527 92.2324C70.4355 92.2324 70.7598 92.1543 71.0254 91.998C71.291 91.8418 71.5234 91.6348 71.7227 91.377L72.3848 91.8926C71.8535 92.709 71.0566 93.1172 69.9941 93.1172ZM69.8594 87.4336C69.4219 87.4336 69.0547 87.5938 68.7578 87.9141C68.4609 88.2305 68.2773 88.6758 68.207 89.25H71.3828V89.168C71.3516 88.6172 71.2031 88.1914 70.9375 87.8906C70.6719 87.5859 70.3125 87.4336 69.8594 87.4336ZM78.9062 93H77.8223V90.293H74.9102V93H73.8203V86.6602H74.9102V89.4082H77.8223V86.6602H78.9062V93ZM84.7539 86.6602H85.8379V93H84.7539V88.377L81.8301 93H80.7461V86.6602H81.8301V91.2891L84.7539 86.6602ZM90.209 93.1172C89.3496 93.1172 88.6504 92.8359 88.1113 92.2734C87.5723 91.707 87.3027 90.9512 87.3027 90.0059V89.8066C87.3027 89.1777 87.4219 88.6172 87.6602 88.125C87.9023 87.6289 88.2383 87.2422 88.668 86.9648C89.1016 86.6836 89.5703 86.543 90.0742 86.543C90.8984 86.543 91.5391 86.8145 91.9961 87.3574C92.4531 87.9004 92.6816 88.6777 92.6816 89.6895V90.1406H88.3867C88.4023 90.7656 88.584 91.2715 88.9316 91.6582C89.2832 92.041 89.7285 92.2324 90.2676 92.2324C90.6504 92.2324 90.9746 92.1543 91.2402 91.998C91.5059 91.8418 91.7383 91.6348 91.9375 91.377L92.5996 91.8926C92.0684 92.709 91.2715 93.1172 90.209 93.1172ZM90.0742 87.4336C89.6367 87.4336 89.2695 87.5938 88.9727 87.9141C88.6758 88.2305 88.4922 88.6758 88.4219 89.25H91.5977V89.168C91.5664 88.6172 91.418 88.1914 91.1523 87.8906C90.8867 87.5859 90.5273 87.4336 90.0742 87.4336Z" fill="black"/>
<path d="M38.5469 136H37.416V132.057H33.1152V136H31.9902V127.469H33.1152V131.137H37.416V127.469H38.5469V136ZM44.2891 136C44.2266 135.875 44.1758 135.652 44.1367 135.332C43.6328 135.855 43.0312 136.117 42.332 136.117C41.707 136.117 41.1934 135.941 40.791 135.59C40.3926 135.234 40.1934 134.785 40.1934 134.242C40.1934 133.582 40.4434 133.07 40.9434 132.707C41.4473 132.34 42.1543 132.156 43.0645 132.156H44.1191V131.658C44.1191 131.279 44.0059 130.979 43.7793 130.756C43.5527 130.529 43.2188 130.416 42.7773 130.416C42.3906 130.416 42.0664 130.514 41.8047 130.709C41.543 130.904 41.4121 131.141 41.4121 131.418H40.3223C40.3223 131.102 40.4336 130.797 40.6562 130.504C40.8828 130.207 41.1875 129.973 41.5703 129.801C41.957 129.629 42.3809 129.543 42.8418 129.543C43.5723 129.543 44.1445 129.727 44.5586 130.094C44.9727 130.457 45.1875 130.959 45.2031 131.6V134.518C45.2031 135.1 45.2773 135.562 45.4258 135.906V136H44.2891ZM42.4902 135.174C42.8301 135.174 43.1523 135.086 43.457 134.91C43.7617 134.734 43.9824 134.506 44.1191 134.225V132.924H43.2695C41.9414 132.924 41.2773 133.312 41.2773 134.09C41.2773 134.43 41.3906 134.695 41.6172 134.887C41.8438 135.078 42.1348 135.174 42.4902 135.174ZM51.959 133.246H51.1973V136H50.1133V133.246H49.3516L47.5762 136H46.2051L48.4727 132.719L46.4219 129.66H47.7344L49.3691 132.285H50.1133V129.66H51.1973V132.285H51.9355L53.582 129.66H54.8945L52.8379 132.725L55.1055 136H53.7344L51.959 133.246ZM60.0039 136C59.9414 135.875 59.8906 135.652 59.8516 135.332C59.3477 135.855 58.7461 136.117 58.0469 136.117C57.4219 136.117 56.9082 135.941 56.5059 135.59C56.1074 135.234 55.9082 134.785 55.9082 134.242C55.9082 133.582 56.1582 133.07 56.6582 132.707C57.1621 132.34 57.8691 132.156 58.7793 132.156H59.834V131.658C59.834 131.279 59.7207 130.979 59.4941 130.756C59.2676 130.529 58.9336 130.416 58.4922 130.416C58.1055 130.416 57.7812 130.514 57.5195 130.709C57.2578 130.904 57.127 131.141 57.127 131.418H56.0371C56.0371 131.102 56.1484 130.797 56.3711 130.504C56.5977 130.207 56.9023 129.973 57.2852 129.801C57.6719 129.629 58.0957 129.543 58.5566 129.543C59.2871 129.543 59.8594 129.727 60.2734 130.094C60.6875 130.457 60.9023 130.959 60.918 131.6V134.518C60.918 135.1 60.9922 135.562 61.1406 135.906V136H60.0039ZM58.2051 135.174C58.5449 135.174 58.8672 135.086 59.1719 134.91C59.4766 134.734 59.6973 134.506 59.834 134.225V132.924H58.9844C57.6562 132.924 56.9922 133.312 56.9922 134.09C56.9922 134.43 57.1055 134.695 57.332 134.887C57.5586 135.078 57.8496 135.174 58.2051 135.174ZM67.2344 130.539H65.1074V136H64.0234V130.539H61.9375V129.66H67.2344V130.539ZM72.3906 129.66H73.4746V136H72.3906V131.377L69.4668 136H68.3828V129.66H69.4668V134.289L72.3906 129.66ZM77.8457 136.117C76.9863 136.117 76.2871 135.836 75.748 135.273C75.209 134.707 74.9395 133.951 74.9395 133.006V132.807C74.9395 132.178 75.0586 131.617 75.2969 131.125C75.5391 130.629 75.875 130.242 76.3047 129.965C76.7383 129.684 77.207 129.543 77.7109 129.543C78.5352 129.543 79.1758 129.814 79.6328 130.357C80.0898 130.9 80.3184 131.678 80.3184 132.689V133.141H76.0234C76.0391 133.766 76.2207 134.271 76.5684 134.658C76.9199 135.041 77.3652 135.232 77.9043 135.232C78.2871 135.232 78.6113 135.154 78.877 134.998C79.1426 134.842 79.375 134.635 79.5742 134.377L80.2363 134.893C79.7051 135.709 78.9082 136.117 77.8457 136.117ZM77.7109 130.434C77.2734 130.434 76.9062 130.594 76.6094 130.914C76.3125 131.23 76.1289 131.676 76.0586 132.25H79.2344V132.168C79.2031 131.617 79.0547 131.191 78.7891 130.891C78.5234 130.586 78.1641 130.434 77.7109 130.434Z" fill="black"/>
</svg>
