<svg width="24" height="24" viewBox="0 0 24 24" fill="none" xmlns="http://www.w3.org/2000/svg">
<circle cx="12" cy="12" r="11.5" fill="white" stroke="#EE6A4D"/>
<path d="M10.668 4.96582H13.342V5.41577H14.3077V4.90283C14.3079 4.40503 13.9031 4 13.4055 4H10.6045C10.1069 4 9.70215 4.40503 9.70215 4.90283V5.41577H10.668V4.96582Z" fill="#EE6A4D"/>
<path d="M16.5377 9.24219H7.47175C7.22333 9.24219 7.02778 9.4541 7.0478 9.70178L7.80573 19.0739C7.84797 19.597 8.28437 20 8.80866 20H15.2006C15.7249 20 16.1613 19.597 16.2036 19.0737L16.9615 9.70178C16.9816 9.4541 16.7861 9.24219 16.5377 9.24219ZM9.66694 19.0004C9.65681 19.001 9.64667 19.0013 9.63666 19.0013C9.38349 19.0013 9.17097 18.8042 9.15522 18.5481L8.68024 10.8541C8.66389 10.5879 8.8664 10.3588 9.13251 10.3424C9.39777 10.3263 9.62788 10.5283 9.64423 10.7947L10.1191 18.4886C10.1356 18.7549 9.93305 18.9839 9.66694 19.0004ZM12.493 18.5184C12.493 18.785 12.2768 19.0012 12.0101 19.0012C11.7434 19.0012 11.5272 18.785 11.5272 18.5184V10.8243C11.5272 10.5576 11.7434 10.3414 12.0101 10.3414C12.2767 10.3414 12.493 10.5576 12.493 10.8243V18.5184ZM15.3292 10.8528L14.8757 18.5468C14.8607 18.8033 14.6478 19.0012 14.3941 19.0012C14.3846 19.0012 14.3749 19.001 14.3653 19.0005C14.0991 18.9847 13.8959 18.7562 13.9117 18.49L14.3651 10.7959C14.3807 10.5297 14.6085 10.3265 14.8754 10.3423C15.1417 10.3579 15.3448 10.5865 15.3292 10.8528Z" fill="#EE6A4D"/>
<path d="M18.2077 7.75195L17.8906 6.80127C17.807 6.55066 17.5724 6.38159 17.3081 6.38159H6.70152C6.43736 6.38159 6.20262 6.55066 6.11912 6.80127L5.80199 7.75195C5.74083 7.9353 5.82042 8.12231 5.96898 8.21558C6.02952 8.25354 6.10118 8.27637 6.17992 8.27637H17.8298C17.9086 8.27637 17.9803 8.25354 18.0408 8.21545C18.1893 8.12219 18.2689 7.93518 18.2077 7.75195Z" fill="#EE6A4D"/>
</svg>
