<svg width="24" height="24" fill="none" xmlns="http://www.w3.org/2000/svg"><circle cx="12" cy="12" r="11.5" fill="#fff" stroke="#000"/><path d="M10.668 4.966h2.674v.45h.966v-.513A.903.903 0 0013.406 4h-2.802a.904.904 0 00-.902.903v.513h.966v-.45zM16.538 9.242H7.472a.425.425 0 00-.424.46l.758 9.372c.042.523.478.926 1.003.926H15.2c.524 0 .96-.403 1.003-.926l.758-9.372a.425.425 0 00-.424-.46zM9.667 19l-.03.001a.483.483 0 01-.482-.453l-.475-7.694a.483.483 0 01.964-.06l.475 7.695a.483.483 0 01-.452.511zm2.826-.482a.483.483 0 01-.966 0v-7.694a.483.483 0 11.966 0v7.694zm2.836-7.665l-.453 7.694a.483.483 0 11-.964-.057l.453-7.694a.482.482 0 11.964.057zM18.208 7.752l-.317-.95a.614.614 0 00-.583-.42H6.702a.614.614 0 00-.583.42l-.317.95a.398.398 0 00.378.524h11.65a.398.398 0 00.378-.524z" fill="#000"/></svg>