<svg width="17" height="16" viewBox="0 0 17 16" fill="none" xmlns="http://www.w3.org/2000/svg">
<path fill-rule="evenodd" clip-rule="evenodd" d="M1.55945 0.266917C1.20302 -0.0889724 0.625131 -0.0889723 0.268702 0.266917C-0.0877266 0.622806 -0.0877264 1.19982 0.268703 1.55571L6.72208 7.99932L0.267322 14.4443C-0.0891073 14.8002 -0.0891072 15.3772 0.267322 15.7331C0.623751 16.089 1.20164 16.089 1.55807 15.7331L8.01283 9.28811L14.4669 15.7324C14.8233 16.0883 15.4012 16.0883 15.7576 15.7324C16.1141 15.3765 16.1141 14.7995 15.7576 14.4436L9.30357 7.99932L15.7562 1.55641C16.1127 1.20053 16.1127 0.623514 15.7562 0.267625C15.3998 -0.0882646 14.8219 -0.0882643 14.4655 0.267625L8.01283 6.71053L1.55945 0.266917Z" fill="black"/>
</svg>
