<svg width="28" height="28" fill="none" xmlns="http://www.w3.org/2000/svg"><circle cx="14" cy="14" r="14" fill="#000"/><path d="M12.335 5.207h3.342v.563h1.207v-.641A1.13 1.13 0 0015.757 4h-3.502a1.13 1.13 0 00-1.128 1.129v.64h1.208v-.562zM19.672 10.553H8.34a.532.532 0 00-.53.574l.947 11.715A1.258 1.258 0 0010.011 24H18c.655 0 1.2-.504 1.254-1.158l.947-11.715a.531.531 0 00-.53-.574zM11.084 22.75a.604.604 0 01-.64-.565l-.594-9.617a.604.604 0 011.205-.075l.594 9.618a.604.604 0 01-.565.64zm3.532-.602a.604.604 0 01-1.207 0V12.53a.604.604 0 111.207 0v9.618zm3.546-9.582l-.567 9.617a.603.603 0 11-1.205-.07l.566-9.618a.603.603 0 111.206.071zM21.76 8.69l-.397-1.188a.768.768 0 00-.728-.525H7.377a.767.767 0 00-.728.525L6.252 8.69a.497.497 0 00.473.655h14.562a.497.497 0 00.472-.656z" fill="#EE6A4D"/></svg>