<svg width="68" height="68" viewBox="0 0 68 68" fill="none" xmlns="http://www.w3.org/2000/svg">
<path fill-rule="evenodd" clip-rule="evenodd" d="M35.5 11C35.5 10.4477 35.0523 10 34.5 10C33.9477 10 33.5 10.4477 33.5 11L33.5 46.4188L21.2071 34.1259C20.8166 33.7354 20.1834 33.7354 19.7929 34.1259C19.4024 34.5164 19.4024 35.1496 19.7929 35.5401L33.5427 49.2899C33.6669 49.7008 34.0485 50 34.5 50C34.5288 50 34.5574 49.9988 34.5856 49.9964C34.6125 49.9986 34.6395 49.9997 34.6667 49.9997C34.9319 49.9997 35.1862 49.8943 35.3738 49.7068L49.5404 35.5401C49.931 35.1496 49.931 34.5164 49.5404 34.1259C49.1499 33.7354 48.5168 33.7354 48.1262 34.1259L35.5 46.7521L35.5 11ZM9 41.5C9.55228 41.5 10 41.9477 10 42.5V53.8333C10 55.071 10.4917 56.258 11.3668 57.1332C12.242 58.0083 13.429 58.5 14.6667 58.5H54.3333C55.571 58.5 56.758 58.0083 57.6332 57.1332C58.5083 56.258 59 55.071 59 53.8333V42.5C59 41.9477 59.4477 41.5 60 41.5C60.5523 41.5 61 41.9477 61 42.5V53.8333C61 55.6014 60.2976 57.2971 59.0474 58.5474C57.7971 59.7976 56.1014 60.5 54.3333 60.5H14.6667C12.8986 60.5 11.2029 59.7976 9.95262 58.5474C8.70238 57.2971 8 55.6014 8 53.8333V42.5C8 41.9477 8.44772 41.5 9 41.5Z" fill="#6A5F5F"/>
</svg>
