<svg width="18" height="18" viewBox="0 0 18 18" fill="none" xmlns="http://www.w3.org/2000/svg">
<path fill-rule="evenodd" clip-rule="evenodd" d="M2.29289 2.29289C2.48043 2.10536 2.73478 2 3 2H12C12.5523 2 13 1.55228 13 1C13 0.447715 12.5523 0 12 0H3C2.20435 0 1.44129 0.31607 0.87868 0.87868C0.31607 1.44129 0 2.20435 0 3V15C0 15.7956 0.31607 16.5587 0.87868 17.1213C1.44129 17.6839 2.20435 18 3 18H15C15.7957 18 16.5587 17.6839 17.1213 17.1213C17.6839 16.5587 18 15.7957 18 15V9C18 8.44772 17.5523 8 17 8C16.4477 8 16 8.44772 16 9V15C16 15.2652 15.8946 15.5196 15.7071 15.7071C15.5196 15.8946 15.2652 16 15 16H3C2.73478 16 2.48043 15.8946 2.29289 15.7071C2.10536 15.5196 2 15.2652 2 15V3C2 2.73478 2.10536 2.48043 2.29289 2.29289ZM9.70711 11.7071L17.7071 3.70711C18.0976 3.31658 18.0976 2.68342 17.7071 2.29289C17.3166 1.90237 16.6834 1.90237 16.2929 2.29289L9 9.58579L6.70711 7.29289C6.31658 6.90237 5.68342 6.90237 5.29289 7.29289C4.90237 7.68342 4.90237 8.31658 5.29289 8.70711L8.29289 11.7071C8.68342 12.0976 9.31658 12.0976 9.70711 11.7071Z" fill="#EE6A4D"/>
</svg>
