<svg width="16" height="16" viewBox="0 0 16 16" fill="none" xmlns="http://www.w3.org/2000/svg">
<path fill-rule="evenodd" clip-rule="evenodd" d="M2.52876 2.52851C2.65378 2.40349 2.82335 2.33325 3.00016 2.33325H10.5002C11.0524 2.33325 11.5002 1.88554 11.5002 1.33325C11.5002 0.780967 11.0524 0.333252 10.5002 0.333252H3.00016C2.29292 0.333252 1.61464 0.614203 1.11454 1.1143C0.614447 1.6144 0.333496 2.29267 0.333496 2.99992V12.9999C0.333496 13.7072 0.614448 14.3854 1.11454 14.8855C1.61464 15.3856 2.29292 15.6666 3.00016 15.6666H13.0002C13.7074 15.6666 14.3857 15.3856 14.8858 14.8855C15.3859 14.3854 15.6668 13.7072 15.6668 12.9999V7.99992C15.6668 7.44763 15.2191 6.99992 14.6668 6.99992C14.1145 6.99992 13.6668 7.44763 13.6668 7.99992V12.9999C13.6668 13.1767 13.5966 13.3463 13.4716 13.4713C13.3465 13.5963 13.177 13.6666 13.0002 13.6666H3.00016C2.82335 13.6666 2.65378 13.5963 2.52876 13.4713C2.40373 13.3463 2.3335 13.1767 2.3335 12.9999V2.99992C2.3335 2.82311 2.40373 2.65354 2.52876 2.52851ZM8.70727 10.3737L15.3739 3.70703C15.7645 3.3165 15.7645 2.68334 15.3739 2.29281C14.9834 1.90229 14.3502 1.90229 13.9597 2.29281L8.00016 8.25237L6.20727 6.45948C5.81675 6.06895 5.18358 6.06895 4.79306 6.45948C4.40253 6.85 4.40253 7.48317 4.79306 7.87369L7.29306 10.3737C7.68358 10.7642 8.31674 10.7642 8.70727 10.3737Z" fill="#D84444"/>
</svg>
