<svg width="10" height="10" viewBox="0 0 10 10" fill="none" xmlns="http://www.w3.org/2000/svg">
<path fill-rule="evenodd" clip-rule="evenodd" d="M0.961146 0.259368C0.75694 0.0554711 0.425857 0.0554712 0.221651 0.259368C0.0174456 0.463264 0.0174457 0.793846 0.221651 0.997743L3.91876 4.68926L0.220537 8.38189C0.0163314 8.58578 0.0163314 8.91637 0.220537 9.12026C0.424743 9.32416 0.755826 9.32416 0.960032 9.12026L4.65826 5.42763L8.35609 9.11987C8.5603 9.32376 8.89138 9.32376 9.09558 9.11987C9.29979 8.91597 9.29979 8.58539 9.09558 8.38149L5.39775 4.68926L9.09447 0.998137C9.29868 0.794241 9.29868 0.463659 9.09447 0.259762C8.89026 0.0558656 8.55918 0.0558657 8.35498 0.259762L4.65826 3.95088L0.961146 0.259368Z" fill="black"/>
</svg>
