<svg width="591" height="790" fill="none" xmlns="http://www.w3.org/2000/svg"><path d="M491.5 155.5C487 127 467 77.6 393 42l128 747.5c7.5.833 35-25.5 49.5-44 60.505-77.196 56-138.5 11.5-190-21.34-24.697-16.3-36.3-11.5-79.5 2.667-24 12.7-67.9-24.5-111.5-13.225-15.5-28.453-23-39-36.5-4.167-5.333-22.35-30.5-20-54 2.5-25 13.421-62 4.5-118.5z" fill="#6F5256" stroke="#6F5256"/><path d="M405.5 47C378.5 32.5 306.4 3.5 234 3.5l210 786h77c28.667-19.833 80-93 80-143.5 0-38-11-47-45-93-24-42.5 0-68.5 0-109 0-32.753-16.2-58-51-90-21.5-19.77-33-47.5-28.5-79 3.214-22.5 11.9-48.5 9.5-102.5-2.667-28.167-22.5-92.7-80.5-125.5z" fill="#432C35" stroke="#432C35"/><path d="M175.627 505.512c2.426 49.069 3.502 124.249-47.126 226.488 20-5.333 75.299-29.8 136.499-85l23-5 .5-312.5-16-26.5c1-29 .926-50-19.499-78.5-21.501-30-59.001-37-178-52.5-14 64-14 75.5-70 131-2.5 1.9-6.956 7 0 15 3.333 3.833 15 10.5 35.5 10.5 10.5 1 17 6.5 17 22.5l1 91c0 15.5-5 42.5 19 49.5l95.482 11.205a2.975 2.975 0 012.644 2.807z" fill="#E7AF91" stroke="#E7AF91"/><path d="M26.5 127.5c4.334 15.667 19 41.429 65 48 31.5 4.5 106.4 7.6 146 34 13 8.667 38 43 35.5 90.5l90 489.5h112c13.667-10.5 41-46.3 41-105.5-.166-8.833-7.6-39.7-36-92.5-5.166-17.167-17.4-45.7-5-80.5 6-15 17-52.2 11-77-4.717-19.5-19-42-41-76-18.981-29.336 1.5-77.5 10-148.5 4.405-36.79-2.5-106-48.5-148.5C388.281 44.167 323.8 12.2 245 3 206.334-1.667 115.701-1.1 62.5 38.5c-15.666 12.667-44.8 48.2-36 89z" fill="#604348" stroke="#604348"/><path d="M104 789.5h150.5l13.5-145c-43.5 40.5-81.5 65-139.5 87.5L104 789.5z" fill="#96797B" stroke="#96797B"/><path d="M394 464c1.806 7-1.4 42-29 42l-58-207.5c16 0 25 3.833 35 8 8 3.333 23.5 14 26 31 4 27.2-3.5 31.833 2 41 5.5 9.167 12.5 14.5 12.5 32 0 5.5-2.6 23-1 28 4 12.5 8.887 11.5 12.5 25.5z" fill="#51242B" stroke="#51242B"/><path d="M241.001 320.5c2-7 11.4-21 33-21l25.5 126-25.5 364h-20c-2.987-32.86 3.912-91.5 11.404-155.186l.096-.814c1.195-10.161 3.4-40.2-9-69l-26 10c-3.5 1.833-11.3 4.5-14.5.5-13.436-15.426-23.9-61.559-36.322-109.316a1.03 1.03 0 00-.878-.757c-4.16-.505-12.639-2.644-18.3-7.927-.783-.731-1-1.833 1-2.5.871-.29 2-1.5.5-2.5-1.395-.93-5-3-5-4.5 0-1 .207-1.104 1.947-1.974l.053-.026c1-.5 1-2 0-2.5s-2.589-.816-3-1.5c-.5-.833-.8-2.7 2-3.5 1-.286 2.2-1.7 1-2.5-.75-.5-2.2-.3-3-1.5-.833-1.667-.3-5.7 8.5-8.5l5-1.5 68.5 101.5c27.5-20.5 42-69.5 40.5-100-10 0-20-1.5-28-6-2.5-1.5-2.6-6.2-1-11-1.5-.5-2-2 0-4l3-2.5c1-1 2.5-2.4.5-4l-8-6c-1-1 0-4 2.5-3.5.333-1.667 1-6.286-.5-6.5-2.333-.333-5.8-1.6-9-4-1.333-1-4.634-4.281 1-7.5 4.5-2.571 14.5-12.5 13.5-29-4.667-2-14.3-9.4-11.5-21z" fill="#977671" stroke="#977671"/><path d="M183.757 426.378l.679 2.578c.522 1.986-1.059 3.898-3.108 3.756l-7.571-.522a2.96 2.96 0 01-2.757-2.953 2.96 2.96 0 00-3.638-2.882L57.06 452.281c-1.666.392-3.32-.669-3.608-2.356-3.946-23.102-8.3-70.157 1.666-99.474.481-1.417 1.968-2.202 3.426-1.867l173.628 39.881a3 3 0 012.328 2.924v15.818a3 3 0 01-2.213 2.895l-46.415 12.617a3.001 3.001 0 00-2.115 3.659z" fill="#FFFDE8" stroke="#AD998E" stroke-width="3"/><path d="M252.423 391.799c-.292-1.041.705-2.736 2.577-1.799l11 9.5-8.499 8c-2 .5-3.101-1.4-1.501-3l4.5-4c.5-.5 1.5-1 0-2l-7.832-6.364a.69.69 0 01-.245-.337z" fill="#492B29" stroke="#492B29"/><path d="M240.5 531c-3.5-10.833-19-36.5-35-73-5 4-7 8-16.5 8 8 37.5 24 102.5 36.5 111 3.5 1 15-2.5 38-13 12 30.5 13.5 54 7 92-4.875 28.5-9 59.1-9 133.5h96c0-24.5 11.5-84-3-116-2.424-5.35-11-18.4-11-48 0-20 10.7-68.9 7.5-120.5-26-6-35-23.5-35-49-13.402 12.906-24.833 19.406-41.632 26.348a.989.989 0 00-.529.51c-2.489 5.608-5.956 16.323-11.339 24.642-4 6.182-16 16.3-22 23.5z" fill="#472B39" stroke="#4B293A"/><path d="M374 789.5h-16c0-14.5 8.6-76.5-1-110.5-2.541-9-13-20.9-13-50.5 0-18 9.9-69.1 7.5-123.5 3 .667 10.2 1.8 15 1 .667 16.667 0 52-1.5 67-1.85 18.5-11.1 59.2-3.5 78 2.021 5 9 22.5 15.5 48.5 2.25 9 3 48.5-3 90z" fill="#361C29" stroke="#361C29"/><path d="M242.001 373.5c5.5-1.833 14.7-11.6 17.5-32 9 2 19 2 25.5 2 8.5 0 31.5 11.5 25.5 33.5-1.773 6.5-2.5 16.5 2 23.5 4.178 6.5 8.409 19.5 6.5 30-1.818 10-4 12-3.5 25.5-14 12-20.5 16.5-40.5 25 3.667-6.5 11-27 11-57-3.667 0-23-.812-26.5-3-4-2.5-4-11-.5-14l5.5-5c2.5-2.5 2.5-2.5 0-5l-9.144-7.7a1.002 1.002 0 01-.356-.765V380.5c-2.5 0-9.773-1.886-13-3.5-2-1-1.5-3 0-3.5zM203.001 437c.981 4.413-1.885 11.709 2.717 20.948.169.338.148.748-.096 1.037-2.041 2.424-7.582 6.467-16.462 6.515a.986.986 0 01-.305-.047c-5.229-1.697-16.288-5.783-19.854-8.953-.5-.333-1.1-1.3.5-2.5.667-.333 1.7-1.3.5-2.5-1.333-.333-4.3-1.6-5.5-4-.167-.667 0-2.1 2-2.5.5-.5 1.2-1.7 0-2.5-.833-.167-2.5-.9-2.5-2.5 0-.667.5-2.1 2.5-2.5.5-.167 1.3-.8.5-2-.667-.167-2.2-.7-3-1.5-.486-.648-.31-2.588 4.11-5.268.246-.149.546-.179.822-.098 2.378.696 8.451 1.866 17.068 1.866v-3.219a.986.986 0 011.242-.957c9.255 2.514 14.8 6.365 15.758 10.676z" fill="#FBC0A0"/><path d="M242.001 373.5c5.5-1.833 14.7-11.6 17.5-32 9 2 19 2 25.5 2 8.5 0 31.5 11.5 25.5 33.5-1.773 6.5-2.5 16.5 2 23.5 4.178 6.5 8.409 19.5 6.5 30-1.818 10-4 12-3.5 25.5-14 12-20.5 16.5-40.5 25 3.667-6.5 11-27 11-57-3.667 0-23-.812-26.5-3-4-2.5-4-11-.5-14l5.5-5c2.5-2.5 2.5-2.5 0-5l-9.144-7.7a1.002 1.002 0 01-.356-.765V380.5c-2.5 0-9.773-1.886-13-3.5-2-1-1.5-3 0-3.5zM203.001 437c.981 4.413-1.885 11.709 2.717 20.948.169.338.148.748-.096 1.037-2.041 2.424-7.582 6.467-16.462 6.515a.986.986 0 01-.305-.047c-5.229-1.697-16.288-5.783-19.854-8.953-.5-.333-1.1-1.3.5-2.5.667-.333 1.7-1.3.5-2.5-1.333-.333-4.3-1.6-5.5-4-.167-.667 0-2.1 2-2.5.5-.5 1.2-1.7 0-2.5-.833-.167-2.5-.9-2.5-2.5 0-.667.5-2.1 2.5-2.5.5-.167 1.3-.8.5-2-.667-.167-2.2-.7-3-1.5-.486-.648-.31-2.588 4.11-5.268.246-.149.546-.179.822-.098 2.378.696 8.451 1.866 17.068 1.866v-3.219a.986.986 0 011.242-.957c9.255 2.514 14.8 6.365 15.758 10.676z" stroke="#FCC09E"/><path d="M372 504c-3.179 1.333-12.6 2.5-21 .5L328 303c7.833 1.667 23.984 9.26 30 19 10.5 17 8 30.5 4.5 51-1.353 7.927 7.905 12.857 12 19 4 6 7 17 4 28-.588 2.157-4 12.5-1 21 2.264 6.415 11.25 13.5 12.5 23.5 1.375 11-2.5 33-18 39.5z" fill="#B23D46" stroke="#B23D46"/><path d="M287.001 343c-5-1-18 0-29.5-2.5-3-.652-10.417-4.5-11-15-.334-6 3.3-19.3 20.5-24.5 11.833-2.833 40.8-6.3 62 2.5 7.333 3.333 22.2 14.7 23 33.5.166 2-.9 10.8-6.5 30-1.5 5.5-1.7 20.2 9.5 35 3.027 4 5.975 14 4.5 19.5-1.834 6.833-4.4 22 0 28 2.933 4 11 15.6 11 24 0 16.5-11.5 31-19 31-11 0-30.47-13.5-33-29-4-24.5-1.5-34.251 1.5-48.5.666-3.167.3-12.9-6.5-26.5-1.5-3-6-11-2-25 .923-3.232.941-8 0-12-2-8.5-13.714-18.342-24.5-20.5z" fill="#EE6A4D" stroke="#EE6A4D"/></svg>