<svg width="154" height="83" viewBox="0 0 154 83" fill="none" xmlns="http://www.w3.org/2000/svg">
<path d="M76.5005 38.0051L72.0005 33.5051C70.501 32.0053 73 30.0053 74.5005 31.5053L76.5005 33.5053C77.5 34.5053 78.5 34.5053 79.5005 33.5051C81.3338 31.5051 84.8 27.7051 86 26.5051C87.5 25.005 90 27.005 88.5005 28.5051C86.6897 30.3165 81.8338 35.6718 79.5005 38.0051C79.0005 38.5051 77.7005 39.2051 76.5005 38.0051Z" stroke="black"/>
<path fill-rule="evenodd" clip-rule="evenodd" d="M80 1.88C79.1327 1.88 78.2354 2.20344 77.3 2.905L77.2922 2.91084L77.2922 2.91077L64.9612 11.7891C65.0383 11.8491 65.118 11.904 65.1995 11.9542C65.8978 12.3839 66.7895 12.505 67.5 12.505C68.2105 12.505 69.1022 12.3839 69.8005 11.9542C70.4607 11.5479 71 10.8365 71 9.505V9.005H71.5H75.5H76V9.505C76 10.8365 76.5393 11.5479 77.1995 11.9542C77.8978 12.3839 78.7895 12.505 79.5 12.505C80.05 12.505 80.9512 12.3874 81.6965 11.949C82.4078 11.5306 83 10.8121 83 9.505V9.005H83.5H87.5H88V9.505C88 10.5057 88.5129 11.242 89.2263 11.7469C89.9532 12.2613 90.852 12.505 91.5 12.505C92.2105 12.505 93.1022 12.3839 93.8005 11.9542C93.8843 11.9026 93.9662 11.8461 94.0452 11.784L82.6959 2.90196C81.762 2.20251 80.866 1.88 80 1.88ZM76.704 2.10204L64.3209 11.0178C64.122 10.6312 64 10.1383 64 9.505V9.005H63.5H60H59.5V9.505C59.5 10.8121 58.9078 11.5306 58.1965 11.949C57.4512 12.3874 56.55 12.505 56 12.505C55.3787 12.505 54.4816 12.3859 53.7572 11.9513C53.0687 11.5382 52.5 10.8227 52.5 9.505V9.005H52H47.5H47V9.505V24.2647L42.1877 28.1146L42 28.2647V28.505V77.505C42 78.1101 42.0565 78.6429 42.1579 79.1108C42.6283 81.2831 44.0618 82.005 45 82.005H79.5L114 82.005C114.938 82.005 116.372 81.2831 116.842 79.1108C116.943 78.6429 117 78.1101 117 77.505V28.505V28.2647L116.812 28.1146L112 24.2647V9.505V9.005H111.5H107.5H107V9.505C107 10.8121 106.408 11.5306 105.696 11.949C104.951 12.3874 104.05 12.505 103.5 12.505C102.79 12.505 101.898 12.3839 101.2 11.9542C100.539 11.5479 100 10.8365 100 9.505V9.005H99.5H95.5H95V9.505C95 10.1353 94.8792 10.6266 94.6819 11.0124L83.3082 2.11125L83.3082 2.11117L83.3 2.105C82.2354 1.30656 81.1327 0.880005 80 0.880005C78.8687 0.880005 77.7673 1.30551 76.704 2.10204ZM112 25.5453V31.2393L115.682 28.4913L112 25.5453ZM111 31.9856V10.005H107.975C107.832 11.4047 107.091 12.289 106.204 12.811C105.249 13.3726 104.15 13.505 103.5 13.505C102.71 13.505 101.602 13.3761 100.675 12.8058C99.811 12.2739 99.1505 11.3846 99.0225 10.005H95.9775C95.8495 11.3846 95.189 12.2739 94.3245 12.8058C93.3978 13.3761 92.2895 13.505 91.5 13.505C90.648 13.505 89.5468 13.1987 88.6487 12.5631C87.8495 11.9976 87.1844 11.1486 87.0326 10.005H83.9752C83.8325 11.4047 83.0908 12.289 82.2035 12.811C81.2488 13.3726 80.15 13.505 79.5 13.505C78.7105 13.505 77.6022 13.3761 76.6755 12.8058C75.811 12.2739 75.1505 11.3846 75.0225 10.005H71.9775C71.8495 11.3846 71.189 12.2739 70.3245 12.8058C69.3978 13.3761 68.2895 13.505 67.5 13.505C66.7105 13.505 65.6022 13.3761 64.6755 12.8058C63.811 12.2739 63.1505 11.3846 63.0225 10.005H60.4752C60.3325 11.4047 59.5908 12.289 58.7035 12.811C57.7488 13.3726 56.65 13.505 56 13.505C55.2879 13.505 54.1851 13.3742 53.2428 12.8088C52.3655 12.2824 51.66 11.3959 51.5238 10.005H48V31.9856L76.0096 52.8883C78.071 51.5439 80.929 51.5439 82.9904 52.8883L111 31.9856ZM82.7 53.905C82.6993 53.9045 82.6986 53.9039 82.6978 53.9034C80.8761 52.5387 78.1232 52.5389 76.3017 53.9037L76.3 53.905L43.2114 79.2025C43.6401 80.6914 44.5966 81.005 45 81.005H79.5L114 81.005C114.403 81.005 115.36 80.6914 115.789 79.2025L82.7 53.905ZM43.3176 28.4913L47 25.5453V31.2393L43.3176 28.4913ZM43 29.502L75.1705 53.5098L43.0211 78.0893C43.0073 77.906 43 77.7114 43 77.505V29.502ZM83.8295 53.5098L116 29.502V77.505C116 77.7114 115.993 77.906 115.979 78.0893L83.8295 53.5098Z" fill="black"/>
<circle cx="3" cy="44.005" r="2.5" stroke="black"/>
<circle r="1" transform="matrix(1 0 0 -1 17 63.005)" fill="black"/>
<circle r="1" transform="matrix(1 0 0 -1 142 63.005)" fill="black"/>
<path fill-rule="evenodd" clip-rule="evenodd" d="M25.5 48.005C25.2239 48.005 25 48.2289 25 48.505V51.505H22C21.7239 51.505 21.5 51.7289 21.5 52.005C21.5 52.2811 21.7239 52.505 22 52.505H25V55.505C25 55.7811 25.2239 56.005 25.5 56.005C25.7761 56.005 26 55.7811 26 55.505V52.505H29C29.2761 52.505 29.5 52.2811 29.5 52.005C29.5 51.7289 29.2761 51.505 29 51.505H26V48.505C26 48.2289 25.7761 48.005 25.5 48.005Z" fill="black"/>
<path fill-rule="evenodd" clip-rule="evenodd" d="M133.486 51.8334C133.29 51.6382 132.974 51.6382 132.779 51.8334L130.657 53.9548L128.536 51.8334C128.341 51.6382 128.024 51.6382 127.829 51.8334C127.634 52.0287 127.634 52.3453 127.829 52.5405L129.95 54.6619L127.829 56.7832C127.634 56.9784 127.634 57.295 127.829 57.4903C128.024 57.6855 128.341 57.6855 128.536 57.4903L130.657 55.369L132.779 57.4903C132.974 57.6855 133.29 57.6855 133.486 57.4903C133.681 57.295 133.681 56.9784 133.486 56.7832L131.364 54.6619L133.486 52.5405C133.681 52.3453 133.681 52.0287 133.486 51.8334Z" fill="black"/>
<path d="M152.25 49.072C152.583 49.2644 152.583 49.7456 152.25 49.938L148.5 52.1031C148.167 52.2955 147.75 52.055 147.75 51.6701L147.75 47.3399C147.75 46.955 148.167 46.7145 148.5 46.9069L152.25 49.072Z" stroke="black"/>
</svg>
