<svg width="25" height="25" fill="none" xmlns="http://www.w3.org/2000/svg"><path d="M12.755 7.747l-.412 1.301h9.823c.36 0 .714.15.984.434.272.286.433.685.433 1.11v2.442l-.065.313-4.425 10.236H7.458V7.71l5.486-6.28c.156.02.31.07.454.148.197.106.373.263.508.461.137.199.228.433.264.682.037.25.016.505-.06.743 0 0 0 0 0 0l-1.355 4.284zM2.833 9.048h.208v14.535h-.208c-.359 0-.714-.15-.984-.433a1.614 1.614 0 01-.432-1.11V10.592c0-.425.16-.824.432-1.11.27-.284.625-.434.984-.434z" fill="#000" stroke="#000" stroke-width="2"/></svg>