<svg width="25" height="25" fill="none" xmlns="http://www.w3.org/2000/svg"><path d="M12.756 7.746l-.412 1.302h9.824c.359 0 .714.15.984.434.272.286.433.684.433 1.11v2.441l-.065.314-4.426 10.236H7.46V7.71l5.485-6.28c.157.02.31.07.455.147.197.107.372.263.508.462s.228.432.264.682c.036.25.015.505-.06.742 0 0 0 0 0 0l-1.356 4.284zM2.835 9.048h.208v14.535h-.208c-.359 0-.714-.15-.984-.434a1.614 1.614 0 01-.433-1.11V10.592c0-.426.161-.824.433-1.11.27-.284.625-.434.984-.434z" stroke="#000" stroke-width="2"/></svg>