<svg width="96" height="94" viewBox="0 0 96 94" fill="none" xmlns="http://www.w3.org/2000/svg">
<path fill-rule="evenodd" clip-rule="evenodd" d="M51.5311 5.14142L52.0329 5.15962L52.1971 0.634891L51.6953 0.616682L51.6217 2.64487L49.1837 2.5564L49.2573 0.528219L48.7555 0.51001L48.5913 5.03474L49.0931 5.05295L49.1684 2.97877L51.6064 3.06723L51.5311 5.14142ZM41.2651 5.89698C40.8864 5.96641 40.5263 5.93601 40.1848 5.80577C39.846 5.67503 39.5611 5.45925 39.3301 5.15842C39.0986 4.85485 38.9448 4.4959 38.8688 4.08156L38.8364 3.90457C38.7579 3.47651 38.7695 3.07589 38.8713 2.7027C38.9758 2.32902 39.1583 2.01759 39.4189 1.76843C39.6791 1.51653 39.982 1.35888 40.3277 1.29548C40.8683 1.19636 41.3303 1.30309 41.7138 1.61567C42.0995 1.92499 42.351 2.39933 42.4682 3.03868L42.5188 3.31444L39.3413 3.89708L39.3586 3.99175C39.4512 4.49664 39.6725 4.89142 40.0225 5.1761C40.3748 5.45753 40.7704 5.558 41.2094 5.47749C41.4729 5.42919 41.6959 5.33866 41.8786 5.20589C42.0641 5.07262 42.2197 4.88525 42.3456 4.64377L42.6973 4.82178C42.4312 5.41229 41.9538 5.77069 41.2651 5.89698ZM40.4047 1.71531C40.0343 1.78323 39.7464 1.97642 39.541 2.29486C39.3384 2.6128 39.2516 3.00593 39.2808 3.47423L41.952 2.98443L41.9422 2.93092C41.85 2.50538 41.664 2.17928 41.3842 1.95264C41.1044 1.72599 40.7779 1.64688 40.4047 1.71531ZM29.2375 4.96274L30.9964 9.13487L32.7778 8.38386C33.274 8.17471 33.6147 7.91298 33.8001 7.59868C33.987 7.28073 34.0029 6.93795 33.848 6.57036C33.7461 6.32872 33.5731 6.15186 33.3291 6.03979C33.0876 5.92663 32.8198 5.90178 32.5257 5.96524C32.7359 5.78883 32.8698 5.59309 32.9275 5.37804C32.9841 5.16042 32.9685 4.9475 32.8808 4.73928C32.7269 4.37425 32.469 4.15751 32.1071 4.08906C31.7441 4.01804 31.2979 4.09416 30.7683 4.3174L29.2375 4.96274ZM31.2927 8.55583L30.6457 7.02117L31.9837 6.4571C32.3308 6.3108 32.6268 6.26622 32.8719 6.32335C33.117 6.38048 33.2883 6.52473 33.3859 6.75608C33.4921 7.00801 33.4795 7.24036 33.3482 7.45314C33.2169 7.66592 32.9777 7.84546 32.6307 7.99177L31.2927 8.55583ZM31.6515 6.14303L30.4832 6.63558L29.8622 5.16261L30.9342 4.7107C31.3249 4.54598 31.6441 4.48102 31.8919 4.51583C32.1412 4.54697 32.3195 4.6898 32.4268 4.94429C32.6305 5.42756 32.3721 5.82715 31.6515 6.14303ZM24.1622 8.28481L22.8085 9.22594L25.1493 12.5931L24.7371 12.8797L22.3962 9.51259L21.094 10.4179L20.8503 10.0674L23.9185 7.93435L24.1622 8.28481ZM18.4858 17.4475C18.4675 17.752 18.3389 18.0313 18.1 18.2853C17.7885 18.6165 17.4288 18.7627 17.0211 18.7239C16.6152 18.6831 16.202 18.4649 15.7813 18.0692L15.6747 17.9689C15.2459 17.5656 14.9976 17.1618 14.93 16.7573C14.8642 16.3508 14.9861 15.9829 15.2958 15.6537C15.5385 15.3956 15.8184 15.2568 16.1356 15.2372C16.4546 15.2156 16.7508 15.318 17.0242 15.5444L17.3539 15.1939C16.987 14.8795 16.585 14.7389 16.1479 14.772C15.7127 14.8031 15.325 14.9996 14.9848 15.3613C14.7173 15.6458 14.5512 15.9588 14.4867 16.3002C14.4241 16.6396 14.4642 16.9837 14.6072 17.3326C14.7501 17.6815 14.9841 18.0088 15.3093 18.3146L15.419 18.4178C15.9271 18.8956 16.45 19.15 16.9877 19.1808C17.5274 19.2097 18.0008 19.0077 18.4079 18.5748C18.6143 18.3553 18.7606 18.1061 18.8467 17.8272C18.9348 17.5462 18.951 17.2704 18.8954 16.9998C18.8377 16.7272 18.713 16.4913 18.5214 16.2919L18.1917 16.6424C18.4059 16.8707 18.5039 17.1391 18.4858 17.4475ZM13.0528 25.7985C12.8558 26.1293 12.5959 26.3804 12.273 26.5518C11.9516 26.7208 11.6016 26.7932 11.2231 26.7691C10.8422 26.7436 10.4707 26.623 10.1088 26.4075L9.95422 26.3154C9.58031 26.0928 9.28636 25.8203 9.0724 25.4981C8.85986 25.1734 8.74558 24.831 8.72956 24.4708C8.71114 24.1092 8.79185 23.7773 8.97171 23.4753C9.2529 23.0031 9.63736 22.7256 10.1251 22.6426C10.6119 22.5559 11.1345 22.6788 11.6929 23.0114L11.9338 23.1548L10.2809 25.9304L10.3636 25.9797C10.8046 26.2423 11.2475 26.3356 11.6922 26.2595C12.1359 26.1795 12.472 25.9478 12.7004 25.5643C12.8374 25.3342 12.916 25.1067 12.9364 24.8818C12.9581 24.6544 12.9195 24.4139 12.8206 24.1602L13.1861 24.0126C13.4555 24.6016 13.411 25.1969 13.0528 25.7985ZM9.33843 23.6937C9.14573 24.0173 9.10166 24.3612 9.2062 24.7254C9.31217 25.0873 9.55102 25.4113 9.92276 25.6976L11.3123 23.3643L11.2656 23.3364C10.8845 23.1257 10.5166 23.0511 10.1618 23.1126C9.80702 23.174 9.53255 23.3677 9.33843 23.6937ZM7.63891 38.0477L3.6974 36.9005L3.55707 37.3827L7.90438 38.648L9.45854 33.3083L10.7483 33.6836L10.8769 33.2417L9.1919 32.712L9.03988 33.2343L5.09836 32.0871L4.95803 32.5693L8.89955 33.7165L8.3429 35.629L4.40139 34.4818L4.26106 34.9639L8.20257 36.1111L7.63891 38.0477ZM3.01971 45.7803C3.03658 45.2058 3.23847 44.7457 3.6254 44.3998C4.00954 44.0538 4.51113 43.8899 5.13018 43.9081L5.23893 43.9113C5.64884 43.9233 6.01591 44.0164 6.34012 44.1906C6.66163 44.3619 6.90991 44.6037 7.08494 44.9158C7.25728 45.2251 7.33763 45.5777 7.32601 45.9737C7.30849 46.5704 7.0963 47.0484 6.68945 47.4076C6.27989 47.764 5.74327 47.9325 5.0796 47.913L4.67806 47.9012C3.74112 47.8737 2.99764 47.6733 2.44762 47.2999C1.89761 46.9265 1.57788 46.4092 1.48845 45.7479C1.43372 45.3304 1.35165 45.0364 1.24223 44.8657C1.1329 44.6922 0.979235 44.6026 0.78125 44.5968L0.793896 44.166C1.02813 44.1729 1.2205 44.2273 1.371 44.3294C1.52151 44.4315 1.6413 44.5816 1.73038 44.7796C1.81667 44.9775 1.88599 45.2781 1.93834 45.6815C1.99734 46.1438 2.18304 46.5204 2.49545 46.8115C2.80516 47.0997 3.22648 47.2934 3.75942 47.3928C3.53042 47.2075 3.34735 46.9788 3.21021 46.7069C3.07314 46.4321 3.00965 46.1233 3.01971 45.7803ZM5.0316 47.4092L5.13617 47.4123C5.64646 47.4273 6.066 47.3014 6.39479 47.0348C6.72078 46.7681 6.89037 46.4102 6.90355 45.9613C6.91681 45.5095 6.76711 45.1423 6.45445 44.8596C6.139 44.5768 5.71916 44.4278 5.19492 44.4124L5.08617 44.4092C4.61491 44.3954 4.226 44.5235 3.91944 44.7936C3.61297 45.0609 3.45314 45.419 3.43996 45.868C3.42679 46.3169 3.56816 46.6825 3.86409 46.9647C4.15722 47.2468 4.54639 47.395 5.0316 47.4092ZM4.91097 57.4323C5.28485 57.5315 5.68555 57.5403 6.11305 57.4589L6.21171 57.4401C6.89681 57.3096 7.41266 57.021 7.75923 56.5744C8.10255 56.1256 8.21808 55.6066 8.10582 55.0174C8.0322 54.631 7.8735 54.3049 7.62972 54.0389C7.38594 53.773 7.07711 53.5904 6.70323 53.4913C6.32608 53.3899 5.92239 53.3802 5.49214 53.4622L5.38938 53.4818C4.70427 53.6123 4.1898 53.9006 3.84596 54.3466C3.49938 54.7932 3.38248 55.3125 3.49526 55.9044C3.56836 56.2881 3.7298 56.6137 3.97959 56.8813C4.22611 57.1468 4.53657 57.3304 4.91097 57.4323ZM7.38769 56.2789C7.09735 56.6182 6.68636 56.8385 6.15472 56.9398L6.06429 56.957C5.50798 57.063 5.03219 57.0102 4.6369 56.7987C4.23887 56.5877 3.99809 56.263 3.91455 55.8245C3.85868 55.5313 3.88718 55.2561 4.00005 54.9989C4.11017 54.7422 4.29436 54.5239 4.55261 54.3441C4.81085 54.1642 5.10988 54.0419 5.44969 53.9772L5.54424 53.9592C6.10328 53.8527 6.58045 53.9052 6.97574 54.1167C7.36776 54.326 7.60607 54.6526 7.69065 55.0965C7.77576 55.5432 7.67477 55.9373 7.38769 56.2789ZM10.6938 68.6199C11.2952 68.2504 11.8547 68.0899 12.3724 68.1385C12.8878 68.1886 13.2827 68.4371 13.5573 68.8839C13.8815 69.4116 13.9444 69.9296 13.7459 70.4379L15.714 69.2286L15.9747 69.6529L10.6338 72.9345L10.3907 72.5388L10.923 72.1822C10.3409 72.1568 9.88779 71.8802 9.56357 71.3525C9.28024 70.8914 9.23296 70.4228 9.42171 69.9467C9.60901 69.4681 10.0128 69.0383 10.6332 68.6571L10.6938 68.6199ZM10.8818 69.0937C10.3898 69.396 10.0633 69.7358 9.90217 70.1131C9.74108 70.4904 9.77153 70.8597 9.99351 71.221C10.1542 71.4824 10.3552 71.6684 10.5965 71.7787C10.8379 71.8891 11.1092 71.9204 11.4106 71.8728L13.2611 70.7358C13.4193 70.4978 13.4983 70.2479 13.4979 69.9862C13.4975 69.7245 13.4177 69.4641 13.2586 69.205C13.038 68.8461 12.7238 68.6544 12.3159 68.63C11.9042 68.6047 11.4261 68.7593 10.8818 69.0937ZM15.7894 78.5919L14.6541 77.3963L14.3446 77.6902L16.9177 80.4001L17.2272 80.1062L16.1351 78.9561L19.109 76.1323L18.7632 75.7682L15.7894 78.5919ZM24.1634 80.5751L24.5771 80.8597L23.4004 82.5696L25.4102 83.9526L26.5868 82.2427L27.0005 82.5274L24.4337 86.2573L24.0201 85.9726L25.1706 84.3007L23.1609 82.9177L22.0103 84.5896L21.5967 84.305L24.1634 80.5751ZM34.5086 86.3855C34.2903 86.0923 34.0028 85.8734 33.646 85.7288C32.9971 85.4657 32.4019 85.5119 31.8605 85.8674L32.0617 86.2064C32.2975 86.0702 32.5294 85.9956 32.7574 85.9827C32.9828 85.9687 33.2197 86.012 33.4678 86.1126C33.8815 86.2803 34.1614 86.5774 34.3076 87.0039C34.4502 87.4319 34.4251 87.8838 34.2322 88.3595L34.1961 88.4487L31.2022 87.2351L31.0969 87.4949C30.8527 88.0973 30.8103 88.6325 30.9698 89.1005C31.1256 89.5701 31.4582 89.9081 31.9675 90.1145C32.2933 90.2466 32.6335 90.2761 32.9882 90.2032C33.3418 90.1328 33.663 89.968 33.9517 89.7087C34.2378 89.4484 34.4626 89.1166 34.6261 88.7133L34.6937 88.5466C34.852 88.1562 34.9149 87.7708 34.8824 87.3904C34.8489 87.0126 34.7243 86.6776 34.5086 86.3855ZM33.1677 89.6935C32.8235 89.852 32.4769 89.8605 32.1279 89.719C31.7763 89.5765 31.5432 89.3345 31.4288 88.9931C31.3143 88.6517 31.3323 88.2767 31.4829 87.8682L31.5033 87.8177L34.0202 88.838C33.7935 89.2488 33.5093 89.5339 33.1677 89.6935ZM43.6148 93.0098L44.1107 93.089L44.825 88.618L41.4614 88.0806L41.6734 86.7541L41.2188 86.6815L40.903 88.4194L41.3576 88.492L40.7099 92.5456L41.2058 92.6249L41.8534 88.5712L44.2625 88.9561L43.6148 93.0098ZM60.9814 6.78368L60.4953 6.65756L61.0166 4.64854L58.6552 4.03579L58.1339 6.04481L57.6479 5.91868L58.7851 1.53611L59.2711 1.66224L58.7614 3.6267L61.1228 4.23945L61.6325 2.27499L62.1186 2.40111L60.9814 6.78368ZM69.301 7.00941L68.1544 6.38496L68.941 4.94072L68.5037 4.70255L66.3382 8.6788L67.9073 9.53341C68.3557 9.77759 68.7736 9.85591 69.1612 9.76839C69.5525 9.67975 69.853 9.44311 70.0624 9.05847C70.1985 8.80857 70.2604 8.55795 70.248 8.30659C70.238 8.05657 70.1503 7.81817 69.9847 7.59141C69.8229 7.36352 69.595 7.16952 69.301 7.00941ZM66.9776 8.54581L67.9503 6.7598L69.1226 7.39826C69.4237 7.56861 69.6166 7.78323 69.7011 8.04211C69.7894 8.29987 69.7616 8.56105 69.6174 8.82564C69.4667 9.10249 69.2573 9.27116 68.9893 9.33167C68.7237 9.39351 68.4329 9.33837 68.1168 9.16625L66.9776 8.54581ZM70.2776 10.8243L70.7186 11.0645L72.8842 7.08826L72.4432 6.84809L70.2776 10.8243ZM78.7686 13.7272L80.9115 13.2021L81.3488 13.6043L78.7144 14.2004L78.3334 16.9824L77.8991 16.583L78.2476 14.2999L76.0017 14.8382L75.5674 14.4389L78.3047 13.8237L78.6783 11.1486L79.1126 11.5479L78.7686 13.7272ZM91.1768 27.4371L90.9518 26.9882L86.5273 26.4721L89.8569 24.8034L89.6337 24.3582L85.5859 26.3869L85.809 26.832L90.2298 27.35L86.904 29.0168L87.129 29.4657L91.1768 27.4371ZM90.0017 38.0936L89.8789 37.6067L91.8915 37.0993L91.2951 34.7337L89.2825 35.2411L89.1598 34.7542L93.5501 33.6473L93.6729 34.1343L91.7049 34.6304L92.3013 36.996L94.2693 36.4998L94.392 36.9868L90.0017 38.0936ZM95.4672 47.0063L95.4525 46.5044L91.6581 44.1709L95.3808 44.0616L95.3662 43.5639L90.8404 43.6967L90.855 44.1945L94.6452 46.5281L90.9268 46.6372L90.9415 47.1392L95.4672 47.0063ZM95.0127 53.6779L94.9142 54.1703L90.8888 53.3655L90.4105 55.7577L94.4359 56.5626L94.3375 57.055L90.3121 56.2501L90.2218 56.7015L88.4976 56.3183L88.5879 55.867L89.905 56.1303L90.5729 52.7902L95.0127 53.6779ZM90.7466 67.3175L90.9531 66.8598L88.5641 63.1002L91.9586 64.6324L92.1635 64.1786L88.0367 62.3157L87.8319 62.7696L90.217 66.5275L86.8264 64.997L86.6198 65.4547L90.7466 67.3175ZM82.1043 72.6263C82.2484 72.6713 82.4363 72.7716 82.6681 72.9274C82.59 72.6497 82.5825 72.3638 82.6456 72.0696C82.7092 71.7794 82.832 71.5124 83.014 71.2688C83.2745 70.9202 83.5829 70.7101 83.9393 70.6386C84.294 70.5693 84.62 70.6457 84.9173 70.8678C85.2704 71.1316 85.4404 71.4867 85.4273 71.933C85.4125 72.3817 85.2089 72.8686 84.8165 73.3938L84.273 74.1212L84.6854 74.4293C84.9446 74.623 85.2081 74.6944 85.4758 74.6437C85.7441 74.5969 85.9926 74.4204 86.2214 74.1142C86.4301 73.8349 86.5314 73.5501 86.5253 73.26C86.5191 72.9699 86.4155 72.7497 86.2144 72.5994L86.5183 72.1997C86.8066 72.415 86.9556 72.7353 86.9653 73.1604C86.9772 73.5872 86.8371 73.9962 86.5449 74.3873C86.2427 74.7918 85.9031 75.0343 85.5261 75.1148C85.1496 75.1992 84.7779 75.1095 84.4108 74.8457L82.6944 73.5634C82.3435 73.3013 82.0534 73.142 81.824 73.0855L81.7837 73.0554L82.1043 72.6263ZM83.3343 71.5813C83.1339 71.8494 83.0201 72.137 82.9928 72.4439C82.9638 72.7531 83.0218 73.0367 83.1668 73.2947L83.9646 73.8908L84.5006 73.1734C84.795 72.77 84.955 72.402 84.9806 72.0695C85.0084 71.7385 84.8983 71.4804 84.6502 71.2951C84.4469 71.1431 84.2222 71.0919 83.9762 71.1415C83.7286 71.1933 83.5146 71.3399 83.3343 71.5813ZM79.427 81.4142L78.1882 82.5021L78.4698 82.8228L81.2777 80.3571L80.996 80.0363L79.8043 81.0828L77.0984 78.0014L76.7211 78.3327L79.427 81.4142ZM70.9723 87.8093L70.5345 88.0553L68.3161 84.1083L68.7538 83.8623L70.5766 87.1052L70.8842 82.6649L71.3183 82.4209L73.5367 86.3679L73.1026 86.6119L71.2778 83.3653L70.9723 87.8093ZM64.4244 90.7234L63.1105 86.3906L61.2604 86.9516C60.7452 87.1079 60.379 87.3326 60.1618 87.6259C59.9428 87.9226 59.8911 88.2618 60.0069 88.6436C60.083 88.8945 60.2366 89.0885 60.4676 89.2254C60.6959 89.3631 60.9597 89.4158 61.2588 89.3834C61.0314 89.5369 60.8777 89.7176 60.7979 89.9254C60.7189 90.136 60.7122 90.3493 60.7778 90.5656C60.8928 90.9447 61.1266 91.1871 61.4794 91.293C61.833 91.4015 62.2847 91.3723 62.8347 91.2056L64.4244 90.7234ZM62.7554 86.9355L63.2387 88.5293L61.8492 88.9507C61.4887 89.06 61.1896 89.0735 60.9519 88.9911C60.7141 88.9087 60.5587 88.7474 60.4859 88.5071C60.4065 88.2455 60.4433 88.0157 60.596 87.8178C60.7488 87.6198 61.0054 87.4662 61.3658 87.3569L62.7554 86.9355ZM62.1468 89.2977L63.3601 88.9298L63.824 90.4595L62.7108 90.7971C62.305 90.9202 61.9807 90.9514 61.7379 90.891C61.4932 90.834 61.3308 90.6734 61.2507 90.4091C61.0985 89.9072 61.3972 89.5367 62.1468 89.2977ZM19.2603 42.6204L22.9791 51.9016L26.6978 42.6204H28.6431V53.9954H27.1431V49.5657L27.2837 44.7844L23.5494 53.9954H22.4009L18.6744 44.8079L18.8228 49.5657V53.9954H17.3228V42.6204H19.2603ZM40.0337 53.9954H38.5259V48.7375H32.7916V53.9954H31.2916V42.6204H32.7916V47.511H38.5259V42.6204H40.0337V53.9954ZM49.1275 48.7375H44.1978V52.7688H49.9244V53.9954H42.6978V42.6204H49.8462V43.8547H44.1978V47.511H49.1275V48.7375ZM60.5337 53.9954H59.0259V48.7375H53.2916V53.9954H51.7916V42.6204H53.2916V47.511H59.0259V42.6204H60.5337V53.9954ZM70.3697 42.6204H71.8697V53.9954H70.3697V45.2297L64.7681 53.9954H63.2603V42.6204H64.7681V51.386L70.3697 42.6204ZM81.0337 48.7375H76.1041V52.7688H81.8306V53.9954H74.6041V42.6204H81.7525V43.8547H76.1041V47.511H81.0337V48.7375ZM84.4934 46.4902C84.4934 65.8176 68.8254 81.4855 49.4981 81.4855C30.1707 81.4855 14.5028 65.8176 14.5028 46.4902C14.5028 27.1628 30.1707 11.4949 49.4981 11.4949C68.8254 11.4949 84.4934 27.1628 84.4934 46.4902ZM84.9934 46.4902C84.9934 66.0937 69.1016 81.9855 49.4981 81.9855C29.8946 81.9855 14.0028 66.0937 14.0028 46.4902C14.0028 26.8867 29.8946 10.9949 49.4981 10.9949C69.1016 10.9949 84.9934 26.8867 84.9934 46.4902Z" fill="black"/>
</svg>
