<svg width="96" height="93" viewBox="0 0 96 93" fill="none" xmlns="http://www.w3.org/2000/svg">
<path fill-rule="evenodd" clip-rule="evenodd" d="M51.5245 0.604381L53.9706 0.825061L54.0036 0.466582L51.1592 0.209961L50.7757 4.36832L51.1741 4.40426L51.5245 0.604381ZM35.3814 2.10409L36.955 1.67144L36.8564 1.32521L33.3235 2.29655L33.4221 2.64278L34.9957 2.21013L36.0411 5.88014L36.4268 5.77409L35.3814 2.10409ZM26.3206 5.12905C26.689 4.94753 27.0639 4.86682 27.4454 4.88692C27.8245 4.90226 28.1741 5.01238 28.4942 5.21727C28.8119 5.41742 29.0617 5.69562 29.2436 6.05188C29.4255 6.40814 29.5043 6.77358 29.48 7.1482C29.4557 7.52282 29.3377 7.86634 29.1259 8.17875C28.9118 8.48641 28.6205 8.731 28.2521 8.91252C27.9507 9.06103 27.6478 9.15381 27.3434 9.19086C27.0438 9.22555 26.763 9.19745 26.501 9.10656L26.6 8.79026C27.0757 8.92446 27.5695 8.86545 28.0814 8.61321C28.3732 8.46941 28.606 8.27445 28.7797 8.02833C28.9582 7.77985 29.0646 7.50744 29.099 7.21111C29.1309 6.91002 29.0848 6.61464 28.9609 6.32495L26.844 7.36808L26.7021 7.0902L28.8119 6.0506C28.6449 5.79399 28.4328 5.59535 28.1753 5.45467C27.9155 5.30924 27.6356 5.23608 27.3358 5.2352C27.0383 5.22721 26.7461 5.29393 26.459 5.43538C25.9519 5.68526 25.6097 6.04115 25.4324 6.50307L25.1188 6.39899C25.2013 6.13837 25.3463 5.90046 25.5537 5.68527C25.7636 5.46297 26.0192 5.27756 26.3206 5.12905ZM86.2762 45.5047C86.2762 66.4803 69.312 83.4824 48.3881 83.4824C27.4641 83.4824 10.4999 66.4803 10.4999 45.5047C10.4999 24.5291 27.4641 7.527 48.3881 7.527C69.312 7.527 86.2762 24.5291 86.2762 45.5047ZM86.7762 45.5047C86.7762 66.7553 69.5892 83.9824 48.3881 83.9824C27.1869 83.9824 9.99992 66.7553 9.99992 45.5047C9.99992 24.2541 27.1869 7.027 48.3881 7.027C69.5892 7.027 86.7762 24.2541 86.7762 45.5047ZM18.5444 56.507H31.5874V54.4425H21.5933L26.9253 48.6593C29.4227 45.9523 30.6714 43.6189 30.6714 41.6593C30.6714 40.046 30.1336 38.7563 29.0581 37.7902C27.9826 36.8149 26.5197 36.3273 24.6694 36.3273C22.6916 36.3273 21.1102 36.8924 19.9253 38.0226C18.7495 39.1528 18.1616 40.6339 18.1616 42.4659H20.6909C20.6909 41.1899 21.0373 40.1964 21.73 39.4855C22.4318 38.7654 23.4116 38.4054 24.6694 38.4054C25.7176 38.4054 26.5562 38.7381 27.1851 39.4034C27.814 40.0688 28.1284 40.921 28.1284 41.9601C28.1284 42.7348 27.9325 43.4868 27.5405 44.2159C27.1577 44.936 26.4559 45.8748 25.4351 47.0323L18.5444 54.6886V56.507ZM45.2319 54.6202C46.2437 53.1801 46.7495 50.979 46.7495 48.0167V44.7355C46.7222 41.8735 46.2026 39.7589 45.1909 38.3917C44.1792 37.0154 42.6024 36.3273 40.4604 36.3273C38.3003 36.3273 36.7144 37.0382 35.7026 38.4601C34.6909 39.882 34.1851 42.0558 34.1851 44.9816V48.3585C34.2215 51.1567 34.7502 53.2622 35.771 54.6749C36.7918 56.0786 38.3641 56.7804 40.4878 56.7804C42.6388 56.7804 44.2202 56.0603 45.2319 54.6202ZM43.3179 39.882C43.9194 40.8572 44.2202 42.4158 44.2202 44.5577V48.7003C44.1929 50.7784 43.8739 52.3006 43.2632 53.2667C42.6616 54.2329 41.7365 54.7159 40.4878 54.7159C39.2209 54.7159 38.2729 54.2055 37.644 53.1847C37.0243 52.1547 36.7144 50.5643 36.7144 48.4132V44.3663C36.7326 42.3429 37.0379 40.8435 37.6304 39.8683C38.2228 38.893 39.1662 38.4054 40.4604 38.4054C41.7638 38.4054 42.7163 38.8976 43.3179 39.882ZM49.9897 56.507H63.0327V54.4425H53.0386L58.3706 48.6593C60.868 45.9523 62.1167 43.6189 62.1167 41.6593C62.1167 40.046 61.5789 38.7563 60.5034 37.7902C59.4279 36.8149 57.965 36.3273 56.1147 36.3273C54.1369 36.3273 52.5555 36.8924 51.3706 38.0226C50.1948 39.1528 49.6069 40.6339 49.6069 42.4659H52.1362C52.1362 41.1899 52.4826 40.1964 53.1753 39.4855C53.8771 38.7654 54.8569 38.4054 56.1147 38.4054C57.1629 38.4054 58.0015 38.7381 58.6304 39.4034C59.2593 40.0688 59.5737 40.921 59.5737 41.9601C59.5737 42.7348 59.3778 43.4868 58.9858 44.2159C58.603 44.936 57.9012 45.8748 56.8804 47.0323L49.9897 54.6886V56.507ZM67.8862 36.6007L66.8745 46.5265L68.8979 47.046L69.5679 46.4991C70.1968 46.0161 71.0627 45.7745 72.1655 45.7745C73.3687 45.7745 74.3302 46.1801 75.0503 46.9913C75.7795 47.7934 76.144 48.8598 76.144 50.1906C76.144 51.6033 75.8068 52.7107 75.1323 53.5128C74.467 54.3149 73.5464 54.7159 72.3706 54.7159C71.2951 54.7159 70.4292 54.4288 69.7729 53.8546C69.1167 53.2713 68.7111 52.41 68.5562 51.2706H66.1636C66.3185 52.9933 66.952 54.3422 68.064 55.3175C69.1759 56.2928 70.6115 56.7804 72.3706 56.7804C74.3576 56.7804 75.9025 56.1925 77.0054 55.0167C78.1173 53.8318 78.6733 52.214 78.6733 50.1632C78.6733 48.1215 78.1401 46.5037 77.0737 45.3097C76.0073 44.1066 74.5672 43.505 72.7534 43.505C71.5138 43.505 70.4064 43.7921 69.4312 44.3663L70.0327 38.9386H78.0854V36.6007H67.8862ZM41.2483 92.1574L43.6926 92.3973L44.0786 88.6009L44.4767 88.64L44.0543 92.7945L41.2119 92.5156L41.2483 92.1574ZM32.587 90.2284C32.8331 90.4933 33.1424 90.6826 33.5147 90.7965C33.8717 90.9056 34.223 90.9182 34.5684 90.8342C34.9072 90.7537 35.204 90.5852 35.4587 90.3284L35.1616 91.2665L35.5288 91.3788L37.2585 85.9182L36.8759 85.8012L36.1198 88.1883C36.0551 87.8451 35.9065 87.5459 35.6741 87.2908C35.44 87.0408 35.147 86.862 34.7951 86.7544C34.4227 86.6406 34.0595 86.6215 33.7055 86.6973C33.3498 86.7782 33.0395 86.9454 32.7746 87.199C32.5029 87.4562 32.3051 87.7805 32.1811 88.172C32.0571 88.5635 32.0334 88.9382 32.1102 89.2963C32.1819 89.6528 32.3408 89.9635 32.587 90.2284ZM33.8154 87.0655C34.1053 86.998 34.4033 87.011 34.7093 87.1046C35.0153 87.1982 35.2682 87.3536 35.4679 87.5708C35.6625 87.7864 35.791 88.0432 35.8533 88.3411C35.9104 88.6374 35.8875 88.9482 35.7844 89.2736C35.6813 89.599 35.5207 89.8678 35.3025 90.0799C35.0791 90.2905 34.8251 90.4303 34.5402 90.4994C34.2503 90.5669 33.9524 90.5538 33.6464 90.4603C33.3403 90.3667 33.0875 90.2113 32.8878 89.9941C32.688 89.7769 32.5596 89.5201 32.5024 89.2238C32.4401 88.9259 32.4605 88.6143 32.5636 88.2889C32.6667 87.9635 32.8299 87.6955 33.0532 87.485C33.2714 87.2729 33.5255 87.133 33.8154 87.0655ZM24.5649 86.9806C24.1125 86.7297 23.8315 86.4214 23.7218 86.0557C23.6095 85.6945 23.6808 85.292 23.9359 84.8481L25.2552 82.5522L25.591 82.7384L25.2204 83.3835C25.4592 83.2355 25.7251 83.1634 26.018 83.1673C26.3083 83.1759 26.6097 83.2668 26.9222 83.4401C27.328 83.6652 27.5953 83.9385 27.7243 84.26C27.8485 84.5789 27.8216 84.8933 27.6436 85.2031C27.4709 85.5037 27.2241 85.687 26.9033 85.753C26.5751 85.821 26.1732 85.7231 25.6975 85.4592L24.4452 84.7647L24.2778 85.056C24.0838 85.3936 24.0296 85.7019 24.1152 85.9811C24.1961 86.2577 24.4138 86.4943 24.7683 86.6909C25.0108 86.8254 25.2679 86.9132 25.5396 86.9541C25.8066 86.9924 26.057 86.9849 26.2906 86.9316L26.322 87.2783C26.0471 87.3392 25.7562 87.3425 25.4492 87.2881C25.1395 87.2383 24.8447 87.1358 24.5649 86.9806ZM26.7098 83.6974C26.4067 83.5292 26.1103 83.4563 25.8207 83.4786C25.5264 83.4984 25.25 83.6103 24.9912 83.8144L24.6006 84.4941L25.8459 85.1848C26.205 85.384 26.5034 85.4641 26.7411 85.4252C26.974 85.3836 27.1556 85.2496 27.2858 85.023C27.4213 84.7872 27.4403 84.5507 27.3428 84.3137C27.2427 84.0813 27.0317 83.8759 26.7098 83.6974ZM17.3712 79.0993L16.6363 78.4449L16.9094 76.0962L16.5509 75.7771L16.2563 78.385L13.809 78.9263L14.1376 79.2189L16.403 78.6978L17.138 79.3521L15.8524 80.7457L16.1511 81.0117L17.4367 79.6181L18.1656 80.2671L17.86 82.5332L18.1886 82.8258L18.4968 80.3799L21.1157 79.8414L20.7512 79.5169L18.3989 80.0143L17.6699 79.3652L18.9826 77.9422L18.6839 77.6762L17.3712 79.0993ZM10.7946 68.9629L11.9483 68.184L12.1638 68.4921L11.3018 69.0741L13.567 72.3125L14.429 71.7306L14.6491 72.0452L13.4954 72.8241L13.3532 72.6209C13.1779 72.3982 12.8867 72.3632 12.4794 72.516C12.0646 72.6673 11.5268 72.9403 10.8658 73.3351L9.69326 74.0592L8.01043 71.6533L11.1798 69.5136L10.7946 68.9629ZM10.6747 73.0201C11.216 72.6869 11.6842 72.4351 12.0793 72.2649C12.4743 72.0947 12.7889 72.056 13.0231 72.1489L11.409 69.8414L8.53807 71.7796L9.78528 73.5627L10.6747 73.0201ZM3.93053 62.924C3.79025 63.2797 3.81991 63.6962 4.01951 64.1734C4.14298 64.4687 4.31076 64.7316 4.52284 64.9623C4.72999 65.195 4.96023 65.3724 5.21358 65.4944L5.40348 65.2021C5.18721 65.0996 4.9862 64.9507 4.80047 64.7554C4.61267 64.5551 4.46527 64.3271 4.35827 64.0712C4.20188 63.6973 4.17753 63.3764 4.28521 63.1087C4.39083 62.836 4.62416 62.6268 4.98519 62.481L5.29676 62.3553L5.84927 63.6764C6.05916 64.1783 6.31385 64.5039 6.61333 64.6533C6.90581 64.7998 7.21279 64.8082 7.53425 64.6784C7.86561 64.5446 8.08123 64.3138 8.18111 63.986C8.27893 63.6532 8.23833 63.2727 8.05931 62.8447C7.92144 62.515 7.7413 62.257 7.51888 62.0708C7.29153 61.8865 7.03838 61.7788 6.75943 61.7476L7.44935 61.4691L7.30119 61.1148L4.84569 62.106C4.37091 62.2977 4.06586 62.5703 3.93053 62.924ZM7.17146 62.1938C7.41243 62.3553 7.59979 62.596 7.73355 62.9158C7.87553 63.2553 7.91391 63.5475 7.84868 63.7923C7.77851 64.0392 7.61731 64.2135 7.36508 64.3154C7.12275 64.4132 6.89736 64.4064 6.68892 64.295C6.47842 64.1787 6.29395 63.9311 6.1355 63.5522L5.58608 62.2385L6.31308 61.945C6.64231 61.9444 6.92844 62.0273 7.17146 62.1938ZM1.56756 56.5055L1.49566 56.112L3.37073 55.7814L2.86173 52.9955L0.986665 53.3261L0.914773 52.9327L5.02732 52.2074L5.09921 52.6009L3.20838 52.9343L3.71738 55.7202L5.60821 55.3868L5.6801 55.7803L1.56756 56.5055ZM0.480729 45.8407L0.462402 46.2403L4.63442 46.4226L4.65055 46.071L1.23029 42.9427L4.7869 43.0981L4.80523 42.6985L0.633206 42.5162L0.617079 42.8679L4.03734 45.9961L0.480729 45.8407ZM1.69243 35.9936L1.79968 35.6082L3.63834 36.1028L4.39772 33.3745L2.55906 32.8799L2.66632 32.4946L6.699 33.5792L6.59174 33.9646L4.73764 33.4659L3.97826 36.1942L5.83236 36.6929L5.72511 37.0782L1.69243 35.9936ZM7.62718 25.6481L6.68437 27.4752L7.00662 27.6357L7.94943 25.8086L7.62718 25.6481ZM11.9311 16.2012L15.2231 18.7705L14.9716 19.0815L11.9633 16.7337L10.1726 18.9483L13.1808 21.2961L12.9293 21.6072L9.63731 19.0378L11.9311 16.2012ZM19.7087 14.1375C20.0746 14.0795 20.4125 13.9282 20.7222 13.6836C21.0319 13.4389 21.2528 13.1489 21.3849 12.8136C21.5212 12.4749 21.5592 12.1255 21.4988 11.7655C21.4351 11.4013 21.2749 11.0624 21.0182 10.7487C20.7615 10.435 20.4607 10.2105 20.1157 10.0753C19.7674 9.93586 19.4102 9.89517 19.0443 9.95317C18.6825 10.0079 18.3468 10.1575 18.0371 10.4021C17.7273 10.6468 17.5043 10.9384 17.3681 11.2771C17.236 11.6124 17.2018 11.9622 17.2655 12.3264C17.3258 12.6864 17.4844 13.0233 17.7411 13.337C17.9977 13.6507 18.3003 13.8772 18.6486 14.0166C18.9935 14.1519 19.3469 14.1922 19.7087 14.1375ZM21.0241 12.701C20.922 12.972 20.7453 13.2066 20.4942 13.4049C20.2431 13.6033 19.9698 13.724 19.6743 13.7671C19.383 13.8069 19.0944 13.7699 18.8083 13.6561C18.5264 13.5389 18.2774 13.3483 18.0612 13.0841C17.8451 12.82 17.7091 12.5401 17.6532 12.2444C17.6015 11.9455 17.6267 11.6606 17.7289 11.3896C17.8352 11.1154 18.0139 10.8791 18.265 10.6808C18.5162 10.4824 18.7874 10.3633 19.0786 10.3236C19.3741 10.2805 19.6628 10.3175 19.9447 10.4346C20.2307 10.5484 20.4818 10.7374 20.698 11.0016C20.9142 11.2657 21.0481 11.5473 21.0998 11.8462C21.1557 12.1419 21.1304 12.4268 21.0241 12.701ZM42.3789 2.25102L44.4267 2.06763L44.46 2.42609L42.4122 2.60948L42.3789 2.25102ZM61.713 2.11689C62.0863 2.2275 62.3972 2.41417 62.6456 2.67689C62.894 2.93962 63.0556 3.24892 63.1303 3.60479C63.2102 3.96219 63.1898 4.33716 63.0691 4.7297C62.9485 5.12224 62.7534 5.44825 62.484 5.70771C62.2212 5.96359 61.9124 6.13349 61.5574 6.21743C61.204 6.29627 60.8406 6.28039 60.4674 6.16978C60.1145 6.06524 59.82 5.88897 59.5838 5.64099C59.3491 5.38791 59.198 5.09004 59.1303 4.74739L58.3947 7.14089L58.0112 7.02725L59.694 1.55203L60.0622 1.66112L59.7731 2.6017C60.0256 2.34279 60.3209 2.17164 60.659 2.08826C61.0037 2.00129 61.3551 2.01083 61.713 2.11689ZM60.5501 5.81885C60.8569 5.90976 61.155 5.92021 61.4443 5.85019C61.7336 5.78017 61.9865 5.63817 62.2029 5.42418C62.4244 5.21171 62.5853 4.94234 62.6856 4.61607C62.7859 4.28979 62.8036 3.978 62.7388 3.68068C62.6791 3.38487 62.5484 3.12923 62.3468 2.91376C62.1453 2.69829 61.8911 2.5451 61.5842 2.45419C61.2774 2.36328 60.9794 2.35283 60.69 2.42285C60.4058 2.49438 60.153 2.63638 59.9314 2.84886C59.715 3.06285 59.5567 3.33298 59.4564 3.65925C59.3561 3.98552 59.3358 4.29656 59.3956 4.59237C59.4604 4.88969 59.591 5.14533 59.7875 5.35928C59.9891 5.57475 60.2433 5.72794 60.5501 5.81885ZM71.548 6.77608C71.4352 6.41128 71.1515 6.10536 70.6969 5.85831C70.4158 5.70549 70.1202 5.60552 69.8101 5.55839C69.5027 5.5066 69.2118 5.51237 68.9374 5.5757L68.9718 5.92215C69.205 5.86679 69.4552 5.85713 69.7226 5.89318C69.9946 5.93178 70.2524 6.0173 70.4961 6.14974C70.8522 6.3433 71.072 6.57805 71.1553 6.85397C71.2433 7.13244 71.1917 7.44129 71.0007 7.78054L70.8359 8.07331L69.5777 7.38947C69.0997 7.12969 68.697 7.03521 68.3694 7.10604C68.0492 7.17478 67.804 7.36017 67.6339 7.66224C67.4586 7.9736 67.4345 8.28822 67.5615 8.6061C67.6931 8.92653 67.9628 9.19753 68.3705 9.41911C68.6845 9.58975 68.9866 9.6781 69.277 9.68418C69.5699 9.6856 69.8352 9.61126 70.0727 9.46116L69.7076 10.1094L70.045 10.2928L71.3443 7.98549C71.5955 7.53936 71.6634 7.13623 71.548 6.77608ZM69.4716 9.37116C69.1822 9.39597 68.8852 9.3256 68.5806 9.16005C68.2573 8.98431 68.0446 8.78067 67.9424 8.54912C67.8428 8.31292 67.8598 8.07632 67.9932 7.83932C68.1215 7.6116 68.3019 7.47598 68.5345 7.43246C68.7718 7.39148 69.0708 7.46904 69.4316 7.66515L70.6828 8.34517L70.2981 9.02831C70.0411 9.23462 69.7656 9.3489 69.4716 9.37116ZM78.6977 14.3267L77.9572 13.6787L76.6569 15.113L76.3559 14.8496L77.6562 13.4153L76.9217 12.7725L74.5738 13.2901L74.2066 12.9688L76.8206 12.4077L77.1078 9.95928L77.4389 10.249L77.1528 12.5177L77.8873 13.1604L79.1608 11.7558L79.4618 12.0192L78.1883 13.4238L78.9288 14.0718L81.1896 13.5312L81.5208 13.8209L79.0783 14.3833L78.8062 16.9938L78.4449 16.6777L78.6977 14.3267ZM83.4757 24.547L84.6227 23.7583L84.2328 23.211L87.3837 21.0443L85.6801 18.6531L84.5138 19.3871C83.8562 19.7875 83.3207 20.0652 82.9072 20.2201C82.5013 20.3763 82.2097 20.3438 82.0325 20.1227L81.8886 19.9207L80.7416 20.7094L80.9644 21.0222L81.8214 20.4329L84.1145 23.6515L83.2576 24.2408L83.4757 24.547ZM83.3095 20.4677C83.7031 20.2941 84.1691 20.0383 84.7075 19.7004L85.5923 19.1502L86.855 20.9225L84.0007 22.8852L82.3667 20.5918C82.6017 20.6826 82.9159 20.6412 83.3095 20.4677ZM91.4417 28.4904C91.6455 28.9659 91.6788 29.3821 91.5416 29.7389C91.4093 30.0937 91.1066 30.369 90.6335 30.5646L88.1865 31.5767L88.0353 31.2237L88.7228 30.9394C88.4436 30.9106 88.1895 30.805 87.9605 30.6227C87.7365 30.4384 87.5541 30.182 87.4133 29.8535C87.2306 29.427 87.1867 29.047 87.2816 28.7134C87.3787 28.3847 87.5923 28.1521 87.9225 28.0155C88.2428 27.883 88.5499 27.8888 88.8437 28.0327C89.1444 28.1796 89.402 28.503 89.6162 29.003L90.1802 30.3193L90.4907 30.1909C90.8505 30.0421 91.082 29.8309 91.1853 29.5573C91.2906 29.2887 91.2635 28.9681 91.1039 28.5955C90.9946 28.3406 90.8452 28.1138 90.6557 27.9152C90.4683 27.7215 90.266 27.5743 90.0488 27.4737L90.2361 27.1798C90.4906 27.2997 90.7224 27.475 90.9315 27.7059C91.1456 27.9348 91.3157 28.1963 91.4417 28.4904ZM87.7385 29.7796C87.875 30.0983 88.0645 30.3373 88.3069 30.4968C88.5514 30.6611 88.8382 30.7416 89.1674 30.7382L89.8919 30.4385L89.3311 29.1296C89.1693 28.7521 88.9827 28.5062 88.7712 28.3917C88.5618 28.2821 88.3363 28.2772 88.0948 28.3771C87.8435 28.481 87.6838 28.6567 87.6157 28.9042C87.5526 29.1496 87.5936 29.4414 87.7385 29.7796ZM94.036 36.5302L93.9606 36.1374L89.8544 36.8974L89.9297 37.2903L91.8176 36.9408L92.351 39.7221L90.4631 40.0716L90.5384 40.4644L94.6447 39.7044L94.5693 39.3115L92.6971 39.6581L92.1638 36.8767L94.036 36.5302ZM95.1568 46.3918L95.1421 46.7915L91.5844 46.6652L95.0327 49.7655L95.0198 50.1172L90.8464 49.9691L90.8611 49.5694L94.4189 49.6957L90.9705 46.5954L90.9835 46.2436L95.1568 46.3918ZM93.9107 57.0365L94.0146 56.6502L89.9728 55.6004L89.8688 55.9867L91.7271 56.4693L90.9913 59.2041L89.1329 58.7214L89.029 59.1077L93.0709 60.1575L93.1748 59.7712L91.3319 59.2925L92.0678 56.5578L93.9107 57.0365ZM89.0992 65.2102L88.1723 67.0454L87.8487 66.8877L88.7756 65.0525L89.0992 65.2102ZM80.6373 73.9879L83.9512 76.5289L86.2204 73.6725L82.9064 71.1315L82.6576 71.4447L85.6859 73.7666L83.9144 75.9966L80.8861 73.6747L80.6373 73.9879ZM75.1825 79.1209C75.4901 78.8737 75.8266 78.7195 76.192 78.6583C76.5533 78.6005 76.9071 78.6377 77.2532 78.77C77.6027 78.9064 77.9072 79.1303 78.1666 79.4418C78.4259 79.7533 78.5874 80.0888 78.6508 80.4482C78.7177 80.8119 78.6865 81.1619 78.5573 81.4984C78.4239 81.8382 78.2035 82.1317 77.8959 82.379C77.5882 82.6263 77.2538 82.7788 76.8925 82.8366C76.527 82.8978 76.1695 82.8601 75.82 82.7238C75.4739 82.5915 75.1712 82.3696 74.9118 82.0581C74.6524 81.7467 74.4892 81.4091 74.4224 81.0455C74.3589 80.686 74.3939 80.3364 74.5272 79.9966C74.6564 79.6601 74.8748 79.3682 75.1825 79.1209ZM75.4128 79.3976C75.1634 79.598 74.9888 79.8342 74.889 80.106C74.7851 80.3811 74.7623 80.6663 74.8207 80.9614C74.875 81.2599 75.0113 81.5402 75.2298 81.8025C75.4482 82.0648 75.7009 82.2516 75.988 82.363C76.2709 82.4777 76.5599 82.5122 76.8549 82.4666C77.1459 82.4243 77.4161 82.3029 77.6655 82.1024C77.9149 81.9019 78.0916 81.6641 78.1955 81.3889C78.2953 81.1171 78.3181 80.832 78.2638 80.5335C78.2054 80.2384 78.067 79.9597 77.8486 79.6974C77.6301 79.4351 77.3795 79.2467 77.0966 79.132C76.8095 79.0206 76.5205 78.9861 76.2296 79.0284C75.9345 79.074 75.6622 79.1971 75.4128 79.3976ZM68.536 87.9736C68.9177 87.9904 69.2919 87.9065 69.6587 87.7219C69.9589 87.5708 70.2129 87.3832 70.4208 87.1591C70.6264 86.9422 70.7693 86.7031 70.8496 86.4418L70.5351 86.3404C70.3618 86.8038 70.0226 87.1626 69.5177 87.4167C69.2318 87.5606 68.9401 87.6299 68.6426 87.6244C68.3427 87.6261 68.0623 87.5553 67.8011 87.4121C67.5425 87.2737 67.3286 87.0769 67.1594 86.8217L69.2602 85.7642L69.116 85.4875L67.008 86.5487C66.8815 86.2601 66.8329 85.9651 66.8622 85.6638C66.894 85.3672 66.9981 85.0939 67.1744 84.8439C67.346 84.5964 67.5771 84.3994 67.8677 84.2532C68.3774 83.9966 68.8707 83.9333 69.3476 84.0634L69.4438 83.7463C69.1811 83.6577 68.9 83.632 68.6007 83.6693C68.2966 83.7089 67.9945 83.8043 67.6943 83.9553C67.3275 84.14 67.0384 84.387 66.8269 84.6965C66.6178 85.0107 66.5028 85.3552 66.4817 85.73C66.4607 86.1048 66.5426 86.4695 66.7276 86.8242C66.9126 87.1788 67.1648 87.4548 67.4843 87.6522C67.8062 87.8544 68.1568 87.9615 68.536 87.9736ZM59.0551 91.2693L60.625 90.8233L59.5475 87.1625L59.9323 87.0532L61.0098 90.714L62.5797 90.268L62.6813 90.6133L59.1568 91.6146L59.0551 91.2693ZM51.5802 90.9359L53.6263 90.7351L53.5899 90.3769L51.5437 90.5778L51.5802 90.9359Z" fill="black"/>
</svg>
