<svg width="66" height="64" viewBox="0 0 66 64" fill="none" xmlns="http://www.w3.org/2000/svg">
<path fill-rule="evenodd" clip-rule="evenodd" d="M35.7256 4.38782L36.1147 4.40194L36.242 0.893345L35.8529 0.879225L35.7958 2.45193L33.9053 2.38333L33.9624 0.810628L33.5733 0.796509L33.4459 4.3051L33.8351 4.31922L33.8934 2.71085L35.7839 2.77944L35.7256 4.38782ZM28.7381 4.84822C28.4445 4.90206 28.1652 4.87848 27.9004 4.77749C27.6377 4.67611 27.4168 4.50879 27.2376 4.27552C27.0581 4.04013 26.9389 3.76178 26.88 3.44049L26.8548 3.30325C26.794 2.97133 26.803 2.66067 26.8819 2.3713C26.9629 2.08153 27.1045 1.84004 27.3066 1.64684C27.5083 1.4515 27.7432 1.32926 28.0113 1.2801C28.4304 1.20324 28.7887 1.286 29.0861 1.52838C29.3852 1.76824 29.5802 2.13605 29.6711 2.63182L29.7103 2.84566L27.2463 3.29745L27.2598 3.37085C27.3316 3.76236 27.5032 4.06848 27.7746 4.28923C28.0477 4.50746 28.3545 4.58536 28.695 4.52294C28.8992 4.48549 29.0722 4.41528 29.2139 4.31233C29.3576 4.20899 29.4784 4.0637 29.576 3.87645L29.8487 4.01448C29.6424 4.47238 29.2722 4.75029 28.7381 4.84822ZM28.071 1.60564C27.7837 1.65831 27.5605 1.80811 27.4012 2.05504C27.2441 2.30158 27.1768 2.60642 27.1994 2.96956L29.2708 2.58975L29.2632 2.54826C29.1917 2.21828 29.0474 1.96542 28.8305 1.78967C28.6135 1.61393 28.3603 1.55258 28.071 1.60564ZM20.3343 3.79009L21.6982 7.02526L23.0795 6.44291C23.4642 6.28073 23.7285 6.07778 23.8722 5.83406C24.0171 5.58751 24.0295 5.32172 23.9093 5.03667C23.8303 4.8493 23.6962 4.71216 23.507 4.62526C23.3198 4.53751 23.1121 4.51824 22.884 4.56745C23.047 4.43065 23.1509 4.27888 23.1956 4.11212C23.2395 3.94337 23.2274 3.77827 23.1593 3.61681C23.04 3.33376 22.84 3.16569 22.5594 3.11261C22.278 3.05754 21.9319 3.11656 21.5213 3.28967L20.3343 3.79009ZM21.9279 6.57626L21.4262 5.38625L22.4638 4.94885C22.7329 4.83541 22.9624 4.80084 23.1525 4.84514C23.3425 4.88944 23.4754 5.00129 23.551 5.18069C23.6334 5.37604 23.6236 5.55621 23.5218 5.72121C23.42 5.8862 23.2345 6.02542 22.9654 6.13887L21.9279 6.57626ZM22.2062 4.70532L21.3002 5.08725L20.8187 3.94507L21.6499 3.59465C21.9529 3.46692 22.2004 3.41655 22.3926 3.44354C22.5859 3.46769 22.7241 3.57844 22.8073 3.77578C22.9653 4.15052 22.7649 4.46037 22.2062 4.70532ZM17.1661 5.88811L16.1164 6.61789L17.9316 9.22883L17.6119 9.4511L15.7967 6.84015L14.7869 7.54215L14.598 7.2704L16.9772 5.61635L17.1661 5.88811ZM13.4706 12.3191C13.4564 12.5552 13.3567 12.7717 13.1715 12.9687C12.9299 13.2255 12.651 13.3389 12.3349 13.3088C12.0202 13.2772 11.6997 13.1079 11.3735 12.8012L11.2908 12.7234C10.9583 12.4107 10.7658 12.0975 10.7134 11.7838C10.6624 11.4686 10.7569 11.1834 10.997 10.9281C11.1852 10.728 11.4023 10.6203 11.6482 10.6051C11.8956 10.5883 12.1253 10.6678 12.3373 10.8434L12.5929 10.5715C12.3085 10.3278 11.9967 10.2187 11.6578 10.2444C11.3203 10.2685 11.0197 10.4208 10.7559 10.7013C10.5484 10.922 10.4197 11.1646 10.3696 11.4294C10.3211 11.6926 10.3522 11.9594 10.4631 12.23C10.5739 12.5005 10.7554 12.7543 11.0075 12.9914L11.0926 13.0715C11.4865 13.442 11.892 13.6392 12.309 13.6631C12.7275 13.6855 13.0945 13.5288 13.4102 13.1932C13.5703 13.023 13.6837 12.8298 13.7505 12.6135C13.8188 12.3956 13.8314 12.1817 13.7882 11.9719C13.7435 11.7605 13.6468 11.5775 13.4982 11.423L13.2426 11.6948C13.4087 11.8718 13.4847 12.0799 13.4706 12.3191ZM9.80229 17.9779C9.64954 18.2344 9.448 18.4291 9.19764 18.562C8.9484 18.693 8.67702 18.7492 8.38351 18.7305C8.08813 18.7107 7.80012 18.6173 7.51947 18.4501L7.39959 18.3787C7.10965 18.2061 6.88172 17.9948 6.7158 17.7449C6.55099 17.4932 6.46238 17.2277 6.44995 16.9484C6.43567 16.6679 6.49826 16.4106 6.63772 16.1765C6.85577 15.8103 7.15389 15.5951 7.53209 15.5308C7.90954 15.4635 8.31479 15.5588 8.74784 15.8167L8.93463 15.9279L7.65292 18.0802L7.71704 18.1184C8.05902 18.322 8.40243 18.3943 8.74726 18.3353C9.09133 18.2734 9.35191 18.0937 9.52901 17.7963C9.63526 17.6179 9.69627 17.4415 9.71201 17.267C9.72887 17.0908 9.69894 16.9042 9.62224 16.7075L9.90567 16.593C10.1146 17.0498 10.0801 17.5114 9.80229 17.9779ZM6.92209 16.3458C6.77267 16.5967 6.73849 16.8634 6.81955 17.1458C6.90173 17.4264 7.08694 17.6777 7.37519 17.8997L8.4527 16.0903L8.41645 16.0687C8.12098 15.9054 7.83568 15.8475 7.56056 15.8952C7.28544 15.9428 7.07262 16.093 6.92209 16.3458ZM6.04108 26.2646L2.98473 25.375L2.87591 25.7489L6.24693 26.73L7.45207 22.5895L8.45216 22.8805L8.55191 22.5378L7.24531 22.1271L7.12743 22.5321L4.07108 21.6426L3.96226 22.0164L7.01861 22.906L6.58697 24.389L3.53062 23.4994L3.42181 23.8733L6.47816 24.7629L6.04108 26.2646ZM2.533 31.2619C2.54608 30.8165 2.70263 30.4596 3.00267 30.1914C3.30054 29.9232 3.68949 29.7961 4.16951 29.8102L4.25384 29.8127C4.5717 29.822 4.85633 29.8942 5.10773 30.0292C5.35704 30.1621 5.54956 30.3495 5.68529 30.5916C5.81892 30.8314 5.88123 31.1048 5.87221 31.4119C5.85863 31.8746 5.6941 32.2452 5.37861 32.5238C5.06102 32.8002 4.64492 32.9308 4.13029 32.9157L3.81893 32.9065C3.0924 32.8852 2.51589 32.7298 2.08939 32.4402C1.66289 32.1507 1.41497 31.7496 1.34562 31.2368C1.30318 30.9131 1.23954 30.6851 1.1547 30.5527C1.06992 30.4182 0.950764 30.3487 0.797241 30.3442L0.807048 30.0101C0.98868 30.0155 1.13785 30.0577 1.25455 30.1369C1.37126 30.2161 1.46415 30.3324 1.53322 30.4859C1.60013 30.6394 1.65389 30.8725 1.69448 31.1853C1.74022 31.5438 1.88422 31.8358 2.12648 32.0615C2.36663 32.285 2.69333 32.4352 3.10659 32.5123C2.92902 32.3686 2.78706 32.1913 2.68072 31.9804C2.57443 31.7674 2.5252 31.5279 2.533 31.2619ZM4.09307 32.525L4.17415 32.5274C4.56985 32.539 4.89517 32.4414 5.15012 32.2347C5.40291 32.0278 5.53441 31.7504 5.54463 31.4022C5.55491 31.0519 5.43883 30.7672 5.19639 30.548C4.95178 30.3287 4.62622 30.2131 4.21971 30.2012L4.13538 30.1987C3.76996 30.188 3.46839 30.2874 3.23068 30.4968C2.99303 30.7041 2.8691 30.9818 2.85888 31.3299C2.84866 31.678 2.95828 31.9615 3.18775 32.1803C3.41506 32.3991 3.71683 32.514 4.09307 32.525ZM3.86674 39.325C4.15665 39.4019 4.46736 39.4088 4.79886 39.3456L4.87536 39.331C5.40661 39.2298 5.8066 39.0061 6.07535 38.6598C6.34157 38.3118 6.43115 37.9093 6.3441 37.4524C6.28702 37.1528 6.16396 36.8999 5.97492 36.6937C5.78589 36.4875 5.54641 36.3459 5.25649 36.269C4.96405 36.1904 4.65101 36.1829 4.31739 36.2464L4.2377 36.2616C3.70645 36.3628 3.30752 36.5864 3.0409 36.9323C2.77215 37.2786 2.6815 37.6812 2.76896 38.1402C2.82564 38.4377 2.95082 38.6902 3.14451 38.8978C3.33567 39.1036 3.57642 39.246 3.86674 39.325ZM5.78725 38.4306C5.56211 38.6937 5.24342 38.8645 4.83117 38.9431L4.76104 38.9564C4.32967 39.0386 3.96073 38.9977 3.65421 38.8337C3.34557 38.6701 3.15886 38.4183 3.09408 38.0783C3.05076 37.8509 3.07286 37.6375 3.16038 37.438C3.24578 37.239 3.3886 37.0697 3.58885 36.9303C3.7891 36.7908 4.02097 36.696 4.28447 36.6458L4.35778 36.6318C4.79128 36.5492 5.16129 36.5899 5.46781 36.754C5.77179 36.9163 5.95658 37.1695 6.02217 37.5138C6.08816 37.8602 6.00986 38.1658 5.78725 38.4306ZM7.67771 46.5165C8.14401 46.23 8.5779 46.1056 8.97935 46.1433C9.37897 46.1821 9.68523 46.3748 9.89813 46.7213C10.1495 47.1305 10.1983 47.5321 10.0444 47.9263L11.5705 46.9886L11.7726 47.3176L7.63119 49.8622L7.44263 49.5554L7.85543 49.2789C7.40407 49.2591 7.05269 49.0447 6.80128 48.6355C6.58159 48.278 6.54492 47.9146 6.69128 47.5454C6.83652 47.1743 7.14966 46.841 7.63071 46.5454L7.67771 46.5165ZM7.82349 46.884C7.44197 47.1184 7.18875 47.3819 7.06384 47.6744C6.93893 47.967 6.96254 48.2534 7.13467 48.5335C7.25925 48.7363 7.41511 48.8804 7.60225 48.966C7.7894 49.0516 7.99984 49.0759 8.23355 49.0389L9.66841 48.1573C9.79112 47.9727 9.85234 47.779 9.85205 47.576C9.85177 47.3731 9.78991 47.1712 9.66647 46.9703C9.49546 46.692 9.25181 46.5433 8.93551 46.5244C8.61624 46.5048 8.24556 46.6246 7.82349 46.884ZM11.0399 53.5629L10.1595 52.6358L9.91953 52.8637L11.9147 54.965L12.1548 54.7371L11.308 53.8453L13.614 51.6557L13.3458 51.3733L11.0399 53.5629ZM16.7612 54.5045L17.082 54.7252L16.1696 56.0511L17.728 57.1235L18.6404 55.7976L18.9611 56.0184L16.9708 58.9106L16.65 58.6899L17.5422 57.3935L15.9838 56.321L15.0917 57.6175L14.7709 57.3967L16.7612 54.5045ZM23.8937 58.5949C23.7245 58.3676 23.5015 58.1978 23.2248 58.0857C22.7216 57.8817 22.2601 57.9176 21.8403 58.1932L21.9963 58.456C22.1792 58.3504 22.359 58.2926 22.5358 58.2826C22.7106 58.2717 22.8942 58.3053 23.0867 58.3833C23.4075 58.5134 23.6245 58.7437 23.7379 59.0744C23.8484 59.4064 23.8289 59.7568 23.6794 60.1256L23.6514 60.1948L21.3298 59.2538L21.2482 59.4552C21.0588 59.9223 21.026 60.3374 21.1496 60.7003C21.2705 61.0644 21.5284 61.3265 21.9233 61.4865C22.1759 61.5889 22.4397 61.6119 22.7148 61.5553C22.989 61.5007 23.238 61.3729 23.4619 61.1719C23.6837 60.97 23.8581 60.7127 23.9848 60.4L24.0373 60.2707C24.16 59.968 24.2087 59.6691 24.1836 59.3742C24.1576 59.0812 24.061 58.8215 23.8937 58.5949ZM22.854 61.16C22.5871 61.2829 22.3183 61.2895 22.0476 61.1798C21.775 61.0693 21.5943 60.8817 21.5055 60.6169C21.4168 60.3522 21.4308 60.0614 21.5475 59.7446L21.5634 59.7055L23.515 60.4967C23.3392 60.8152 23.1188 61.0363 22.854 61.16ZM29.9216 63.5063L30.3061 63.5677L30.8601 60.1008L28.2518 59.6841L28.4162 58.6555L28.0637 58.5992L27.8188 59.9468L28.1713 60.0031L27.6691 63.1464L28.0536 63.2078L28.5558 60.0645L30.4238 60.363L29.9216 63.5063ZM42.0761 5.57425L41.6992 5.47645L42.1034 3.91861L40.2723 3.44347L39.8681 5.00131L39.4912 4.90351L40.373 1.50516L40.7499 1.60296L40.3546 3.12625L42.1857 3.60139L42.581 2.0781L42.9579 2.1759L42.0761 5.57425ZM47.5757 5.4543L46.6867 4.97008L47.2966 3.85018L46.9575 3.6655L45.2783 6.74879L46.495 7.41147C46.8427 7.60081 47.1668 7.66155 47.4673 7.59368C47.7708 7.52494 48.0037 7.34145 48.1662 7.04319C48.2717 6.84941 48.3197 6.65507 48.31 6.46016C48.3023 6.26629 48.2343 6.08143 48.1059 5.90559C47.9804 5.72888 47.8037 5.57845 47.5757 5.4543ZM45.7741 6.64566L46.5284 5.26074L47.4374 5.75582C47.6709 5.88792 47.8204 6.05433 47.886 6.25508C47.9545 6.45495 47.9328 6.65748 47.8211 6.86265C47.7042 7.07732 47.5418 7.20812 47.334 7.25504C47.1281 7.30299 46.9026 7.26024 46.6575 7.12677L45.7741 6.64566ZM48.333 8.41249L48.675 8.59873L50.3542 5.51544L50.0123 5.32921L48.333 8.41249ZM53.8897 10.021L55.5513 9.61376L55.8905 9.92565L53.8476 10.3879L53.5522 12.5451L53.2154 12.2354L53.4857 10.465L51.7441 10.8825L51.4073 10.5728L53.53 10.0957L53.8197 8.02139L54.1564 8.33108L53.8897 10.021ZM62.4588 19.4074L62.2843 19.0593L58.8535 18.6591L61.4353 17.3652L61.2623 17.02L58.1235 18.593L58.2965 18.9382L61.7244 19.3399L59.1455 20.6324L59.32 20.9805L62.4588 19.4074ZM61.1537 26.7722L61.0585 26.3946L62.6191 26.0012L62.1567 24.1669L60.5961 24.5603L60.5009 24.1827L63.9053 23.3245L64.0005 23.702L62.4745 24.0867L62.9369 25.9211L64.4629 25.5364L64.5581 25.9139L61.1537 26.7722ZM65.2032 32.7204L65.1918 32.3312L62.2495 30.5218L65.1362 30.437L65.1248 30.0511L61.6155 30.1541L61.6268 30.5401L64.5658 32.3496L61.6824 32.4342L61.6938 32.8234L65.2032 32.7204ZM64.8719 36.9078L64.7956 37.2896L61.6742 36.6655L61.3033 38.5206L64.4247 39.1446L64.3483 39.5265L61.2269 38.9024L61.157 39.2524L59.8199 38.9553L59.8899 38.6053L60.9113 38.8095L61.4291 36.2195L64.8719 36.9078ZM61.827 46.4592L61.9872 46.1043L60.1347 43.189L62.7669 44.3771L62.9257 44.0252L59.7258 42.5807L59.5669 42.9326L61.4164 45.8466L58.7872 44.6598L58.627 45.0147L61.827 46.4592ZM55.5757 49.7052C55.6874 49.74 55.8331 49.8178 56.0129 49.9386C55.9523 49.7233 55.9465 49.5016 55.9954 49.2735C56.0448 49.0484 56.14 48.8414 56.2811 48.6525C56.4831 48.3822 56.7222 48.2193 56.9986 48.1638C57.2737 48.1101 57.5264 48.1693 57.7569 48.3415C58.0307 48.5461 58.1626 48.8214 58.1524 49.1676C58.1409 49.5154 57.9831 49.893 57.6788 50.3002L57.2574 50.8643L57.5771 51.1032C57.7781 51.2534 57.9824 51.3088 58.19 51.2695C58.3981 51.2332 58.5908 51.0963 58.7682 50.8589C58.93 50.6423 59.0085 50.4215 59.0038 50.1965C58.9991 49.9716 58.9187 49.8008 58.7627 49.6843L58.9984 49.3743C59.2219 49.5413 59.3375 49.7897 59.345 50.1193C59.3543 50.4503 59.2456 50.7674 59.0191 51.0707C58.7847 51.3843 58.5214 51.5724 58.229 51.6348C57.9371 51.7002 57.6488 51.6307 57.3642 51.4261L56.0333 50.4318C55.7612 50.2285 55.5362 50.105 55.3583 50.0612L55.3271 50.0379L55.5757 49.7052ZM56.5295 48.8948C56.3741 49.1027 56.2858 49.3257 56.2646 49.5637C56.2421 49.8034 56.2871 50.0233 56.3995 50.2234L57.0182 50.6856L57.4338 50.1294C57.6621 49.8166 57.7862 49.5312 57.806 49.2733C57.8276 49.0167 57.7422 48.8166 57.5499 48.6729C57.3922 48.555 57.218 48.5154 57.0272 48.5538C56.8352 48.5939 56.6693 48.7076 56.5295 48.8948ZM54.1252 55.7691L53.1645 56.6127L53.3829 56.8614L55.5602 54.9494L55.3418 54.7007L54.4178 55.5121L52.3195 53.1227L52.0269 53.3797L54.1252 55.7691ZM48.2789 60.1658L47.9395 60.3566L46.2192 57.296L46.5587 57.1052L47.9721 59.6199L48.2106 56.1768L48.5472 55.9876L50.2674 59.0481L49.9308 59.2373L48.5158 56.7198L48.2789 60.1658ZM44.0809 61.9913L43.062 58.6315L41.6274 59.0666C41.2279 59.1878 40.9439 59.362 40.7755 59.5894C40.6057 59.8195 40.5656 60.0826 40.6554 60.3786C40.7144 60.5732 40.8335 60.7236 41.0126 60.8297C41.1897 60.9365 41.3942 60.9774 41.6262 60.9522C41.4498 61.0713 41.3307 61.2114 41.2688 61.3725C41.2075 61.5358 41.2023 61.7013 41.2532 61.8689C41.3423 62.1629 41.5237 62.3509 41.7972 62.433C42.0714 62.5171 42.4217 62.4945 42.8481 62.3652L44.0809 61.9913ZM42.7866 59.0541L43.1614 60.29L42.0839 60.6167C41.8045 60.7015 41.5725 60.7119 41.3881 60.648C41.2038 60.5841 41.0833 60.459 41.0268 60.2727C40.9653 60.0699 40.9938 59.8917 41.1122 59.7382C41.2307 59.5847 41.4297 59.4656 41.7091 59.3809L42.7866 59.0541ZM42.3147 60.8858L43.2556 60.6005L43.6153 61.7867L42.7521 62.0485C42.4374 62.1439 42.1859 62.1682 41.9977 62.1213C41.8079 62.0771 41.682 61.9525 41.6199 61.7476C41.5018 61.3584 41.7335 61.0711 42.3147 60.8858ZM18.9501 29.1941L20.8035 33.8199L22.657 29.1941H23.6265V34.8635H22.8789V32.6557L22.949 30.2727L21.0878 34.8635H20.5154L18.658 30.2844L18.732 32.6557V34.8635H17.9844V29.1941H18.9501ZM29.3037 34.8635H28.5522V32.2429H25.6941V34.8635H24.9465V29.1941H25.6941V31.6316H28.5522V29.1941H29.3037V34.8635ZM33.836 32.2429H31.379V34.2521H34.2332V34.8635H30.6314V29.1941H34.1943V29.8093H31.379V31.6316H33.836V32.2429ZM39.521 34.8635H38.7695V32.2429H35.9114V34.8635H35.1638V29.1941H35.9114V31.6316H38.7695V29.1941H39.521V34.8635ZM44.4233 29.1941H45.1709V34.8635H44.4233V30.4946L41.6314 34.8635H40.8799V29.1941H41.6314V33.5629L44.4233 29.1941ZM49.7383 32.2429H47.2813V34.2521H50.1354V34.8635H46.5337V29.1941H50.0965V29.8093H47.2813V31.6316H49.7383V32.2429ZM57.4841 32.0943C57.4841 45.3313 46.7534 56.0619 33.5165 56.0619C20.2795 56.0619 9.54883 45.3313 9.54883 32.0943C9.54883 18.8573 20.2795 8.12666 33.5165 8.12666C46.7534 8.12666 57.4841 18.8573 57.4841 32.0943ZM57.6835 32.0943C57.6835 45.4414 46.8635 56.2613 33.5165 56.2613C20.1694 56.2613 9.34947 45.4414 9.34947 32.0943C9.34947 18.7472 20.1694 7.92729 33.5165 7.92729C46.8635 7.92729 57.6835 18.7472 57.6835 32.0943Z" fill="black"/>
</svg>
