<svg width="395" height="190" fill="none" xmlns="http://www.w3.org/2000/svg"><path fill-rule="evenodd" clip-rule="evenodd" d="M264.5 51.33c-2.5 4.333-18.5 26.5-23.5 30.5-4.028 3.222-7.797 6.473-12.668 11.892l-.332-.393c-.507-.5-1.518-3.5-1.5-11.5.012-5.399 1.9-9.3 9.5-18.5.413-.499.949-1.113 1.602-1.86 3.091-3.541 8.803-10.081 16.398-21.64.5.334 1.2 2.6 0 9-.333 1.667-.5 5 1.5 5 1.5 0 3.4-1.4 5-11 .044-.263.088-.642.147-1.15.208-1.804.605-5.233 1.853-10.85.481-2.165 1.786-4.87 4-7.5 2.667-3.166 8.9-10.4 14.5-14 1.288-.828 2.105-1.29 2.5-.5.5 1 1.239 21.153-4.5 35.5-1.761 4.404-8.421 11.42-12.5 15.5-1 1-2.2 3.1-1 3.5.7.234 2.163.053 3.931-.165 2.019-.25 4.436-.548 6.569-.335-.666 1.667-3.3 5.9-8.5 9.5-4.333 2.667-12 9.5-20 17l-.022.021c-2.143 2.01-6.803 6.378-13.978 5.98l-2.5 3.5c2.332.776 6.751 1.756 13.5-1.684l10 34.683c.4 1.6-.5 2.333-1 2.5l-62.5 21.5c-10.8 4.4-11.5 9.5-10 11 .6.6 1.597.75 2.741.922 2.673.403 6.151.927 7.259 7.578.8 4.8-1.833 9.167-3.5 10-5.2.4-8.833-2.5-10-4-4.682-6.02-7.697-22.232-9.755-33.297-.676-3.64-1.25-6.723-1.745-8.703-3.128-7.149-7.129-12.864-10.052-17.038-2.311-3.3-3.948-5.638-3.948-6.962 0-1.227 2.887-4.462 5.195-7.049 1.453-1.629 2.676-3 2.805-3.451 1.2-2-.5-2.833-1.5-3h-11c-1.2-.4-1.5-1.833-1.5-2.5-.516-4.907-2.409-8.688-4.654-13.174-1.232-2.462-2.571-5.137-3.846-8.326-2.158-5.396-4.272-11.783-6.219-17.662-2.202-6.651-4.189-12.653-5.781-15.838-1.72-3.44-5.569-6.403-7.877-8.18-.739-.57-1.32-1.017-1.623-1.32-1.5-1.5 2.667-2.5 3.5-2.5 30.4-6 70-19.5 86-25.5 4.5-1.687 12.5-2 14 1.5l6.5 18c1.5 5-2.5 12.667-5.5 16.5-2 2-.833 2.5 0 2.5l2.394-.267c5.482-.613 7.872-.88 8.606-.733 1.197.479 1.592 2.56 2.062 5.04.512 2.702 1.114 5.875 2.938 7.96l3-3.5c-1.6-7.2-4.333-11.333-5.5-12.5-.8-.4-6.666.5-9.5 1-1.2-.4-.833-1.5-.5-2 1.2-2 3.834-4.166 5-5 3.2-2.4 3.334-5.333 3-6.5l-7-21c-6-13.5-29.5-3.5-37.5.5-33.483 11.415-55.706 17.4-67.715 20.635-6.928 1.866-10.456 2.816-10.785 3.365-1.228 2.047 1.232 3.089 3.261 3.948.449.19.877.371 1.239.552 2.15 1.075 4.223 2.179 6.5 4 2.5 2 5.308 8.5 6 11.5.104.448.25 1.094.421 1.852.656 2.91 1.683 7.458 2.079 8.648l3 10.5c1.416 4.72 3.872 10.593 6.106 15.933 2.498 5.972 4.718 11.279 4.894 13.567 0 2.8 3.333 3.167 5 3l6.5-1c2.4 0 1 1.667 0 2.5-6.4 5.2-5.667 9.167-4.5 10.5 10.8 15.6 14.833 33.167 15.5 40 1.2 21.2 12.167 29.167 17.5 30.5 5.6 1.2 14-1.5 17.5-3 66.4-22 81-33 81-36.5-.099-.596-.218-1.409-.357-2.356-.56-3.823-1.441-9.839-2.643-12.644-.704-1.644-4-5-6.5-5-2.8-.4-8.5 1.5-11 2.5-1.6 0-2-1-2.5-3l-9.5-32.5-4 1.317c.488-.249.988-.52 1.5-.817 2-1.158 5-3.3 9-8.5 2.167-3 8.2-9.9 15-13.5 2.167-1.333 7.4-6.1 11-14.5-.738 0-2 .155-3.333.32-2.279.28-4.762.585-5.167.18-.166-.166-.2-1.1 1-1.5 3.289-1.096 10.5-10.3 12.5-29.5.34-3.258.7-12.5-.5-22.5-.166-1-1.2-2.5-4-.5-4.833 3-14.8 9.8-20 19-1 1.77-3 8.5-3 12.5 0 1.5-1 2.2-1 1-.166-1-1.1-3.3-3.5-4.5-1.495 1.827-3.859 5.186-6.474 8.9-2.632 3.74-5.518 7.84-8.026 11.1-1.074 1.396-2.312 2.86-3.61 4.394-4.181 4.944-8.982 10.62-10.89 17.106-1.47 5-2.104 14 1.478 20-4.838 5.61-10.791 13.356-18.978 25 0 .5.6 1.2 3 0l2-2c.834-.667 3-2 5-2 .334 0 1.1-.2 1.5-1 2.334-5.167 11.5-19.7 19.5-26.5 8.346-6.77 24.665-24.937 36.5-55.534.275-.805.4-1.143.489-1.38.072-.196.12-.323.204-.586.104-.339.24-.66.358-.937.229-.54.385-.91.093-.91L264.5 51.33zM149 58.83c38-13.6 57.5-18.5 55.5-17-33.2 11.6-56.5 18-55.5 17zm37.5-1c-.353.117-.722.241-1.112.372-4.577 1.538-12.076 4.06-31.888 9.127-1.5.384 14.4-2.1 22-4.5 4.5-1.333 13.6-4.3 32-11.5 2-.782-18.454 5.652-21 6.5zm-30 21c22.4-8.4 55.95-20.5 53-19-23.6 12-56 20.5-53 19zm7 9c19.5-9 52-19.491 47.5-17.5-20.8 9.2-50.352 18.816-47.5 17.5zm5.5 9c20.5-8.5 44-15.5 39.5-14-13.6 7.2-43.631 15.712-39.5 14zm3.5 9.999c16.5-3 35.5-12 32-11-11.005 3.872-19.923 6.803-25.606 8.671l-.002.001h-.002c-5.468 1.798-7.939 2.61-6.39 2.328zm0 11c-3 0 28-10.5 25-8.5l-12.5 4.5-6 2-6.5 2z" fill="#000"/><path d="M241 81.83l-.312-.391.312.39zm23.5-30.5l.433.25.006-.011-.439-.24zm-36.168 42.392l-.381.323.37.437.383-.426-.372-.334zm-.332-.393l.382-.323-.015-.017-.016-.016-.351.356zm-1.5-11.5l.5.001h-.5zm9.5-18.5l.386.319-.386-.319zm1.602-1.86l-.377-.33.377.33zM254 39.828l.278-.416-.419-.28-.277.422.418.274zm0 9l.491.098.001-.006-.492-.092zm6.5-6l.493.082-.493-.082zm.147-1.15l-.497-.058.497.057zm1.853-10.85l.488.109-.488-.109zm4-7.5l-.382-.322.382.322zm14.5-14l-.27-.42.27.42zm2.5-.5l.447-.223-.447.223zm-4.5 35.5l-.464-.185.464.185zm-12.5 15.5l.354.354-.354-.354zm-1 3.5l-.158.474.158-.474zm3.931-.165l.062.496-.062-.496zm6.569-.335l.464.186.247-.617-.661-.066-.05.497zm-8.5 9.5l.262.426.012-.007.011-.008-.285-.41zm-20 17l-.342-.365.342.365zm-.022.021l.342.365-.342-.365zM233.5 95.33l.028-.5-.275-.015-.16.224.407.29zm-2.5 3.5l-.407-.291-.393.55.642.215.158-.475zm13.5-1.684l-.227-.445.227.445zm10 34.683l.485-.121-.002-.009-.002-.008-.481.138zm-1 2.5l-.158-.474-.004.001.162.473zm-62.5 21.5l-.162-.473-.014.005-.012.005.188.463zm-10 11l.354-.353-.354.353zm2.741.922l-.074.495.074-.495zm7.259 7.578l-.493.082.493-.082zm-3.5 10l.039.499.097-.008.088-.044-.224-.447zm-10-4l.395-.307-.395.307zm-9.755-33.297l.492-.091-.492.091zM166 139.329l.485-.121-.01-.041-.017-.038-.458.2zm-10.052-17.038l.409-.287-.409.287zm1.247-14.011l-.374-.333.374.333zm2.805-3.451l-.429-.257-.033.056-.019.064.481.137zm-1.5-3l.082-.493-.04-.007h-.042v.5zm-11 0l-.158.474.077.026h.081v-.5zm-1.5-2.5h.5v-.026l-.003-.026-.497.052zm-4.654-13.174l.447-.224-.447.224zm-3.846-8.326l-.464.186.464-.186zm-6.219-17.662l-.474.157.474-.157zm-13.658-24.019l-.305.397.305-.397zM116 34.83l-.353.354.353-.354zm3.5-2.5v.5h.049l.048-.01-.097-.49zm100-24l.47-.17-.005-.013-.005-.014-.46.197zm6.5 18l.479-.143-.004-.014-.004-.013-.471.17zm-5.5 16.5l.354.354.021-.022.019-.024-.394-.308zm0 2.5v.5h.028l.028-.003-.056-.497zm2.394-.267l-.056-.497.056.497zm8.606-.733l.186-.464-.042-.017-.045-.01-.099.491zm2.062 5.04l.491-.093-.491.094zm2.938 7.96l-.376.33.38.434.376-.439-.38-.325zm3-3.5l.38.325.163-.19-.054-.243-.489.108zm-5.5-12.5l.354-.353-.057-.058-.073-.036-.224.447zm-9.5 1l-.158.474.121.04.124-.022-.087-.492zm-.5-2l.416.277.007-.01.006-.01-.429-.257zm5-5l.291.407.009-.007-.3-.4zm3-6.5l.481-.137-.003-.01-.003-.011-.475.158zm-7-21l.475-.158-.008-.023-.01-.022-.457.203zm-37.5.5l.162.473.032-.01.03-.016-.224-.447zm-67.715 20.635l-.13-.483.13.483zM109 32.33l-.429-.257.429.257zm3.261 3.948l-.195.46.195-.46zm1.239.552l.224-.447-.224.447zm6.5 4l-.312.39.312-.39zm6 11.5l.488-.112-.488.112zm.421 1.852l.487-.11-.487.11zm2.079 8.648l.481-.137-.003-.01-.004-.01-.474.157zm3 10.5l-.481.138.002.006.479-.144zm6.106 15.933l-.461.193.461-.193zm4.894 13.567h.5v-.019l-.001-.019-.499.038zm5 3l.05.498.013-.002.013-.002-.076-.494zm6.5-1v-.5h-.038l-.038.006.076.494zm0 2.5l.315.388.005-.004-.32-.384zm-4.5 10.5l.411-.284-.016-.024-.019-.021-.376.329zm15.5 40l.499-.028v-.01l-.001-.01-.498.048zm17.5 30.5l-.121.485.008.002.008.002.105-.489zm17.5-3l-.157-.474-.02.006-.02.009.197.459zm81-36.5h.5v-.041l-.006-.041-.494.082zm-.357-2.356l-.494.072.494-.072zM278 133.829l.46-.197-.46.197zm-6.5-5l-.07.495.035.005h.035v-.5zm-11 2.5v.5h.097l.089-.036-.186-.464zm-2.5-3l.486-.121-.003-.01-.003-.009-.48.14zm-9.5-32.5l.48-.14-.145-.496-.491.161.156.475zm-2.5.5l.251.433-.251-.433zm9-8.5l.397.305.004-.006.005-.006-.406-.293zm15-13.5l.234.442.014-.008.014-.008-.262-.426zm11-14.5l.46.197.298-.697H281v.5zm-3.333.32l.061.495-.061-.496zm-5.167.18l.354-.353-.354.353zm1-1.5l-.158-.474.158.474zm12.5-29.5l.498.052-.498-.052zm-.5-22.5l.497-.06-.002-.01-.002-.012-.493.082zm-4-.5l.264.425.014-.009.013-.009-.291-.407zm-20 19l.436.246-.436-.246zm-4 13.5h.5v-.041l-.007-.041-.493.082zm-3.5-4.5l.224-.447-.358-.179-.253.31.387.316zm-6.474 8.9l.409.288-.409-.287zm-8.026 11.1l-.396-.305.396.305zm-3.61 4.394l-.381-.323.381.323zM225 75.83l.48.141-.48-.14zm1.478 20l.379.327.235-.274-.185-.31-.429.257zm-18.978 25l-.409-.287-.091.129v.158h.5zm3 0l.224.447.072-.036.058-.057-.354-.354zm2-2l-.312-.39-.022.017-.019.02.353.353zm6.5-3l.447.224.005-.009.004-.009-.456-.206zm19.5-26.5l-.315-.388-.009.007.324.381zM275 33.795l.467.18.003-.01.003-.009-.473-.161zm.489-1.38l-.469-.175.469.174zm.204-.586l.476.152.001-.005-.477-.147zm.358-.937l.46.195-.46-.195zm.093-.91v-.5h-.297l-.142.26.439.24zM149 58.83l-.168-.47-.106.037-.079.08.353.353zm55.5-17l.165.472.073-.025.062-.047-.3-.4zm-19.112 16.373l.159.474-.159-.474zm1.112-.373l.158.474-.158-.474zm-33 9.5l.124.485-.124-.485zm22-4.5l-.142-.48-.009.003.151.477zm32-11.5l-.182-.465.182.465zm-51 27.5l-.175-.468-.025.01-.023.01.223.448zm53-19l-.226-.446.226.446zm-46 28l-.209-.454.209.454zm47.5-17.5l.202.457-.202-.457zm-42 26.5l-.191-.462.191.462zm39.5-14l-.158-.474-.039.013-.037.02.234.441zm-4 13l-.137-.48-.015.004-.014.005.166.471zm-32 11l.089.492-.089-.492zm6.394-2.329l-.156-.475-.002.001.158.474zm-.002.001l.149.477.01-.003-.159-.474zm0 0l.143.479.005-.002-.148-.477zm0 0l-.144-.479-.007.002-.008.003.159.474zm-.002 0l-.158-.474-.008.003.166.471zm0 0l.156.476.011-.004-.167-.472zm18.61 4.828l.17.471.057-.021.051-.034-.278-.416zm-25 8.5v.5h.075l.072-.022-.147-.478zm12.5-4l.158.475.011-.004-.169-.471zm-6 2l.147.478.011-.004-.158-.474zm62.313-33.61c1.296-1.036 3.264-3.21 5.502-5.915 2.249-2.716 4.801-6.005 7.273-9.3 4.935-6.58 9.578-13.228 10.845-15.425l-.866-.5c-1.233 2.137-5.84 8.74-10.779 15.325-2.466 3.288-5.008 6.563-7.243 9.263-2.246 2.712-4.153 4.808-5.357 5.772l.625.78zm-12.609 11.837c4.847-5.393 8.595-8.625 12.609-11.836l-.625-.781c-4.043 3.234-7.834 6.504-12.727 11.948l.743.669zm-1.085-.404l.332.393.763-.647-.332-.392-.763.646zM226 81.828c-.009 4.019.24 6.8.561 8.649.16.924.339 1.624.516 2.134.169.487.358.863.572 1.074l.702-.712c-.039-.039-.167-.225-.329-.69-.155-.445-.322-1.088-.476-1.977-.307-1.775-.555-4.495-.546-8.476l-1-.002zm9.615-18.817c-7.609 9.21-9.602 13.23-9.615 18.817l1 .002c.012-5.21 1.794-8.992 9.386-18.182l-.771-.637zm1.61-1.872c-.651.746-1.193 1.366-1.61 1.872l.771.637c.407-.493.938-1.101 1.592-1.85l-.753-.659zm16.357-21.584c-7.578 11.531-13.273 18.053-16.357 21.584l.753.658c3.099-3.548 8.827-10.108 16.44-21.693l-.836-.55zm.91 9.366c.604-3.223.736-5.434.645-6.898-.046-.731-.147-1.29-.282-1.702-.126-.387-.308-.728-.577-.908l-.555.832c-.02-.013.073.054.182.386.1.307.192.777.234 1.454.084 1.353-.035 3.476-.63 6.652l.983.184zm1.008 4.408a.85.85 0 01-.728-.352c-.189-.244-.326-.62-.403-1.102-.154-.96-.039-2.145.122-2.948l-.981-.196c-.173.864-.308 2.18-.128 3.302.089.56.264 1.122.597 1.554.35.455.857.742 1.521.742v-1zm4.507-10.582c-.798 4.787-1.662 7.467-2.481 8.939-.407.731-.788 1.137-1.118 1.36-.32.219-.62.283-.908.283v1c.462 0 .963-.11 1.47-.455.498-.338.974-.883 1.43-1.702.905-1.627 1.791-4.448 2.593-9.26l-.986-.165zm.143-1.126c-.059.514-.102.878-.143 1.126l.986.164c.047-.278.092-.673.15-1.175l-.993-.115zm1.862-10.9c-1.253 5.64-1.652 9.087-1.862 10.9l.993.115c.208-1.795.602-5.205 1.845-10.798l-.976-.217zm4.106-7.714c-2.257 2.68-3.604 5.457-4.106 7.714l.976.217c.461-2.074 1.723-4.708 3.895-7.287l-.765-.644zM280.73 8.91c-5.675 3.647-11.955 10.942-14.612 14.098l.765.644c2.676-3.177 8.862-10.349 14.388-13.901l-.541-.841zm3.217-.303c-.139-.28-.35-.51-.654-.619-.29-.104-.587-.07-.847.005-.5.145-1.092.515-1.716.917l.541.84c.663-.426 1.123-.7 1.453-.796.155-.045.217-.03.231-.025 0 0 .04.01.098.125l.894-.447zm-4.483 35.909c2.898-7.244 4.153-15.929 4.625-22.907.236-3.494.276-6.57.226-8.839a46.285 46.285 0 00-.131-2.758 13.1 13.1 0 00-.095-.851 3.49 3.49 0 00-.055-.296 1.155 1.155 0 00-.087-.258l-.894.447c-.012-.023-.006-.02.008.04.012.05.025.122.04.218.029.19.059.453.087.784.055.662.102 1.576.127 2.696.05 2.24.01 5.286-.224 8.75-.469 6.934-1.714 15.5-4.555 22.603l.928.37zm-12.61 15.668c2.043-2.044 4.739-4.828 7.146-7.658 2.395-2.815 4.55-5.724 5.464-8.01l-.928-.371c-.847 2.118-2.903 4.919-5.298 7.733-2.382 2.8-5.056 5.563-7.091 7.599l.707.707zm-1.196 2.672a.24.24 0 01-.114-.067.213.213 0 01-.04-.109c-.021-.14.012-.374.137-.692.245-.625.752-1.344 1.213-1.804l-.707-.707c-.54.539-1.133 1.37-1.437 2.145-.15.382-.255.811-.195 1.208.031.206.109.414.256.593.148.18.344.306.571.382l.316-.95zm3.712-.188c-.889.11-1.68.208-2.337.25-.676.043-1.127.02-1.375-.062l-.316.949c.453.15 1.083.154 1.755.11.692-.044 1.516-.146 2.396-.254l-.123-.993zm6.68-.335c-2.199-.22-4.673.088-6.68.335l.123.993c2.031-.251 4.391-.54 6.457-.333l.1-.995zm-8.265 10.408c5.276-3.652 7.974-7.962 8.679-9.725l-.928-.371c-.628 1.57-3.196 5.727-8.32 9.274l.569.822zm-19.943 16.954c8.013-7.512 15.639-14.305 19.92-16.939l-.524-.852c-4.386 2.7-12.092 9.573-20.08 17.061l.684.73zm-.022.02l.022-.02-.684-.73-.022.021.684.73zm-14.348 6.114c7.405.412 12.204-4.103 14.348-6.113l-.684-.73c-2.142 2.009-6.662 6.23-13.608 5.845l-.056.998zm-2.065 3.292l2.5-3.5-.814-.582-2.5 3.5.814.582zm12.866-2.42c-6.608 3.369-10.885 2.398-13.115 1.655l-.316.948c2.433.812 6.994 1.801 13.885-1.712l-.454-.89zm10.708 34.991l-10-34.684-.961.278 10 34.683.961-.277zm-1.323 3.112a2.106 2.106 0 001.111-.933c.312-.531.444-1.251.216-2.162l-.97.242c.172.689.055 1.136-.108 1.413a1.12 1.12 0 01-.565.492l.316.948zm-62.495 21.499l62.5-21.5-.325-.946-62.5 21.5.325.946zm-9.809 10.174c-.509-.509-.822-1.868.45-3.783 1.26-1.896 4.033-4.22 9.385-6.401l-.377-.926c-5.448 2.22-8.426 4.645-9.841 6.774-1.402 2.11-1.315 4.051-.324 5.043l.707-.707zm2.462.781c-.581-.088-1.082-.164-1.511-.287-.427-.122-.735-.279-.951-.494l-.707.707c.384.384.874.602 1.382.748.504.145 1.074.23 1.638.315l.149-.989zm7.677 7.99c-.568-3.408-1.759-5.336-3.235-6.449-1.457-1.1-3.119-1.342-4.442-1.541l-.149.989c1.349.203 2.762.424 3.989 1.35 1.209.912 2.31 2.572 2.851 5.815l.986-.164zm-3.769 10.529c.51-.255 1.042-.748 1.533-1.379.498-.638.979-1.45 1.378-2.384.797-1.866 1.277-4.255.858-6.766l-.986.164c.381 2.289-.055 4.484-.792 6.209a9.857 9.857 0 01-1.247 2.163c-.446.573-.869.938-1.191 1.099l.447.894zm-10.618-4.14c1.244 1.6 5.028 4.607 10.433 4.192l-.077-.997c-4.995.384-8.478-2.409-9.567-3.809l-.789.614zm-9.852-33.513c1.028 5.53 2.299 12.366 3.901 18.574 1.594 6.182 3.538 11.837 5.951 14.939l.789-.614c-2.27-2.918-4.174-8.379-5.772-14.574-1.591-6.169-2.857-12.972-3.886-18.507l-.983.182zm-1.739-8.673c.49 1.962 1.061 5.026 1.739 8.673l.983-.182c-.675-3.633-1.252-6.734-1.752-8.733l-.97.242zm-9.977-16.873c2.924 4.176 6.898 9.854 10.004 16.953l.916-.401c-3.15-7.2-7.178-12.951-10.101-17.125l-.819.573zm-4.038-7.248c0 .426.13.891.33 1.374.203.489.494 1.032.849 1.624.709 1.18 1.708 2.606 2.859 4.25l.819-.573c-1.159-1.655-2.134-3.048-2.821-4.192-.343-.571-.606-1.067-.782-1.492-.179-.43-.254-.754-.254-.991h-1zm5.321-7.382c-1.151 1.29-2.461 2.758-3.482 4.058-.511.65-.959 1.27-1.282 1.813a5.575 5.575 0 00-.393.778c-.095.239-.164.49-.164.733h1c0-.064.021-.182.094-.365a4.6 4.6 0 01.323-.635c.291-.489.708-1.07 1.208-1.706.999-1.27 2.286-2.714 3.443-4.01l-.747-.666zm2.698-3.255c.001-.002-.008.027-.049.097a3.335 3.335 0 01-.165.25c-.145.202-.346.456-.595.753a92.33 92.33 0 01-1.889 2.155l.747.666c.724-.812 1.4-1.569 1.91-2.179.255-.305.474-.581.64-.814.153-.213.304-.447.363-.653l-.962-.275zm-1.101-2.37c.443.074.982.291 1.273.64a.91.91 0 01.222.587c.004.243-.075.579-.342 1.023l.858.514c.333-.555.492-1.074.484-1.555a1.913 1.913 0 00-.454-1.21c-.509-.609-1.32-.892-1.877-.985l-.164.986zm-10.918.007h11v-1h-11v1zm-2-3c0 .393.086.991.346 1.558.261.572.724 1.159 1.496 1.416l.316-.948c-.427-.143-.715-.473-.903-.884a2.927 2.927 0 01-.255-1.142h-1zm-4.601-12.95c2.25 4.495 4.098 8.199 4.604 13.002l.994-.104c-.527-5.01-2.463-8.869-4.704-13.346l-.894.448zm-3.863-8.364c1.284 3.21 2.631 5.902 3.863 8.364l.894-.448c-1.232-2.463-2.562-5.12-3.829-8.287l-.928.37zm-6.229-17.691c1.945 5.876 4.064 12.278 6.229 17.69l.928-.37c-2.151-5.38-4.26-11.751-6.208-17.634l-.949.314zm-5.754-15.771c1.572 3.144 3.545 9.1 5.754 15.771l.949-.314c-2.195-6.631-4.196-12.679-5.809-15.904l-.894.447zm-7.735-8.008c1.156.89 2.675 2.06 4.12 3.433 1.447 1.376 2.792 2.93 3.615 4.575l.894-.447c-.897-1.795-2.336-3.443-3.82-4.853-1.487-1.413-3.046-2.613-4.199-3.5l-.61.792zm-1.671-1.362c.331.331.947.804 1.671 1.362l.61-.793c-.754-.58-1.301-1.003-1.574-1.276l-.707.707zm3.853-3.354c-.27 0-.733.075-1.227.194a9.189 9.189 0 00-1.605.539c-.494.225-1.018.54-1.293.976-.149.235-.234.52-.182.834.05.305.218.575.454.81l.707-.706c-.139-.14-.169-.23-.175-.266-.004-.028-.003-.067.041-.137.11-.174.399-.39.863-.602a8.228 8.228 0 011.425-.476c.476-.115.845-.166.992-.166v-1zm85.825-25.468c-15.992 5.997-55.562 19.486-85.922 25.478l.194.98c30.441-6.007 70.071-19.519 86.079-25.522l-.351-.936zm14.635 1.771c-.444-1.034-1.35-1.745-2.453-2.212-1.102-.466-2.446-.71-3.855-.785-2.817-.152-6.011.357-8.327 1.226l.351.936c2.183-.818 5.239-1.309 7.922-1.164 1.341.073 2.56.302 3.52.708.96.407 1.616.97 1.922 1.685l.92-.394zm6.511 18.027l-6.501-18-.94.34 6.5 18 .941-.34zm-5.577 16.978c1.528-1.952 3.303-4.868 4.509-7.937 1.199-3.05 1.876-6.35 1.076-9.015l-.957.288c.7 2.335.126 5.37-1.05 8.36-1.168 2.973-2.893 5.806-4.365 7.688l.787.616zm-.394 1.692a1.26 1.26 0 01-.447-.074c-.12-.047-.144-.094-.149-.107-.005-.012-.039-.11.086-.367.124-.257.383-.618.864-1.098l-.707-.707c-.519.519-.864.97-1.058 1.37-.193.4-.258.801-.117 1.164.141.362.439.566.71.674.271.108.567.145.818.145v-1zm2.338-.264l-2.393.267.111.994 2.394-.267-.112-.994zm8.761-.726c-.245-.05-.582-.057-.999-.043-.427.014-.977.054-1.668.117-1.381.126-3.355.346-6.094.652l.112.994c2.743-.307 4.705-.526 6.073-.65a29.81 29.81 0 011.611-.114c.409-.014.646 0 .768.024l.197-.98zm2.454 5.438c-.233-1.228-.455-2.409-.777-3.341-.314-.91-.773-1.744-1.59-2.071l-.371.928c.38.152.716.599 1.016 1.469.293.849.502 1.949.74 3.2l.982-.186zM236.877 57c-1.718-1.963-2.305-4.985-2.824-7.724l-.982.187c.505 2.664 1.121 5.988 3.053 8.195l.753-.658zm2.244-3.496l-3 3.5.759.65 3-3.5-.759-.65zm-5.474-11.821c1.08 1.08 3.779 5.117 5.365 12.255l.977-.217c-1.614-7.262-4.382-11.492-5.635-12.745l-.707.707zm-9.06 1.139c1.412-.25 3.578-.598 5.487-.834a37.247 37.247 0 012.528-.242c.346-.018.632-.021.851-.01.243.013.327.042.324.04l.447-.894c-.203-.101-.478-.132-.719-.145a9.61 9.61 0 00-.953.01c-.725.037-1.635.13-2.6.248-1.932.24-4.116.59-5.538.842l.173.984zm-1.003-2.77c-.199.298-.431.803-.408 1.336.012.279.095.573.298.836.202.261.495.455.868.58l.317-.95c-.227-.075-.338-.169-.394-.242a.45.45 0 01-.09-.267c-.01-.242.107-.537.241-.739l-.832-.554zm5.126-5.13a26.316 26.316 0 00-2.539 2.105c-.967.907-1.964 1.986-2.599 3.045l.857.514c.565-.94 1.484-1.945 2.426-2.83.937-.88 1.87-1.616 2.436-2.02l-.581-.814zm2.81-5.955c.277.97.212 3.688-2.82 5.962l.6.8c3.369-2.526 3.571-5.674 3.181-7.037l-.961.274zm-6.994-20.98l7 21 .949-.316-7-21-.949.316zm-36.802.79c3.986-1.994 11.809-5.468 19.361-6.768 3.777-.65 7.443-.748 10.513.122 3.049.863 5.514 2.68 6.946 5.901l.913-.406c-1.568-3.529-4.291-5.524-7.586-6.458-3.274-.927-7.108-.806-10.956-.144-7.697 1.325-15.624 4.851-19.638 6.858l.447.894zm-67.809 20.67c12.014-3.236 34.249-9.225 67.747-20.645l-.323-.946c-33.468 11.41-55.68 17.392-67.684 20.625l.26.966zm-10.486 3.14c-.029.047-.035.025.096-.051a4.12 4.12 0 01.512-.238c.463-.187 1.134-.41 2.026-.679 1.78-.537 4.385-1.238 7.852-2.172l-.26-.966c-3.46.932-6.083 1.639-7.881 2.18-.898.271-1.604.505-2.111.71a5.1 5.1 0 00-.64.3c-.152.088-.341.216-.452.4l.858.515zm3.027 3.23c-1.04-.44-2.076-.886-2.718-1.445-.313-.273-.486-.535-.544-.793-.055-.245-.023-.563.235-.993l-.858-.514c-.356.594-.477 1.174-.353 1.726.121.54.459.976.862 1.327.788.688 1.996 1.193 2.986 1.612l.39-.92zm1.268.565c-.379-.19-.823-.377-1.268-.566l-.39.921c.453.192.865.367 1.211.54l.447-.895zm6.588 4.057c-2.318-1.855-4.43-2.978-6.588-4.057l-.447.894c2.14 1.07 4.176 2.155 6.411 3.943l.624-.78zm6.176 11.778c-.358-1.549-1.249-3.96-2.361-6.233-1.102-2.252-2.47-4.47-3.815-5.545l-.624.78c1.154.925 2.441 2.957 3.541 5.205 1.09 2.228 1.949 4.566 2.284 6.017l.975-.224zm.42 1.854c-.171-.757-.317-1.405-.42-1.854l-.975.224c.103.447.249 1.092.42 1.85l.975-.22zm2.066 8.6c-.386-1.16-1.404-5.669-2.066-8.6l-.975.22c.652 2.89 1.686 7.475 2.093 8.696l.948-.316zm3.007 10.52l-3-10.5-.962.276 3 10.5.962-.275zm6.086 15.879c-2.237-5.349-4.681-11.194-6.088-15.884l-.958.287c1.425 4.751 3.894 10.65 6.124 15.982l.922-.385zm4.932 13.721c-.095-1.227-.722-3.192-1.607-5.54-.893-2.37-2.077-5.198-3.325-8.181l-.922.385c1.25 2.989 2.426 5.8 3.311 8.149.894 2.37 1.464 4.203 1.545 5.263l.998-.076zm4.451 2.541c-.784.078-1.946.027-2.888-.354-.465-.188-.854-.447-1.124-.787-.264-.332-.438-.769-.438-1.362h-1c0 .807.243 1.466.656 1.985.406.511.956.859 1.532 1.091 1.141.461 2.479.51 3.362.422l-.1-.995zm6.474-.997l-6.5 1 .152.988 6.5-1-.152-.988zm.396 3.378c.267-.222.563-.502.819-.801.249-.29.492-.635.61-.986.123-.365.134-.844-.264-1.197-.335-.298-.86-.4-1.485-.4v1c.575 0 .775.107.821.147l.005.005c-.002-.004-.002-.006-.002-.003a.296.296 0 01-.023.129c-.057.17-.202.398-.421.655a6.067 6.067 0 01-.7.683l.64.768zm-4.444 9.787c-.461-.527-.914-1.676-.48-3.345.436-1.671 1.77-3.879 4.919-6.438l-.63-.776c-3.251 2.641-4.75 5.017-5.256 6.962-.507 1.948-.011 3.449.695 4.255l.752-.658zm15.622 40.281c-.674-6.901-4.729-24.553-15.587-40.236l-.822.569c10.742 15.517 14.753 32.998 15.413 39.764l.996-.097zm17.123 30.063c-5.079-1.27-15.932-9.015-17.122-30.043l-.998.056c1.21 21.373 12.29 29.56 17.878 30.957l.242-.97zm17.182-2.974c-1.723.738-4.668 1.778-7.873 2.483-3.216.708-6.631 1.064-9.325.487l-.21.978c2.906.623 6.491.229 9.75-.488 3.271-.72 6.276-1.78 8.052-2.541l-.394-.919zm80.697-36.041c0 .273-.149.719-.651 1.364-.494.634-1.289 1.407-2.474 2.327-2.369 1.838-6.235 4.212-12.197 7.174-11.919 5.922-32.144 14.164-65.335 25.161l.315.949c33.209-11.003 53.484-19.262 65.465-25.215 5.988-2.975 9.921-5.383 12.365-7.279 1.221-.948 2.086-1.779 2.65-2.503.555-.713.862-1.376.862-1.978h-1zm-.351-2.284c.138.946.258 1.764.358 2.366l.987-.164c-.099-.59-.217-1.397-.356-2.347l-.989.145zm-2.608-12.519c.577 1.347 1.09 3.503 1.53 5.836.439 2.32.797 4.77 1.078 6.683l.989-.145c-.28-1.91-.641-4.38-1.084-6.724-.44-2.332-.969-4.586-1.594-6.044l-.919.394zm-6.041-4.697c1.062 0 2.393.735 3.599 1.764 1.196 1.02 2.132 2.211 2.442 2.933l.919-.394c-.395-.922-1.459-2.231-2.712-3.3-1.242-1.06-2.809-2.003-4.248-2.003v1zm-10.814 2.464a49.151 49.151 0 015.329-1.755c2.089-.551 4.125-.898 5.415-.714l.141-.99c-1.51-.216-3.724.187-5.81.737a49.918 49.918 0 00-5.446 1.794l.371.928zm-3.171-3.343c.246.984.489 1.831.918 2.423.225.31.505.557.862.722.353.164.754.234 1.205.234v-1c-.349 0-.598-.054-.785-.141a1.186 1.186 0 01-.472-.402c-.297-.409-.503-1.062-.757-2.078l-.971.242zm-9.494-32.48l9.5 32.499.959-.28-9.5-32.5-.959.28zm-3.364 1.651l4-1.317-.313-.95-4 1.317.313.95zm1.093-1.725c-.505.293-.997.56-1.477.805l.454.89a32.702 32.702 0 001.524-.83l-.501-.865zm8.854-8.372c-3.963 5.152-6.914 7.25-8.854 8.372l.501.866c2.059-1.193 5.108-3.38 9.146-8.628l-.793-.61zm15.162-13.637c-6.896 3.651-12.984 10.62-15.171 13.65l.811.585c2.145-2.971 8.125-9.802 14.828-13.351l-.468-.884zm10.775-14.255c-3.563 8.313-8.731 12.996-10.803 14.271l.524.852c2.262-1.392 7.56-6.242 11.198-14.729l-.919-.394zm-2.813 1.013c1.349-.166 2.573-.316 3.272-.316v-1c-.776 0-2.078.161-3.394.323l.122.992zm-5.581.038c.142.142.326.21.468.249.153.041.327.064.506.078.359.026.806.015 1.291-.016.974-.062 2.181-.21 3.316-.35l-.122-.992c-1.144.14-2.319.285-3.257.344-.471.03-.864.038-1.155.016a1.779 1.779 0 01-.319-.046c-.081-.021-.063-.032-.021.01l-.707.707zm1.195-2.328c-.721.24-1.137.669-1.319 1.127-.088.221-.117.44-.104.632.01.162.059.4.228.569l.707-.707c.085.085.067.144.062.072a.463.463 0 01.036-.197c.06-.15.228-.388.706-.547l-.316-.95zm12.161-29.078c-.995 9.548-3.283 16.588-5.715 21.364-1.216 2.389-2.466 4.205-3.602 5.484-1.148 1.292-2.144 1.997-2.844 2.23l.316.949c.945-.315 2.083-1.172 3.275-2.515 1.204-1.354 2.499-3.245 3.746-5.694 2.496-4.9 4.813-12.062 5.819-21.714l-.995-.104zm-.499-22.388c1.195 9.96.835 19.165.499 22.388l.995.104c.342-3.293.703-12.572-.501-22.611l-.993.119zm-3.213-.153c1.349-.964 2.12-.973 2.512-.817.403.16.636.585.704.992l.986-.164c-.098-.592-.465-1.418-1.321-1.758-.866-.344-2.012-.103-3.462.933l.581.814zm-19.855 18.84c5.132-9.082 15-15.825 19.828-18.822l-.527-.85c-4.839 3.004-14.905 9.86-20.172 19.18l.871.491zM259 37.828c0-1.936.488-4.57 1.109-6.96.624-2.4 1.361-4.47 1.827-5.294l-.871-.492c-.535.946-1.298 3.126-1.924 5.534-.628 2.417-1.141 5.148-1.141 7.212h1zm-2 1c0 .181.019.352.064.505a.89.89 0 00.269.437c.16.136.36.189.558.16a.875.875 0 00.433-.208c.213-.182.378-.458.49-.765.115-.316.186-.7.186-1.129h-1c0 .32-.053.587-.126.787-.076.209-.161.313-.198.345-.018.015.004-.01.066-.02a.306.306 0 01.238.068c.053.044.054.079.043.042a.818.818 0 01-.023-.222h-1zm-3.223-4.053c2.22 1.11 3.082 3.248 3.23 4.135l.986-.164c-.185-1.112-1.189-3.575-3.769-4.865l-.447.894zm-5.842 8.741c2.621-3.722 4.972-7.062 6.452-8.871l-.774-.633c-1.509 1.845-3.887 5.223-6.496 8.929l.818.575zm-8.038 11.117c2.516-3.27 5.408-7.38 8.038-11.117l-.818-.575c-2.633 3.742-5.513 7.832-8.013 11.082l.793.61zm-3.625 4.412c1.296-1.532 2.542-3.005 3.625-4.412l-.793-.61c-1.065 1.385-2.296 2.84-3.595 4.376l.763.646zM225.48 75.97c1.873-6.367 6.595-11.962 10.792-16.924l-.763-.646c-4.167 4.926-9.045 10.682-10.988 17.288l.959.282zm1.427 19.603c-1.731-2.9-2.459-6.556-2.563-10.133-.104-3.573.416-7.02 1.136-9.47l-.959-.282c-.751 2.551-1.284 6.104-1.176 9.78.106 3.674.853 7.518 2.704 10.617l.858-.512zm-18.998 25.544c8.183-11.638 14.125-19.369 18.948-24.961l-.758-.653c-4.853 5.627-10.816 13.388-19.008 25.039l.818.575zm2.368-.735c-1.175.587-1.799.649-2.081.594-.126-.025-.165-.068-.174-.079a.105.105 0 01-.022-.068h-1c0 .223.067.475.241.692.178.223.439.373.764.436.618.121 1.494-.068 2.719-.681l-.447-.894zm1.87-1.906l-2 2 .707.707 2-2-.707-.707zm5.353-2.147c-1.102 0-2.219.365-3.148.797-.933.434-1.717.955-2.164 1.313l.625.781a10.235 10.235 0 011.961-1.187c.862-.402 1.828-.704 2.726-.704v-1zm1.053-.723c-.293.586-.854.723-1.053.723v1c.468 0 1.441-.263 1.947-1.276l-.894-.447zm19.623-26.658c-4.049 3.442-8.37 8.817-11.961 13.957-3.591 5.141-6.486 10.095-7.67 12.718l.911.412c1.148-2.543 4.004-7.44 7.579-12.557 3.576-5.118 7.838-10.41 11.789-13.768l-.648-.762zm36.358-55.334c-11.806 30.521-28.075 48.614-36.349 55.327l.63.776c8.417-6.829 24.787-25.068 36.652-55.742l-.933-.36zm.486-1.374c-.09.241-.217.584-.493 1.393l.946.323c.273-.8.397-1.133.484-1.367l-.937-.349zm.196-.563c-.08.252-.124.37-.196.563l.937.349c.074-.199.124-.334.212-.607l-.953-.305zm.374-.98c-.116.274-.262.618-.375.985l.955.294c.096-.31.222-.61.341-.889l-.921-.39zm.554-.215a.3.3 0 01-.127-.032.388.388 0 01-.174-.167.32.32 0 01-.039-.138c-.001-.02.001-.023-.002-.006a1.34 1.34 0 01-.066.204c-.039.1-.087.216-.146.354l.921.39c.104-.246.229-.532.273-.756a.783.783 0 00-.057-.517.64.64 0 00-.583-.332v1zM264.939 51.57l11.644-21.347-.878-.48-11.644 21.348.878.479zm-115.77 7.73c18.993-6.797 33.358-11.418 42.721-14.152 4.684-1.368 8.108-2.261 10.231-2.718 1.072-.23 1.779-.343 2.148-.358.09-.004.14 0 .16.002.051.007-.058.007-.162-.1a.445.445 0 01-.071-.523c.031-.052.054-.059.004-.02l.6.8a.96.96 0 00.253-.265.588.588 0 00.087-.31.553.553 0 00-.159-.381.707.707 0 00-.414-.191 1.94 1.94 0 00-.339-.011c-.464.018-1.248.15-2.317.38-2.159.464-5.61 1.365-10.301 2.735-9.387 2.74-23.771 7.369-42.778 14.171l.337.942zm55.166-17.942c-16.593 5.798-30.71 10.295-40.552 13.218-4.922 1.461-8.77 2.528-11.323 3.166-1.279.32-2.221.529-2.807.627a3.327 3.327 0 01-.538.063c-.013 0-.002-.001.024.005.013.003.113.027.203.124a.47.47 0 01.106.462.39.39 0 01-.094.16l-.707-.706a.607.607 0 00-.153.243.53.53 0 00.118.524c.107.114.234.15.285.163a.885.885 0 00.176.024c.182.008.445-.025.746-.075.627-.106 1.6-.323 2.884-.644 2.572-.643 6.436-1.714 11.365-3.178 9.858-2.927 23.99-7.43 40.597-13.232l-.33-.944zm-18.788 17.319l1.111-.373-.316-.948-1.114.373.319.948zm-31.923 9.138c19.823-5.072 27.335-7.596 31.923-9.138l-.319-.948c-4.565 1.535-12.052 4.052-31.852 9.117l.248.969zm21.725-5.462c-3.767 1.19-9.615 2.406-14.352 3.28a217.87 217.87 0 01-5.837 1c-.699.107-1.219.181-1.515.216a5.2 5.2 0 01-.171.018c-.051.004-.049.002-.025.003a.48.48 0 01.177.05.499.499 0 01.114.812c-.056.05-.109.074-.116.078-.038.017-.056.019 0 .005l-.248-.97c-.037.01-.116.03-.18.061a.503.503 0 00.189.962c.06.004.128-.001.172-.005.056-.004.125-.012.204-.021.316-.037.851-.113 1.552-.221 1.403-.218 3.492-.568 5.865-1.005 4.738-.873 10.64-2.099 14.473-3.309l-.302-.954zm31.969-11.488c-18.392 7.196-27.478 10.158-31.96 11.486l.284.959c4.518-1.34 13.633-4.311 32.04-11.514l-.364-.931zm-20.66 7.44c1.267-.423 7.012-2.242 12.196-3.86 2.59-.808 5.037-1.564 6.711-2.07a93.32 93.32 0 011.844-.543l.215-.057c.063-.016.07-.015.051-.013-.003 0-.04.005-.088 0a.494.494 0 01-.446-.435.5.5 0 01.187-.451c.03-.024.055-.037.057-.038.012-.006-.001 0-.067.026l.364.932c.059-.023.128-.051.179-.079a.554.554 0 00.17-.142.5.5 0 00-.351-.808c-.054-.005-.098 0-.111 0-.06.007-.133.024-.185.037-.064.016-.145.038-.24.064-.38.104-1.03.297-1.868.55a867.724 867.724 0 00-6.72 2.073c-5.181 1.616-10.936 3.439-12.214 3.865l.316.949zm-29.982 20.993c11.197-4.199 25.183-9.323 36-13.21 5.408-1.943 10.023-3.577 13.099-4.63 1.541-.528 2.689-.907 3.357-1.108.167-.05.3-.087.4-.113.11-.029.152-.035.151-.035a.333.333 0 01-.054 0 .491.491 0 01-.416-.66c.041-.11.111-.173.117-.179.031-.029.051-.038.027-.023l-.083.044.453.892c.051-.026.099-.052.14-.076a.863.863 0 00.145-.105.512.512 0 00.153-.515.507.507 0 00-.195-.28c-.122-.087-.247-.094-.27-.096a.667.667 0 00-.109.002 2.127 2.127 0 00-.309.063c-.118.03-.264.072-.437.123-.689.207-1.853.593-3.393 1.12-3.085 1.056-7.705 2.691-13.115 4.635a3030 3030 0 00-36.012 13.215l.351.936zm52.598-19.914c-11.767 5.983-25.739 11.099-36.402 14.533-5.33 1.716-9.827 3.01-12.8 3.78-1.491.387-2.586.638-3.209.747a5.238 5.238 0 01-.358.052c-.107.01-.104 0-.056.011a.418.418 0 01.119.047.48.48 0 01.117.73c-.043.047-.063.044.039-.007l-.447-.894a1.167 1.167 0 00-.32.216.523.523 0 00.277.885c.126.028.271.017.368.007.119-.011.265-.033.432-.062.666-.116 1.795-.376 3.289-.763 2.995-.777 7.511-2.076 12.855-3.797 10.687-3.442 24.715-8.576 36.549-14.593l-.453-.892zm-45.564 28.9c9.728-4.49 22.71-9.356 32.705-12.853 4.997-1.748 9.241-3.152 11.952-3.994 1.361-.423 2.321-.7 2.796-.808.12-.028.192-.04.225-.044.024-.003-.003.003-.051-.004-.016-.002-.103-.012-.196-.075a.488.488 0 01-.097-.728c.025-.028.047-.045.051-.048.01-.007.008-.004-.02.011a3.92 3.92 0 01-.277.132l.404.914a4.74 4.74 0 00.353-.169c.043-.023.093-.052.138-.086a.524.524 0 00.178-.658.524.524 0 00-.406-.284.795.795 0 00-.19.001c-.092.01-.208.034-.336.063-.517.119-1.511.406-2.868.828-2.727.846-6.982 2.254-11.986 4.005-10.005 3.5-23.022 8.379-32.794 12.89l.419.907zm47.088-18.411c-10.383 4.592-22.957 9.291-32.583 12.68-4.813 1.693-8.885 3.057-11.573 3.915-1.347.43-2.339.731-2.903.883a7.65 7.65 0 01-.329.082c-.096.022-.107.019-.078.019.008 0 .055-.001.115.015a.49.49 0 01.34.333.488.488 0 01-.085.447c-.036.046-.071.072-.077.076-.021.016-.01.005.085-.039l-.419-.908a1.582 1.582 0 00-.263.144c-.019.015-.064.05-.107.103-.022.028-.168.21-.091.466a.51.51 0 00.508.363c.094 0 .206-.024.289-.042.1-.023.225-.054.372-.094a77.008 77.008 0 002.947-.895c2.7-.862 6.781-2.23 11.601-3.926 9.636-3.39 22.238-8.1 32.655-12.708l-.404-.914zM169.192 97.29c10.234-4.244 21.222-8.114 29.091-10.737a398.73 398.73 0 018.973-2.887 55.255 55.255 0 011.864-.546c.022-.005.002.001-.033.004-.01 0-.041.002-.081-.002a.88.88 0 01-.103-.022.887.887 0 01-.211-.136.861.861 0 01-.128-.4.886.886 0 01.096-.238.484.484 0 01.115-.11c.045-.031.084-.044.057-.033-.05.02-.204.075-.49.17l.316.95c.277-.093.467-.16.557-.196a.662.662 0 00.124-.065c.011-.008.068-.046.12-.115a.868.868 0 00.097-.239.856.856 0 00-.129-.402.894.894 0 00-.212-.136.54.54 0 00-.196-.024c-.049.003-.097.014-.114.017a3.11 3.11 0 00-.093.023c-.265.068-.906.255-1.849.543-1.895.58-5.055 1.581-8.996 2.895-7.881 2.627-18.893 6.506-29.158 10.762l.383.924zm39.074-14.904c-6.758 3.578-17.629 7.495-26.319 10.309-4.34 1.405-8.124 2.531-10.562 3.198-1.225.336-2.093.55-2.522.629-.109.02-.169.027-.194.029-.02 0 .013-.004.066.007.021.005.105.023.192.09a.49.49 0 01.071.699.368.368 0 01-.059.056c-.014.01-.017.01.007-.002.043-.023.121-.06.246-.111l-.383-.924a4.018 4.018 0 00-.332.151 1.1 1.1 0 00-.138.086.532.532 0 00-.222.369.512.512 0 00.415.566.757.757 0 00.194.011c.089-.005.201-.022.318-.043.476-.088 1.383-.314 2.605-.648 2.456-.672 6.255-1.803 10.606-3.212 8.693-2.814 19.637-6.754 26.479-10.376l-.468-.884zm-3.629 13.923a2.56 2.56 0 01.217-.054l.026-.004h-.024a.474.474 0 01-.415-.34c-.065-.22.047-.38.057-.395.04-.058.072-.071.016-.031-.175.127-.655.39-1.435.768-1.532.743-4.082 1.863-7.262 3.11-6.36 2.494-15.201 5.481-23.406 6.973l.178.984c8.296-1.508 17.204-4.521 23.593-7.026 3.196-1.254 5.771-2.384 7.333-3.141.766-.372 1.326-.67 1.584-.857a.915.915 0 00.226-.218.531.531 0 00.075-.45.526.526 0 00-.385-.36.675.675 0 00-.202-.015c-.049.003-.097.01-.141.018a3.416 3.416 0 00-.309.076l.274.962zm-25.587 8.665c5.683-1.868 14.606-4.8 25.616-8.674l-.332-.944c-11 3.87-19.914 6.801-25.596 8.668l.312.95zm.001 0l.001-.001-.316-.948h-.002l.317.949zm-.011.003h.001l-.297-.955.296.955zm-.005.002l-.287-.958.287.958zm.014-.004l.001-.001-.317-.948h-.001l.317.949zm.008-.003l-.333-.943.333.943zm-6.646 1.364a5.94 5.94 0 01-.223.037l-.067.008-.018.001-.006.001h.012a.44.44 0 01.044.005c.019.004.06.012.109.035a.488.488 0 01.087.832l.051-.025a6.56 6.56 0 01.183-.076c.157-.062.373-.141.647-.239 1.101-.39 3.079-1.04 5.816-1.94l-.312-.95c-2.731.898-4.723 1.553-5.838 1.948-.279.098-.507.183-.681.251a2.553 2.553 0 00-.412.193.605.605 0 00-.137.119c-.032.039-.232.299-.045.6a.512.512 0 00.354.236c.058.011.109.011.139.011.117-.002.287-.029.475-.063l-.178-.984zm25.367 3.408a1.26 1.26 0 00.304-.265.574.574 0 00.122-.374.538.538 0 00-.287-.452.674.674 0 00-.255-.073 1.14 1.14 0 00-.184-.003 3.561 3.561 0 00-.399.049c-.585.101-1.562.355-2.78.706-2.448.706-5.956 1.834-9.46 3.023-3.503 1.188-7.011 2.441-9.459 3.398-1.219.477-2.192.887-2.771 1.183a4.735 4.735 0 00-.381.212 1.24 1.24 0 00-.298.249.589.589 0 00-.134.344.541.541 0 00.241.472.672.672 0 00.266.101c.067.011.135.014.197.014v-1l-.035-.001c.004.001.017.003.037.01a.38.38 0 01.093.046.46.46 0 01.2.399.415.415 0 01-.086.242c-.025.031-.026.02.056-.032.068-.043.167-.099.298-.166.531-.271 1.463-.665 2.682-1.142 2.427-.949 5.919-2.196 9.416-3.382 3.496-1.187 6.988-2.309 9.415-3.009 1.22-.352 2.149-.591 2.673-.681a2.4 2.4 0 01.28-.036c.029-.002.039-.001.035-.001a.359.359 0 01-.119-.04.464.464 0 01-.24-.386c-.007-.162.072-.263.081-.275.025-.033.027-.022-.063.038l.555.832zm-12.609 4.555l12.501-4.5-.339-.941-12.5 4.5.338.941zm-6.011 2.003l6-2-.316-.948-6 2 .316.948zm-6.511 2.004l6.5-2-.294-.956-6.5 2 .294.956z" fill="#000"/><circle cx="8" cy="72.829" r="7" stroke="#000" stroke-width="2"/><circle r="5" transform="matrix(1 0 0 -1 38 143.829)" fill="#000"/><ellipse rx="3" ry="2.5" transform="matrix(1 0 0 -1 364 121.329)" fill="#000"/><path fill-rule="evenodd" clip-rule="evenodd" d="M68.391 76.83c-.913 0-1.654.74-1.654 1.654v9.93h-9.93a1.655 1.655 0 000 3.31h9.93v9.928a1.655 1.655 0 103.31 0v-9.929h9.929a1.655 1.655 0 100-3.31h-9.93v-9.929c0-.914-.74-1.655-1.655-1.655zM342.421 92.606c-.501-.5-1.313-.5-1.814 0l-5.442 5.442-5.442-5.442a1.283 1.283 0 00-1.814 1.814l5.442 5.442-5.441 5.441a1.283 1.283 0 001.813 1.814l5.442-5.441 5.442 5.441a1.283 1.283 0 101.814-1.814l-5.442-5.441 5.442-5.442c.501-.5.501-1.313 0-1.814z" fill="#000"/><path d="M391.5 86.463a1 1 0 010 1.732l-11.25 6.495a1 1 0 01-1.5-.866v-12.99a1 1 0 011.5-.866l11.25 6.495z" stroke="#000" stroke-width="2"/></svg>