<svg width="1737" height="1227" fill="none" xmlns="http://www.w3.org/2000/svg"><path d="M453.119 195.595c-63.687 19.447-220.574 120.677-329.813 341.94-27.058 54.806-40.979 148.991-17.566 204.631 17.42 41.399 67.154 98.248 150.802 103.428 49.222 3.048 65.081 1.3 110.8 9.453 68.58 12.23 226.21 44.248 300.988 95.534 27.419 18.805 98.02 58.009 159.271 56.349 33.497-.92 117.262-31.501 197.949-157.695 44.56-64.978 124.5-226.956 113.27-333.489-2.2-20.844-31.57-74.203-131.49-120.895-30.531-14.267-109.281-44.24-138.955-64.592-33.65-23.079-133.084-118.574-166.629-136.463-30.861-16.457-109.548-40.669-248.627 1.799z" fill="#FEF8F6" fill-opacity=".7"/><path d="M790.385 209.961c-31.982 40.032-40.763 77.95-40.218 101.889.75 32.918 5.327 41.445 34.574 70.696 33.85 33.856 96.032 126.436 86.724 217.821-13.996 137.401 14.341 225.375 49.997 270.804 30.562 38.94 102.438 107.465 214.668 118.896 60.54 6.167 229.78 14.453 343.68-78.442 40.37-32.926 133.72-129.385 203.15-353.99 18.79-60.782 25.29-175.063-3.46-200.383l-.4-.351c-12.94-11.4-39.95-35.204-107.79-36.046-27.81-.345-96.01 5.196-150.22 10.076-31.12 2.801-102.34-5.947-138.26-63.346-11.98-19.133-36.76-55.99-38.77-117.399-1.82-55.417-39.67-108.585-128.42-116.081-57.2-4.831-203.504 23.457-325.255 175.856z" fill="#FDF4DE" fill-opacity=".7"/></svg>