<svg width="37" height="36" viewBox="0 0 37 36" fill="none" xmlns="http://www.w3.org/2000/svg">
<path fill-rule="evenodd" clip-rule="evenodd" d="M19.0951 1.38771C19.0951 1.08237 18.8476 0.834839 18.5423 0.834839C18.2369 0.834839 17.9894 1.08237 17.9894 1.38771L17.9894 26.1211L9.27903 17.4182C9.06303 17.2024 8.71297 17.2025 8.49715 17.4185C8.28133 17.6345 8.28148 17.9846 8.49749 18.2004L18.0048 27.6996C18.0634 27.9421 18.2818 28.1223 18.5423 28.1223C18.5607 28.1223 18.579 28.1214 18.597 28.1196C18.7578 28.1371 18.9248 28.0843 19.0481 27.9611L28.8171 18.2004C29.0331 17.9846 29.0333 17.6345 28.8175 17.4185C28.6017 17.2025 28.2516 17.2024 28.0356 17.4182L19.0951 26.351V1.38771ZM0.963441 22.5373C1.26878 22.5373 1.51631 22.7848 1.51631 23.0902V30.8987C1.51631 31.7874 1.86965 32.6398 2.49873 33.2684C3.12783 33.8969 3.98118 34.2502 4.87106 34.2502H32.2244C33.1143 34.2502 33.9676 33.8969 34.5967 33.2684C35.2258 32.6398 35.5792 31.7874 35.5792 30.8987V23.0902C35.5792 22.7848 35.8267 22.5373 36.132 22.5373C36.4374 22.5373 36.6849 22.7848 36.6849 23.0902V30.8987C36.6849 32.081 36.2148 33.2148 35.3783 34.0506C34.5417 34.8864 33.4072 35.3559 32.2244 35.3559H4.87106C3.68822 35.3559 2.55372 34.8864 1.71718 34.0506C0.880626 33.2148 0.410568 32.081 0.410568 30.8987V23.0902C0.410568 22.7848 0.658098 22.5373 0.963441 22.5373Z" fill="#6A5F5F"/>
</svg>
