<svg width="411" height="598" viewBox="0 0 411 598" fill="none" xmlns="http://www.w3.org/2000/svg">
<path d="M352.669 500.073C352.669 481.665 385.255 442.754 380.163 404.908C375.071 367.063 296.177 344.635 262.381 349.793C220.134 356.241 200.265 414.842 200.265 458.365C200.265 478.865 202.06 507.422 227.635 542.189C267.472 596.341 288.515 604.453 314.993 594.136C341.471 583.819 367.073 588.651 380.163 562.537C393.253 536.422 352.67 519.547 352.669 500.073Z" fill="#EE6A4D" fill-opacity="0.05"/>
<path d="M142.541 56.8102C126.115 61.5747 82.9602 37.5738 50.5077 52.6931C18.0554 67.8123 18.462 156.109 31.8121 190.112C48.4999 232.616 105.933 238.225 144.77 226.96C163.062 221.655 188.079 212.387 212.483 176.646C250.493 120.977 252.285 96.8752 236.226 71.8596C220.168 46.844 217.852 18.8246 191.162 11.8961C164.472 4.96761 159.918 51.7698 142.541 56.8102Z" fill="#EE6A4D" fill-opacity="0.05"/>
<ellipse rx="136.441" ry="256.375" transform="matrix(-0.97065 -0.240495 0.20687 -0.978368 225.528 283.644)" fill="#F6C958" fill-opacity="0.2"/>
</svg>
