<svg width="36" height="36" viewBox="0 0 36 36" fill="none" xmlns="http://www.w3.org/2000/svg">
<path fill-rule="evenodd" clip-rule="evenodd" d="M36 18C36 22.7739 34.1036 27.3523 30.7279 30.7279C27.3523 34.1036 22.7739 36 18 36C13.2261 36 8.64773 34.1036 5.27208 30.7279C1.89642 27.3523 0 22.7739 0 18C0 13.2261 1.89642 8.64773 5.27208 5.27208C8.64773 1.89642 13.2261 0 18 0C22.7739 0 27.3523 1.89642 30.7279 5.27208C34.1036 8.64773 36 13.2261 36 18ZM17.2035 23.9535C16.9923 24.1647 16.8736 24.4513 16.8736 24.75C16.8736 25.0487 16.9923 25.3353 17.2035 25.5465C17.4147 25.7577 17.7013 25.8764 18 25.8764C18.2987 25.8764 18.5853 25.7577 18.7965 25.5465L25.5465 18.7965C25.6513 18.692 25.7344 18.5679 25.7911 18.4312C25.8478 18.2945 25.877 18.148 25.877 18C25.877 17.852 25.8478 17.7055 25.7911 17.5688C25.7344 17.4321 25.6513 17.308 25.5465 17.2035L18.7965 10.4535C18.6919 10.3489 18.5677 10.2659 18.4311 10.2093C18.2944 10.1527 18.1479 10.1236 18 10.1236C17.8521 10.1236 17.7056 10.1527 17.5689 10.2093C17.4323 10.2659 17.3081 10.3489 17.2035 10.4535C17.0989 10.5581 17.0159 10.6823 16.9593 10.8189C16.9027 10.9556 16.8736 11.1021 16.8736 11.25C16.8736 11.3979 16.9027 11.5444 16.9593 11.6811C17.0159 11.8177 17.0989 11.9419 17.2035 12.0465L22.0343 16.875H11.25C10.9516 16.875 10.6655 16.9935 10.4545 17.2045C10.2435 17.4155 10.125 17.7016 10.125 18C10.125 18.2984 10.2435 18.5845 10.4545 18.7955C10.6655 19.0065 10.9516 19.125 11.25 19.125H22.0343L17.2035 23.9535Z" fill="#BDBEB6"/>
</svg>
