<svg width="32" height="32" viewBox="0 0 32 32" fill="none" xmlns="http://www.w3.org/2000/svg">
<g clip-path="url(#clip0)">
<path d="M16 0C15.4823 0 15.0625 0.41975 15.0625 0.9375V6.9625C15.0625 7.48025 15.4823 7.9 16 7.9C16.5178 7.9 16.9375 7.48025 16.9375 6.9625V0.9375C16.9375 0.41975 16.5178 0 16 0Z" fill="#EE6A4D"/>
<path d="M16 24.1006C15.4823 24.1006 15.0625 24.5203 15.0625 25.0381V31.063C15.0625 31.5808 15.4823 32.0005 16 32.0005C16.5178 32.0005 16.9375 31.5808 16.9375 31.063V25.0381C16.9375 24.5203 16.5178 24.1006 16 24.1006Z" fill="#EE6A4D"/>
<path d="M12.2933 7.7048L9.28076 2.48699C9.02188 2.03855 8.44851 1.88493 8.00013 2.14386C7.55175 2.40274 7.39813 2.97611 7.657 3.42449L10.6695 8.6423C10.8431 8.94311 11.1583 9.11118 11.4823 9.11118C11.6413 9.11118 11.8025 9.07068 11.9501 8.98543C12.3985 8.72655 12.5521 8.15318 12.2933 7.7048Z" fill="#EE6A4D"/>
<path d="M24.343 28.5758L21.3306 23.3581C21.0717 22.9096 20.4983 22.756 20.0499 23.015C19.6016 23.2738 19.4479 23.8472 19.7068 24.2956L22.7193 29.5133C22.8929 29.8141 23.208 29.9821 23.532 29.9821C23.6911 29.9821 23.8523 29.9416 23.9999 29.8564C24.4483 29.5975 24.6019 29.0241 24.343 28.5758Z" fill="#EE6A4D"/>
<path d="M8.64233 10.6689L3.42445 7.65634C2.97595 7.39734 2.4027 7.55103 2.14382 7.99947C1.88495 8.44784 2.03857 9.02122 2.48695 9.28009L7.70483 12.2927C7.85246 12.378 8.01364 12.4185 8.17271 12.4185C8.49671 12.4185 8.81183 12.2503 8.98546 11.9495C9.24433 11.5012 9.09071 10.9278 8.64233 10.6689Z" fill="#EE6A4D"/>
<path d="M29.5133 22.7195L24.2955 19.7071C23.847 19.4482 23.2737 19.6018 23.0149 20.0502C22.756 20.4987 22.9097 21.0721 23.358 21.3309L28.5758 24.3433C28.7235 24.4286 28.8846 24.4691 29.0436 24.4691C29.3676 24.4691 29.6828 24.3009 29.8564 24.0002C30.1153 23.5517 29.9616 22.9783 29.5133 22.7195Z" fill="#EE6A4D"/>
<path d="M6.96256 15.0632H0.9375C0.41975 15.0632 0 15.483 0 16.0007C0 16.5185 0.41975 16.9382 0.9375 16.9382H6.96256C7.48031 16.9382 7.90006 16.5185 7.90006 16.0007C7.90006 15.483 7.48031 15.0632 6.96256 15.0632Z" fill="#EE6A4D"/>
<path d="M31.0625 15.0632H25.0376C24.5198 15.0632 24.1001 15.483 24.1001 16.0007C24.1001 16.5185 24.5198 16.9382 25.0376 16.9382H31.0625C31.5802 16.9382 32 16.5185 32 16.0007C32 15.483 31.5802 15.0632 31.0625 15.0632Z" fill="#EE6A4D"/>
<path d="M8.98545 20.0502C8.72657 19.6018 8.15332 19.4482 7.70482 19.7071L2.48695 22.7196C2.03857 22.9785 1.88495 23.5518 2.14382 24.0002C2.31745 24.301 2.63257 24.4691 2.95657 24.4691C3.11563 24.4691 3.27682 24.4286 3.42445 24.3433L8.64232 21.3308C9.0907 21.072 9.24432 20.4986 8.98545 20.0502Z" fill="#EE6A4D"/>
<path d="M29.8564 8.00014C29.5975 7.55171 29.0242 7.39814 28.5758 7.65702L23.358 10.6695C22.9097 10.9283 22.756 11.5017 23.0149 11.9501C23.1885 12.2509 23.5037 12.419 23.8277 12.419C23.9867 12.419 24.1479 12.3785 24.2955 12.2933L29.5133 9.28077C29.9616 9.02189 30.1153 8.44852 29.8564 8.00014Z" fill="#EE6A4D"/>
<path d="M11.9501 23.015C11.5018 22.756 10.9283 22.9097 10.6695 23.3581L7.657 28.5759C7.39813 29.0243 7.55175 29.5977 8.00013 29.8565C8.14776 29.9418 8.30894 29.9823 8.46801 29.9823C8.79201 29.9823 9.1072 29.8142 9.28076 29.5134L12.2933 24.2956C12.5521 23.8472 12.3985 23.2739 11.9501 23.015Z" fill="#EE6A4D"/>
<path d="M23.9999 2.14389C23.5515 1.88489 22.9781 2.03858 22.7193 2.48702L19.7069 7.70471C19.4479 8.15309 19.6015 8.72646 20.05 8.98534C20.1976 9.07059 20.3588 9.11109 20.5179 9.11109C20.8419 9.11109 21.157 8.94296 21.3306 8.64221L24.3431 3.42452C24.6019 2.97614 24.4483 2.40277 23.9999 2.14389Z" fill="#EE6A4D"/>
</g>
<defs>
<clipPath id="clip0">
<rect width="32" height="32" fill="white"/>
</clipPath>
</defs>
</svg>
