<svg width="385" height="385" viewBox="0 0 385 385" fill="none" xmlns="http://www.w3.org/2000/svg">
<path d="M36.0002 111C26.6484 125.5 25.0002 138.5 26.0002 146.5C27.3751 157.5 29.2001 160.2 40.0003 169C52.5003 179.185 76.5 208.073 76.5 239C76.5 285.5 88.9998 314 102.5 328C114.072 340 140.5 360.5 178.5 360.5C199 360.5 256 357.5 291 322.5C303.406 310.094 331.4 274.6 347 197C351.222 176 349.5 137.5 339 130L338.854 129.896C334.129 126.519 324.263 119.468 301.5 121.5C292.167 122.333 269.5 126.516 251.5 130C241.167 132 217 131.5 203 113.5C198.334 107.5 188.771 96 186 75.5C183.5 57 169 40.4828 139 41C119.667 41.3333 71.6003 55.8 36.0002 111Z" fill="#FCEFCD"/>
<circle cx="192" cy="192" r="138.5" stroke="#759196"/>
</svg>
