<svg width="385" height="385" viewBox="0 0 385 385" fill="none" xmlns="http://www.w3.org/2000/svg">
<path d="M68.5001 124.5C54.7627 143 30.9001 204.2 42.5001 291C45.3734 312.5 59.1999 342.9 75.9999 354.5C88.5 363.131 112.708 369.795 136.5 354.5C150.5 345.5 154.5 341.8 168.5 335C189.5 324.8 238.5 302.5 268.5 302.5C279.5 302.5 306.1 299.8 322.5 287C331.469 280 348.6 254.2 347 201C347 173 338.5 109.463 315.5 80.5C311 74.8333 293 65.1 257 71.5C246 73.4555 218.905 80.5 207 80.5C193.5 80.5 148.5 72.5 136 74C124.5 75.38 98.4999 84.1 68.5001 124.5Z" fill="#FCEFCD"/>
<circle cx="192" cy="192" r="138.5" stroke="#759196"/>
</svg>
