<svg width="1227" height="385" viewBox="0 0 1227 385" fill="none" xmlns="http://www.w3.org/2000/svg">
<path d="M878 111C868.648 125.5 867 138.5 868 146.5C869.375 157.5 871.2 160.2 882 169C894.5 179.185 918.5 208.073 918.5 239C918.5 285.5 931 314 944.5 328C956.072 340 982.5 360.5 1020.5 360.5C1041 360.5 1098 357.5 1133 322.5C1145.41 310.094 1173.4 274.6 1189 197C1193.22 176 1191.5 137.5 1181 130L1180.85 129.896C1176.13 126.519 1166.26 119.468 1143.5 121.5C1134.17 122.333 1111.5 126.516 1093.5 130C1083.17 132 1059 131.5 1045 113.5C1040.33 107.5 1030.77 96 1028 75.5C1025.5 57 1011 40.4828 981 41C961.667 41.3333 913.6 55.8 878 111Z" fill="#FCEFCD"/>
<circle cx="1034" cy="192" r="138.5" stroke="#759196"/>
<path d="M489.5 124.5C475.763 143 451.9 204.2 463.5 291C466.373 312.5 480.2 342.9 497 354.5C509.5 363.131 533.708 369.795 557.5 354.5C571.5 345.5 575.5 341.8 589.5 335C610.5 324.8 659.5 302.5 689.5 302.5C700.5 302.5 727.1 299.8 743.5 287C752.469 280 769.6 254.2 768 201C768 173 759.5 109.463 736.5 80.5C732 74.8333 714 65.1 678 71.5C667 73.4555 639.905 80.5 628 80.5C614.5 80.5 569.5 72.5 557 74C545.5 75.38 519.5 84.1 489.5 124.5Z" fill="#FCEFCD"/>
<circle cx="613" cy="192" r="138.5" stroke="#759196"/>
<path d="M21.9527 199.512C-2.04733 184.012 3.4526 121.011 71.4526 70.0111C100.785 48.0113 173.153 31.0109 229.953 39.0109C300.953 49.0109 372.953 65.5116 372.953 133.012C372.953 164.803 351.453 228.512 326.953 263.012C302.453 297.512 201.453 374.511 156.953 358.511C112.453 342.511 137.453 314.011 115.453 273.511C93.4528 233.011 45.9528 215.012 21.9527 199.512Z" fill="#FCEFCD"/>
<circle cx="192" cy="192" r="138.5" stroke="#759196"/>
</svg>
